<?xml version="1.0" encoding="UTF-8" standalone="no"?>
<!DOCTYPE svg PUBLIC "-//W3C//DTD SVG 1.1//EN" "http://www.w3.org/Graphics/SVG/1.1/DTD/svg11.dtd">
<svg version="1.1" xmlns="http://www.w3.org/2000/svg" xmlns:xlink="http://www.w3.org/1999/xlink" preserveAspectRatio="xMidYMid meet" viewBox="0 0 314.88 271.29" width="80" height="68.93"><defs><path d="M312.87 0C312.87 0 312.87 0 312.87 0C312.87 161.39 312.87 251.04 312.87 268.98C312.87 268.98 312.87 268.98 312.87 268.98C126.11 268.98 22.36 268.98 1.61 268.98C1.61 268.98 1.61 268.98 1.61 268.98C1.61 107.59 1.61 17.93 1.61 0C1.61 0 1.61 0 1.61 0C188.37 0 292.12 0 312.87 0Z" id="c1Q6kZYMNM"></path><path d="M-264.05 128.96L-263.87 128.97L-263.69 128.98L-263.52 129L-263.35 129.02L-263.18 129.04L-263.02 129.07L-262.86 129.1L-262.7 129.14L-262.55 129.17L-262.4 129.21L-262.25 129.26L-262.11 129.31L-261.97 129.36L-261.84 129.41L-261.71 129.47L-261.59 129.53L-261.46 129.59L-261.35 129.65L-261.23 129.72L-261.12 129.79L-261.02 129.86L-260.92 129.94L-260.82 130.01L-260.72 130.09L-260.63 130.17L-260.54 130.26L-260.46 130.34L-260.38 130.43L-260.3 130.52L-260.23 130.61L-260.16 130.7L-260.09 130.8L-260.03 130.9L-259.97 131L-259.91 131.1L-259.86 131.2L-259.81 131.31L-259.77 131.41L-259.72 131.52L-259.68 131.63L-259.65 131.74L-259.62 131.85L-259.59 131.96L-259.56 132.07L-259.54 132.19L-259.53 132.3L-259.51 132.42L-259.5 132.54L-259.5 132.66L-259.5 132.78L-259.5 132.89L-259.5 133L-259.5 133.11L-259.51 133.22L-259.52 133.33L-259.53 133.44L-259.54 133.54L-259.56 133.65L-259.57 133.76L-259.59 133.87L-259.61 133.98L-259.63 134.08L-259.65 134.19L-259.68 134.3L-259.71 134.41L-259.74 134.52L-259.77 134.63L-259.81 134.75L-259.86 134.86L-259.9 134.98L-259.95 135.1L-260.01 135.22L-260.07 135.34L-260.13 135.46L-260.2 135.58L-260.27 135.71L-260.34 135.83L-260.42 135.96L-260.5 136.09L-260.59 136.22L-260.68 136.36L-260.78 136.49L-260.88 136.63L-260.99 136.77L-261.1 136.92L-261.22 137.06L-261.34 137.21L-261.47 137.36L-261.6 137.51L-261.74 137.67L-261.89 137.82L-262.04 137.98L-262.2 138.15L-262.37 138.32L-262.54 138.49L-262.72 138.67L-262.91 138.85L-263.11 139.03L-263.31 139.22L-263.52 139.41L-263.73 139.6L-263.95 139.8L-266.64 142.23L-259.23 142.23L-259.22 142.23L-259.2 142.23L-259.19 142.23L-259.17 142.24L-259.16 142.24L-259.14 142.24L-259.13 142.25L-259.11 142.25L-259.1 142.26L-259.08 142.27L-259.07 142.27L-259.05 142.28L-259.04 142.29L-259.02 142.3L-259.01 142.31L-258.99 142.31L-258.98 142.32L-258.97 142.33L-258.95 142.35L-258.94 142.36L-258.92 142.37L-258.91 142.38L-258.9 142.4L-258.89 142.41L-258.87 142.43L-258.86 142.44L-258.85 142.46L-258.84 142.48L-258.83 142.49L-258.83 142.51L-258.82 142.53L-258.81 142.55L-258.8 142.57L-258.79 142.59L-258.78 142.61L-258.78 142.63L-258.77 142.65L-258.76 142.68L-258.76 142.7L-258.75 142.72L-258.75 142.75L-258.74 142.77L-258.74 142.8L-258.74 142.82L-258.73 142.85L-258.73 142.88L-258.73 142.9L-258.73 142.93L-258.72 142.96L-258.72 142.99L-258.72 143.02L-258.72 143.05L-258.72 143.08L-258.72 143.11L-258.72 143.15L-258.73 143.18L-258.73 143.21L-258.73 143.24L-258.73 143.27L-258.74 143.29L-258.74 143.32L-258.74 143.35L-258.75 143.38L-258.75 143.4L-258.76 143.43L-258.76 143.45L-258.77 143.47L-258.78 143.5L-258.78 143.52L-258.79 143.54L-258.8 143.56L-258.8 143.58L-258.81 143.6L-258.82 143.62L-258.82 143.64L-258.83 143.65L-258.84 143.67L-258.85 143.69L-258.85 143.7L-258.86 143.72L-258.87 143.73L-258.88 143.75L-258.89 143.76L-258.91 143.78L-258.92 143.79L-258.93 143.8L-258.95 143.81L-258.96 143.82L-258.97 143.83L-258.99 143.84L-259 143.85L-259.02 143.86L-259.04 143.87L-259.05 143.87L-259.07 143.88L-259.09 143.88L-259.1 143.88L-259.12 143.89L-259.14 143.89L-259.15 143.89L-259.17 143.9L-259.18 143.9L-259.2 143.9L-259.21 143.9L-268.64 143.9L-268.67 143.9L-268.69 143.9L-268.72 143.9L-268.75 143.9L-268.77 143.89L-268.8 143.89L-268.82 143.89L-268.84 143.89L-268.87 143.88L-268.89 143.88L-268.91 143.88L-268.94 143.87L-268.96 143.87L-268.98 143.86L-269 143.85L-269.02 143.85L-269.04 143.84L-269.06 143.83L-269.08 143.82L-269.1 143.81L-269.12 143.8L-269.14 143.78L-269.15 143.77L-269.17 143.76L-269.19 143.74L-269.2 143.73L-269.22 143.72L-269.23 143.7L-269.24 143.69L-269.26 143.67L-269.27 143.65L-269.28 143.63L-269.29 143.61L-269.3 143.59L-269.31 143.57L-269.32 143.55L-269.33 143.52L-269.34 143.5L-269.34 143.47L-269.35 143.45L-269.35 143.42L-269.36 143.39L-269.36 143.36L-269.37 143.33L-269.37 143.29L-269.37 143.26L-269.37 143.23L-269.38 143.19L-269.38 143.16L-269.38 143.12L-269.38 143.09L-269.38 143.05L-269.38 143.01L-269.38 142.98L-269.38 142.95L-269.38 142.92L-269.38 142.88L-269.38 142.85L-269.37 142.82L-269.37 142.79L-269.37 142.76L-269.37 142.74L-269.37 142.71L-269.36 142.68L-269.36 142.65L-269.36 142.63L-269.36 142.6L-269.35 142.57L-269.35 142.55L-269.34 142.53L-269.34 142.5L-269.33 142.48L-269.33 142.45L-269.32 142.43L-269.31 142.41L-269.31 142.39L-269.3 142.37L-269.29 142.35L-269.28 142.33L-269.27 142.31L-269.26 142.29L-269.25 142.27L-269.23 142.25L-269.22 142.23L-269.21 142.21L-269.19 142.19L-269.18 142.17L-269.16 142.15L-269.15 142.13L-269.13 142.11L-269.12 142.09L-269.1 142.07L-269.08 142.05L-269.07 142.03L-269.05 142.01L-269.03 141.99L-269.01 141.97L-268.99 141.94L-268.97 141.92L-268.94 141.9L-268.92 141.87L-268.9 141.85L-268.88 141.83L-268.85 141.8L-265.55 138.77L-265.38 138.61L-265.21 138.46L-265.05 138.3L-264.89 138.15L-264.74 138L-264.6 137.85L-264.46 137.71L-264.32 137.57L-264.19 137.43L-264.07 137.3L-263.95 137.16L-263.83 137.03L-263.73 136.9L-263.62 136.78L-263.52 136.65L-263.42 136.53L-263.33 136.41L-263.24 136.29L-263.15 136.17L-263.07 136.05L-262.99 135.94L-262.91 135.82L-262.84 135.71L-262.78 135.6L-262.71 135.49L-262.65 135.39L-262.6 135.28L-262.54 135.18L-262.49 135.08L-262.45 134.98L-262.4 134.88L-262.36 134.79L-262.32 134.69L-262.29 134.6L-262.26 134.5L-262.23 134.41L-262.2 134.32L-262.18 134.23L-262.16 134.14L-262.15 134.06L-262.13 133.97L-262.11 133.89L-262.1 133.81L-262.09 133.73L-262.08 133.64L-262.07 133.56L-262.06 133.48L-262.05 133.4L-262.05 133.33L-262.04 133.25L-262.04 133.17L-262.04 133.1L-262.04 133.02L-262.05 132.95L-262.05 132.88L-262.06 132.8L-262.07 132.73L-262.08 132.66L-262.1 132.59L-262.11 132.52L-262.13 132.45L-262.16 132.38L-262.18 132.31L-262.21 132.24L-262.23 132.17L-262.26 132.11L-262.29 132.04L-262.32 131.98L-262.36 131.91L-262.4 131.85L-262.43 131.79L-262.47 131.73L-262.52 131.68L-262.56 131.62L-262.61 131.57L-262.66 131.51L-262.71 131.46L-262.76 131.41L-262.82 131.36L-262.87 131.31L-262.93 131.27L-263 131.22L-263.06 131.18L-263.12 131.14L-263.19 131.09L-263.26 131.06L-263.33 131.02L-263.41 130.98L-263.48 130.95L-263.56 130.91L-263.64 130.88L-263.72 130.85L-263.8 130.83L-263.89 130.8L-263.98 130.78L-264.07 130.76L-264.16 130.74L-264.25 130.73L-264.35 130.72L-264.44 130.7L-264.54 130.7L-264.64 130.69L-264.75 130.69L-264.85 130.69L-264.97 130.69L-265.09 130.69L-265.21 130.7L-265.32 130.7L-265.44 130.72L-265.55 130.73L-265.66 130.74L-265.77 130.76L-265.88 130.78L-265.98 130.8L-266.09 130.83L-266.19 130.85L-266.29 130.88L-266.39 130.91L-266.48 130.94L-266.57 130.98L-266.67 131.01L-266.75 131.04L-266.84 131.07L-266.93 131.11L-267.01 131.14L-267.1 131.17L-267.18 131.21L-267.26 131.24L-267.34 131.27L-267.41 131.31L-267.48 131.34L-267.56 131.38L-267.62 131.41L-267.69 131.44L-267.76 131.48L-267.82 131.51L-267.88 131.54L-267.94 131.58L-268 131.61L-268.06 131.64L-268.11 131.67L-268.17 131.7L-268.22 131.73L-268.27 131.76L-268.31 131.78L-268.36 131.81L-268.4 131.83L-268.44 131.84L-268.48 131.86L-268.52 131.88L-268.55 131.89L-268.58 131.9L-268.61 131.9L-268.64 131.91L-268.67 131.91L-268.69 131.91L-268.71 131.91L-268.72 131.91L-268.73 131.91L-268.75 131.91L-268.76 131.91L-268.77 131.9L-268.79 131.9L-268.8 131.9L-268.81 131.89L-268.82 131.89L-268.83 131.88L-268.84 131.88L-268.85 131.87L-268.86 131.86L-268.87 131.85L-268.88 131.85L-268.89 131.84L-268.91 131.83L-268.92 131.82L-268.92 131.81L-268.93 131.8L-268.94 131.78L-268.95 131.77L-268.96 131.76L-268.97 131.75L-268.97 131.73L-268.98 131.72L-268.99 131.7L-268.99 131.68L-269 131.66L-269 131.64L-269.01 131.62L-269.01 131.6L-269.02 131.58L-269.02 131.56L-269.03 131.53L-269.03 131.51L-269.04 131.48L-269.04 131.46L-269.05 131.43L-269.05 131.4L-269.05 131.37L-269.05 131.34L-269.06 131.31L-269.06 131.28L-269.06 131.25L-269.06 131.21L-269.06 131.18L-269.06 131.14L-269.06 131.11L-269.06 131.07L-269.06 131.03L-269.06 130.75L-269.06 130.73L-269.06 130.71L-269.06 130.69L-269.05 130.67L-269.05 130.66L-269.04 130.64L-269.04 130.62L-269.04 130.61L-269.03 130.59L-269.03 130.58L-269.02 130.56L-269.02 130.55L-269.01 130.53L-269 130.52L-269 130.51L-268.99 130.49L-268.99 130.48L-268.98 130.47L-268.97 130.46L-268.97 130.44L-268.96 130.43L-268.95 130.42L-268.95 130.4L-268.94 130.39L-268.93 130.38L-268.92 130.37L-268.91 130.35L-268.9 130.34L-268.89 130.32L-268.88 130.31L-268.87 130.29L-268.85 130.28L-268.84 130.26L-268.82 130.25L-268.8 130.23L-268.78 130.21L-268.76 130.19L-268.74 130.17L-268.71 130.15L-268.69 130.14L-268.66 130.12L-268.63 130.09L-268.59 130.07L-268.56 130.05L-268.52 130.03L-268.48 130L-268.43 129.98L-268.38 129.95L-268.33 129.92L-268.28 129.9L-268.23 129.87L-268.17 129.84L-268.11 129.8L-268.04 129.77L-267.98 129.74L-267.91 129.71L-267.84 129.68L-267.77 129.64L-267.7 129.61L-267.62 129.58L-267.54 129.55L-267.46 129.52L-267.38 129.49L-267.29 129.46L-267.2 129.43L-267.11 129.4L-267.02 129.37L-266.92 129.34L-266.83 129.31L-266.73 129.28L-266.63 129.26L-266.53 129.23L-266.43 129.21L-266.33 129.18L-266.22 129.16L-266.12 129.14L-266.01 129.11L-265.9 129.09L-265.79 129.07L-265.69 129.05L-265.58 129.04L-265.47 129.02L-265.35 129.01L-265.24 129L-265.13 128.99L-265.01 128.98L-264.9 128.97L-264.78 128.96L-264.67 128.96L-264.55 128.96L-264.43 128.96L-264.24 128.96L-264.05 128.96Z" id="c2EpJ1ffo3"></path><path d="M-249.49 128.99L-249.13 129.03L-248.78 129.08L-248.45 129.15L-248.13 129.24L-247.83 129.34L-247.55 129.46L-247.28 129.59L-247.02 129.73L-246.78 129.89L-246.55 130.07L-246.34 130.25L-246.14 130.46L-245.95 130.68L-245.77 130.91L-245.61 131.16L-245.46 131.42L-245.33 131.69L-245.2 131.98L-245.09 132.29L-244.99 132.6L-244.9 132.93L-244.82 133.28L-244.76 133.64L-244.7 134.01L-244.65 134.39L-244.62 134.78L-244.58 135.19L-244.56 135.61L-244.55 136.05L-244.54 136.5L-244.55 136.92L-244.56 137.33L-244.59 137.73L-244.62 138.12L-244.67 138.51L-244.72 138.88L-244.79 139.25L-244.86 139.6L-244.94 139.95L-245.04 140.28L-245.14 140.6L-245.27 140.9L-245.4 141.2L-245.55 141.48L-245.71 141.75L-245.88 142L-246.07 142.25L-246.27 142.48L-246.48 142.69L-246.71 142.89L-246.95 143.08L-247.21 143.26L-247.47 143.42L-247.76 143.56L-248.05 143.69L-248.37 143.8L-248.7 143.9L-249.05 143.97L-249.41 144.03L-249.79 144.08L-250.19 144.1L-250.6 144.11L-251 144.1L-251.38 144.08L-251.74 144.04L-252.09 143.99L-252.42 143.92L-252.74 143.84L-253.04 143.74L-253.32 143.62L-253.59 143.49L-253.84 143.35L-254.08 143.19L-254.31 143.01L-254.53 142.82L-254.73 142.62L-254.92 142.4L-255.09 142.17L-255.26 141.92L-255.41 141.66L-255.54 141.38L-255.67 141.09L-255.78 140.79L-255.88 140.47L-255.97 140.15L-256.04 139.8L-256.11 139.44L-256.17 139.07L-256.21 138.69L-256.25 138.29L-256.28 137.88L-256.31 137.46L-256.32 137.02L-256.32 136.57L-256.32 136.16L-256.3 135.75L-256.28 135.35L-256.24 134.96L-256.2 134.58L-256.15 134.21L-256.08 133.85L-256.01 133.49L-255.92 133.15L-255.83 132.81L-255.72 132.49L-255.6 132.18L-255.46 131.89L-255.32 131.61L-255.16 131.34L-254.99 131.08L-254.8 130.83L-254.6 130.6L-254.39 130.38L-254.16 130.18L-253.92 129.99L-253.66 129.82L-253.39 129.66L-253.11 129.52L-252.81 129.39L-252.5 129.27L-252.17 129.18L-251.82 129.1L-251.46 129.04L-251.08 128.99L-250.68 128.96L-250.27 128.96L-249.87 128.96L-249.49 128.99ZM-251.09 130.62L-251.41 130.68L-251.7 130.77L-251.97 130.88L-252.22 131.02L-252.44 131.18L-252.65 131.36L-252.84 131.56L-253.02 131.78L-253.18 132.02L-253.32 132.28L-253.44 132.55L-253.55 132.84L-253.65 133.14L-253.74 133.46L-253.81 133.79L-253.87 134.14L-253.91 134.5L-253.94 134.87L-253.97 135.25L-253.99 135.64L-254 136.03L-254.01 136.43L-254 136.97L-253.99 137.48L-253.96 137.96L-253.92 138.42L-253.87 138.84L-253.81 139.24L-253.74 139.61L-253.65 139.96L-253.55 140.29L-253.44 140.59L-253.32 140.87L-253.18 141.12L-253.04 141.35L-252.88 141.56L-252.7 141.75L-252.51 141.92L-252.31 142.06L-252.09 142.18L-251.86 142.28L-251.62 142.36L-251.36 142.42L-251.08 142.47L-250.79 142.49L-250.48 142.5L-250.24 142.5L-250.01 142.48L-249.79 142.45L-249.57 142.42L-249.37 142.37L-249.18 142.3L-249 142.23L-248.82 142.15L-248.66 142.05L-248.5 141.95L-248.35 141.84L-248.21 141.71L-248.08 141.58L-247.96 141.45L-247.84 141.3L-247.74 141.14L-247.64 140.98L-247.55 140.8L-247.46 140.62L-247.38 140.44L-247.31 140.24L-247.24 140.04L-247.18 139.83L-247.12 139.62L-247.08 139.4L-247.03 139.17L-246.99 138.94L-246.96 138.7L-246.93 138.46L-246.91 138.21L-246.9 137.96L-246.89 137.7L-246.88 137.44L-246.87 137.17L-246.86 136.9L-246.86 136.63L-246.86 136.27L-246.87 135.93L-246.88 135.59L-246.9 135.27L-246.92 134.96L-246.95 134.66L-246.98 134.37L-247.02 134.1L-247.06 133.83L-247.11 133.58L-247.16 133.34L-247.21 133.11L-247.27 132.9L-247.34 132.69L-247.42 132.49L-247.5 132.3L-247.59 132.13L-247.69 131.96L-247.78 131.8L-247.89 131.66L-248 131.52L-248.12 131.39L-248.24 131.28L-248.37 131.17L-248.5 131.07L-248.64 130.98L-248.79 130.9L-248.94 130.83L-249.1 130.77L-249.27 130.72L-249.43 130.67L-249.61 130.63L-249.79 130.6L-249.99 130.58L-250.18 130.57L-250.39 130.56L-250.75 130.58L-251.09 130.62Z" id="f4uhvLqhjR"></path><path d="M11.68 261.07L11.68 11.05L303.16 11.05L303.16 261.07L11.68 261.07Z" id="ggwbsKtj0"></path><path d="M113.2 52.25L113.53 52.25L113.86 52.25L114.18 52.26L114.5 52.26L114.82 52.26L115.13 52.26L115.44 52.27L115.75 52.27L116.06 52.27L116.36 52.28L116.66 52.28L116.96 52.29L117.25 52.29L117.55 52.3L117.84 52.3L118.12 52.31L118.41 52.32L118.69 52.32L118.96 52.33L119.24 52.34L119.51 52.35L119.78 52.35L120.05 52.36L120.31 52.37L120.57 52.38L120.83 52.39L121.09 52.4L121.34 52.41L121.59 52.42L121.84 52.44L122.08 52.45L122.32 52.46L122.56 52.47L122.8 52.48L123.03 52.5L123.26 52.51L123.49 52.53L123.71 52.54L123.94 52.55L124.16 52.57L124.38 52.59L124.6 52.6L124.81 52.62L125.03 52.63L125.24 52.65L125.46 52.66L125.67 52.68L125.88 52.69L126.1 52.71L126.31 52.73L126.51 52.74L126.72 52.76L126.93 52.77L127.13 52.79L127.34 52.81L127.54 52.82L127.74 52.84L127.94 52.85L128.14 52.87L128.34 52.89L128.54 52.9L128.74 52.92L128.93 52.94L129.13 52.95L129.32 52.97L129.51 52.99L129.71 53L129.9 53.02L130.08 53.04L130.27 53.05L130.46 53.07L130.65 53.09L130.83 53.1L131.01 53.12L131.2 53.14L131.38 53.16L131.56 53.17L131.74 53.19L132.25 53.27L132.76 53.35L133.27 53.43L133.77 53.52L134.27 53.6L134.77 53.69L135.26 53.79L135.75 53.88L136.24 53.98L136.73 54.07L137.21 54.17L137.69 54.28L138.17 54.38L138.64 54.49L139.11 54.6L139.58 54.71L140.04 54.82L140.5 54.94L140.96 55.06L141.42 55.18L141.87 55.3L142.32 55.43L142.77 55.55L143.21 55.68L143.65 55.81L144.09 55.95L144.52 56.08L144.96 56.22L145.38 56.36L145.81 56.51L146.23 56.65L146.65 56.8L147.07 56.95L147.48 57.1L147.89 57.25L148.3 57.41L148.71 57.57L149.11 57.73L149.51 57.89L149.9 58.05L150.3 58.22L150.68 58.39L151.07 58.56L151.45 58.74L151.84 58.91L152.21 59.09L152.59 59.27L152.96 59.45L153.32 59.64L153.69 59.83L154.05 60.01L154.41 60.21L154.76 60.4L155.11 60.6L155.46 60.79L155.81 60.99L156.15 61.2L156.49 61.4L156.82 61.61L157.15 61.82L157.48 62.03L157.81 62.24L158.13 62.46L158.45 62.68L158.77 62.9L159.08 63.12L159.39 63.34L159.7 63.57L160 63.8L160.3 64.03L160.6 64.26L160.89 64.5L161.18 64.74L161.47 64.98L161.75 65.22L162.04 65.46L162.31 65.71L162.59 65.96L162.86 66.21L163.13 66.46L163.4 66.72L163.66 66.97L163.92 67.23L164.17 67.5L164.43 67.76L164.68 68.02L164.92 68.29L165.17 68.56L165.4 68.83L165.64 69.1L165.87 69.38L166.1 69.65L166.33 69.93L166.55 70.21L166.77 70.49L166.98 70.78L167.2 71.06L167.41 71.35L167.61 71.64L167.81 71.93L168.01 72.22L168.21 72.52L168.4 72.81L168.59 73.11L168.77 73.41L168.96 73.72L169.13 74.02L169.31 74.33L169.48 74.63L169.65 74.94L169.81 75.25L169.98 75.57L170.13 75.88L170.29 76.2L170.44 76.52L170.59 76.84L170.73 77.16L170.88 77.49L171.01 77.81L171.15 78.14L171.28 78.47L171.41 78.8L171.53 79.13L171.66 79.47L171.78 79.81L171.89 80.14L172 80.48L172.11 80.83L172.22 81.17L172.32 81.51L172.42 81.86L172.51 82.21L172.61 82.56L172.69 82.91L172.78 83.26L172.86 83.62L172.94 83.98L173.02 84.33L173.09 84.69L173.16 85.06L173.22 85.42L173.28 85.79L173.34 86.15L173.4 86.52L173.45 86.89L173.5 87.27L173.54 87.64L173.58 88.01L173.62 88.39L173.66 88.77L173.69 89.15L173.72 89.53L173.74 89.92L173.77 90.3L173.78 90.69L173.8 91.08L173.81 91.47L173.82 91.86L173.82 92.26L173.83 92.65L173.82 93.04L173.82 93.42L173.81 93.8L173.8 94.18L173.79 94.56L173.77 94.93L173.75 95.3L173.73 95.67L173.7 96.04L173.68 96.41L173.64 96.77L173.61 97.13L173.57 97.49L173.53 97.85L173.49 98.21L173.44 98.56L173.39 98.92L173.34 99.27L173.28 99.61L173.23 99.96L173.16 100.3L173.1 100.65L173.03 100.99L172.96 101.32L172.89 101.66L172.81 101.99L172.73 102.33L172.65 102.66L172.57 102.99L172.48 103.31L172.39 103.64L172.29 103.96L172.19 104.28L172.09 104.6L171.99 104.91L171.88 105.23L171.77 105.54L171.66 105.85L171.55 106.16L171.43 106.46L171.31 106.77L171.18 107.07L171.06 107.37L170.93 107.67L170.79 107.97L170.66 108.26L170.52 108.55L170.38 108.85L170.24 109.14L170.09 109.42L169.95 109.71L169.8 109.99L169.64 110.28L169.49 110.56L169.33 110.84L169.17 111.11L169 111.39L168.84 111.66L168.67 111.94L168.5 112.21L168.32 112.47L168.15 112.74L167.97 113.01L167.78 113.27L167.6 113.53L167.41 113.79L167.22 114.05L167.03 114.3L166.83 114.56L166.64 114.81L166.43 115.06L166.23 115.31L166.03 115.56L165.82 115.8L165.61 116.05L165.39 116.29L165.17 116.53L164.95 116.77L164.73 117L164.51 117.24L164.28 117.47L164.05 117.7L163.82 117.93L163.58 118.16L163.35 118.39L163.11 118.62L162.87 118.84L162.63 119.06L162.38 119.28L162.13 119.5L161.88 119.72L161.63 119.94L161.38 120.15L161.12 120.36L160.86 120.58L160.6 120.79L160.34 120.99L160.07 121.2L159.81 121.41L159.54 121.61L159.26 121.81L158.99 122.01L158.71 122.21L158.43 122.41L158.15 122.6L157.87 122.8L157.58 122.99L157.3 123.18L157.01 123.37L156.71 123.56L156.42 123.74L156.12 123.93L155.82 124.11L155.52 124.29L155.22 124.47L154.91 124.65L154.61 124.83L154.3 125.01L153.98 125.18L153.67 125.35L153.35 125.52L153.03 125.69L152.71 125.86L152.39 126.03L152.07 126.2L151.74 126.36L151.42 126.52L151.09 126.69L150.76 126.85L150.42 127.01L150.09 127.17L149.75 127.32L149.41 127.48L149.07 127.63L148.73 127.78L148.38 127.94L148.04 128.09L147.69 128.23L147.34 128.38L146.99 128.53L146.63 128.67L146.28 128.82L145.92 128.96L145.56 129.1L145.2 129.24L144.83 129.37L144.47 129.51L144.1 129.65L143.73 129.78L143.36 129.91L142.99 130.04L142.61 130.17L142.24 130.3L141.86 130.43L141.48 130.55L141.09 130.68L140.71 130.8L140.32 130.92L139.93 131.04L139.54 131.16L139.76 131.24L139.98 131.33L140.2 131.41L140.42 131.5L140.63 131.59L140.84 131.68L141.06 131.77L141.27 131.86L141.48 131.95L141.69 132.05L141.9 132.14L142.11 132.24L142.31 132.33L142.52 132.43L142.72 132.53L142.93 132.63L143.13 132.73L143.33 132.83L143.53 132.94L143.73 133.04L143.93 133.15L144.13 133.26L144.32 133.36L144.52 133.47L144.71 133.58L144.91 133.7L145.1 133.81L145.29 133.92L145.48 134.04L145.67 134.15L145.86 134.27L146.04 134.39L146.23 134.51L146.41 134.63L146.6 134.75L146.78 134.87L146.96 134.99L147.14 135.12L147.32 135.25L147.5 135.37L147.68 135.5L147.86 135.63L148.03 135.76L148.21 135.89L148.39 136.02L148.56 136.16L148.74 136.29L148.91 136.43L149.08 136.57L149.26 136.71L149.43 136.85L149.6 136.99L149.77 137.13L149.94 137.28L150.11 137.42L150.28 137.57L150.45 137.72L150.61 137.87L150.78 138.02L150.95 138.17L151.11 138.32L151.28 138.48L151.44 138.63L151.61 138.79L151.77 138.95L151.93 139.11L152.1 139.27L152.26 139.43L152.42 139.59L152.58 139.76L152.74 139.92L152.9 140.09L153.06 140.26L153.22 140.43L153.37 140.6L153.53 140.77L153.69 140.94L153.84 141.12L154 141.29L154.15 141.47L154.3 141.65L154.46 141.83L154.61 142.01L154.76 142.19L154.92 142.38L155.07 142.56L155.22 142.75L155.37 142.93L155.52 143.12L155.67 143.31L155.82 143.51L155.97 143.7L156.12 143.89L156.27 144.09L156.42 144.29L156.57 144.49L156.71 144.68L156.86 144.89L157.01 145.09L157.15 145.29L157.3 145.5L157.44 145.7L157.59 145.91L157.73 146.12L157.88 146.33L158.02 146.54L158.16 146.75L158.31 146.97L158.45 147.18L158.59 147.4L158.73 147.62L158.87 147.84L159.01 148.06L159.15 148.28L159.29 148.51L159.43 148.73L159.57 148.96L159.71 149.18L159.85 149.41L159.98 149.64L160.12 149.88L160.26 150.11L160.39 150.34L160.53 150.58L160.67 150.82L160.8 151.06L160.94 151.3L161.08 151.54L161.21 151.79L161.35 152.03L161.49 152.28L161.62 152.53L161.76 152.78L161.9 153.03L162.04 153.28L162.17 153.54L162.31 153.79L162.45 154.05L162.58 154.31L162.72 154.57L162.86 154.83L162.99 155.09L163.13 155.36L163.27 155.62L163.41 155.89L163.54 156.16L163.68 156.43L163.82 156.7L163.96 156.97L164.09 157.25L164.23 157.52L164.37 157.8L164.5 158.08L164.64 158.36L164.78 158.64L164.92 158.92L165.05 159.21L165.19 159.49L165.33 159.78L165.46 160.07L181.37 193.85L181.47 194.06L181.56 194.27L181.65 194.47L181.74 194.67L181.83 194.87L181.92 195.07L182 195.26L182.09 195.45L182.17 195.64L182.25 195.82L182.33 196L182.4 196.18L182.48 196.35L182.55 196.52L182.62 196.69L182.69 196.85L182.76 197.01L182.82 197.17L182.89 197.32L182.95 197.47L183.01 197.62L183.07 197.77L183.13 197.91L183.18 198.05L183.24 198.18L183.29 198.31L183.34 198.44L183.39 198.57L183.43 198.69L183.48 198.81L183.52 198.93L183.56 199.04L183.6 199.15L183.64 199.25L183.68 199.36L183.71 199.46L183.75 199.55L183.78 199.65L183.81 199.74L183.84 199.83L183.86 199.91L183.89 200L183.92 200.08L183.94 200.16L183.97 200.24L183.99 200.33L184.01 200.41L184.03 200.48L184.06 200.56L184.08 200.64L184.1 200.71L184.12 200.79L184.14 200.86L184.15 200.94L184.17 201.01L184.19 201.08L184.2 201.15L184.22 201.22L184.23 201.29L184.25 201.36L184.26 201.42L184.27 201.49L184.29 201.55L184.3 201.61L184.31 201.68L184.32 201.74L184.33 201.8L184.34 201.86L184.34 201.92L184.35 201.98L184.36 202.03L184.36 202.09L184.37 202.14L184.37 202.2L184.38 202.25L184.38 202.3L184.38 202.35L184.38 202.4L184.38 202.45L184.38 202.5L184.38 202.54L184.38 202.59L184.38 202.64L184.38 202.68L184.38 202.73L184.38 202.78L184.37 202.82L184.37 202.87L184.36 202.91L184.36 202.96L184.35 203L184.35 203.04L184.34 203.09L184.33 203.13L184.33 203.17L184.32 203.22L184.31 203.26L184.3 203.3L184.29 203.34L184.28 203.39L184.27 203.43L184.26 203.47L184.25 203.51L184.24 203.55L184.23 203.59L184.21 203.63L184.2 203.67L184.19 203.71L184.17 203.75L184.16 203.79L184.14 203.82L184.13 203.86L184.11 203.9L184.09 203.94L184.08 203.98L184.06 204.01L184.04 204.05L184.02 204.09L184 204.12L183.98 204.16L183.96 204.19L183.94 204.23L183.91 204.26L183.89 204.3L183.86 204.33L183.83 204.37L183.8 204.4L183.77 204.43L183.74 204.47L183.71 204.5L183.68 204.53L183.64 204.56L183.61 204.59L183.57 204.63L183.53 204.66L183.49 204.69L183.45 204.72L183.41 204.75L183.37 204.78L183.32 204.81L183.28 204.84L183.23 204.87L183.18 204.89L183.13 204.92L183.08 204.95L183.03 204.98L182.98 205.01L182.93 205.03L182.87 205.06L182.82 205.09L182.76 205.11L182.7 205.14L182.64 205.17L182.58 205.19L182.52 205.22L182.46 205.24L182.39 205.27L182.33 205.29L182.26 205.32L182.19 205.34L182.13 205.36L182.06 205.39L181.98 205.41L181.91 205.43L181.84 205.45L181.76 205.48L181.68 205.5L181.6 205.52L181.52 205.54L181.44 205.56L181.36 205.58L181.28 205.6L181.19 205.62L181.1 205.64L181.02 205.66L180.93 205.68L180.83 205.7L180.74 205.72L180.65 205.74L180.55 205.75L180.46 205.77L180.36 205.79L180.26 205.81L180.16 205.82L180.05 205.84L179.95 205.86L179.85 205.87L179.74 205.89L179.63 205.9L179.52 205.92L179.41 205.93L179.3 205.95L179.18 205.96L179.07 205.97L178.95 205.99L178.84 206L178.72 206.01L178.6 206.03L178.47 206.04L178.35 206.05L178.23 206.06L178.1 206.07L177.97 206.08L177.84 206.09L177.71 206.1L177.58 206.11L177.44 206.12L177.3 206.13L177.16 206.14L177.02 206.15L176.87 206.16L176.72 206.17L176.58 206.18L176.42 206.19L176.27 206.19L176.12 206.2L175.96 206.21L175.8 206.21L175.64 206.22L175.47 206.23L175.31 206.23L175.14 206.24L174.97 206.24L174.8 206.25L174.62 206.25L174.45 206.26L174.27 206.26L174.09 206.26L173.91 206.27L173.72 206.27L173.54 206.27L173.35 206.28L173.16 206.28L172.96 206.28L172.77 206.28L172.57 206.28L172.37 206.28L172.17 206.28L171.97 206.29L171.77 206.29L171.59 206.29L171.41 206.28L171.24 206.28L171.07 206.28L170.9 206.28L170.73 206.28L170.56 206.28L170.4 206.28L170.23 206.27L170.07 206.27L169.91 206.27L169.75 206.26L169.59 206.26L169.44 206.26L169.28 206.25L169.13 206.25L168.98 206.24L168.83 206.24L168.68 206.23L168.53 206.23L168.39 206.22L168.25 206.21L168.1 206.21L167.96 206.2L167.83 206.19L167.69 206.19L167.55 206.18L167.42 206.17L167.29 206.16L167.16 206.15L167.03 206.14L166.9 206.13L166.78 206.12L166.65 206.11L166.53 206.1L166.41 206.09L166.29 206.08L166.18 206.07L166.06 206.06L165.95 206.05L165.83 206.04L165.72 206.03L165.61 206.01L165.5 206L165.39 205.99L165.29 205.97L165.18 205.96L165.08 205.94L164.97 205.93L164.87 205.91L164.77 205.9L164.67 205.88L164.57 205.87L164.47 205.85L164.37 205.83L164.28 205.81L164.18 205.8L164.09 205.78L164 205.76L163.91 205.74L163.82 205.72L163.73 205.7L163.64 205.68L163.55 205.66L163.47 205.64L163.38 205.62L163.3 205.6L163.22 205.57L163.13 205.55L163.05 205.53L162.97 205.51L162.9 205.48L162.82 205.46L162.74 205.44L162.67 205.41L162.59 205.39L162.52 205.36L162.45 205.34L162.38 205.31L162.31 205.28L162.24 205.26L162.17 205.23L162.11 205.2L162.04 205.17L161.98 205.14L161.91 205.11L161.85 205.08L161.79 205.05L161.72 205.02L161.66 204.99L161.6 204.96L161.54 204.92L161.48 204.89L161.43 204.86L161.37 204.82L161.31 204.79L161.26 204.75L161.2 204.72L161.15 204.68L161.09 204.64L161.04 204.61L160.99 204.57L160.94 204.53L160.89 204.49L160.84 204.45L160.79 204.41L160.74 204.37L160.69 204.33L160.65 204.29L160.6 204.25L160.56 204.2L160.51 204.16L160.47 204.12L160.43 204.07L160.38 204.03L160.34 203.98L160.3 203.94L160.26 203.89L160.22 203.84L160.18 203.8L160.15 203.75L160.11 203.7L160.07 203.65L160.04 203.6L160 203.55L159.96 203.5L159.93 203.45L159.89 203.4L159.86 203.35L159.82 203.3L159.79 203.24L159.75 203.19L159.72 203.13L159.68 203.08L159.65 203.02L159.61 202.97L159.58 202.91L159.55 202.85L159.51 202.79L159.48 202.73L159.45 202.67L159.42 202.61L159.39 202.55L159.35 202.49L159.32 202.43L159.29 202.37L159.26 202.3L159.23 202.24L159.2 202.18L159.17 202.11L159.14 202.05L159.11 201.98L159.08 201.91L159.05 201.85L159.02 201.78L158.99 201.71L158.97 201.64L158.94 201.57L158.91 201.5L158.88 201.43L142.57 165.29L142.42 164.98L142.28 164.67L142.13 164.37L141.99 164.06L141.84 163.76L141.7 163.46L141.55 163.16L141.41 162.86L141.26 162.57L141.11 162.27L140.97 161.97L140.82 161.68L140.67 161.39L140.53 161.1L140.38 160.81L140.23 160.52L140.08 160.23L139.93 159.95L139.78 159.66L139.64 159.38L139.49 159.1L139.34 158.82L139.19 158.54L139.04 158.26L138.89 157.98L138.74 157.7L138.58 157.43L138.43 157.16L138.28 156.88L138.13 156.61L137.98 156.34L137.83 156.08L137.67 155.81L137.52 155.54L137.37 155.28L137.22 155.01L137.06 154.75L136.91 154.49L136.75 154.23L136.6 153.97L136.45 153.72L136.29 153.46L136.13 153.21L135.97 152.96L135.81 152.71L135.65 152.46L135.49 152.21L135.32 151.97L135.15 151.73L134.99 151.49L134.82 151.25L134.64 151.01L134.47 150.77L134.3 150.54L134.12 150.31L133.95 150.08L133.77 149.85L133.59 149.62L133.41 149.4L133.22 149.18L133.04 148.95L132.85 148.74L132.67 148.52L132.48 148.3L132.29 148.09L132.1 147.88L131.9 147.66L131.71 147.46L131.51 147.25L131.32 147.04L131.12 146.84L130.92 146.64L130.72 146.44L130.51 146.24L130.31 146.05L130.1 145.85L129.9 145.66L129.69 145.47L129.48 145.28L129.27 145.09L129.05 144.91L128.84 144.72L128.62 144.54L128.4 144.36L128.18 144.18L127.96 144.01L127.73 143.83L127.51 143.66L127.28 143.49L127.05 143.33L126.82 143.16L126.58 143L126.35 142.84L126.11 142.68L125.87 142.52L125.63 142.37L125.38 142.21L125.14 142.06L124.89 141.91L124.64 141.77L124.39 141.62L124.13 141.48L123.88 141.34L123.62 141.2L123.36 141.07L123.1 140.93L122.84 140.8L122.58 140.67L122.31 140.54L122.04 140.42L121.77 140.29L121.5 140.17L121.23 140.05L120.95 139.94L120.67 139.82L120.39 139.71L120.11 139.6L119.83 139.49L119.54 139.38L119.26 139.27L118.97 139.17L118.67 139.07L118.38 138.98L118.08 138.88L117.78 138.79L117.47 138.7L117.17 138.61L116.86 138.53L116.54 138.45L116.23 138.37L115.91 138.29L115.59 138.22L115.26 138.15L114.93 138.08L114.6 138.02L114.27 137.95L113.93 137.89L113.6 137.83L113.25 137.78L112.91 137.72L112.56 137.67L112.21 137.63L111.86 137.58L111.5 137.54L111.14 137.5L110.78 137.46L110.41 137.43L110.04 137.39L109.67 137.36L109.3 137.34L108.92 137.31L108.54 137.29L108.16 137.27L107.77 137.25L107.39 137.24L106.99 137.23L106.6 137.22L106.2 137.21L105.8 137.21L105.4 137.21L89.64 137.21L89.64 202.5L89.64 202.54L89.64 202.59L89.64 202.64L89.63 202.68L89.63 202.73L89.63 202.78L89.62 202.82L89.61 202.87L89.61 202.91L89.6 202.96L89.59 203L89.58 203.04L89.57 203.09L89.56 203.13L89.55 203.17L89.54 203.22L89.53 203.26L89.51 203.3L89.5 203.34L89.48 203.39L89.47 203.43L89.45 203.47L89.43 203.51L89.41 203.55L89.39 203.59L89.37 203.63L89.35 203.67L89.33 203.71L89.31 203.75L89.29 203.79L89.26 203.82L89.24 203.86L89.22 203.9L89.19 203.94L89.16 203.98L89.14 204.01L89.11 204.05L89.08 204.09L89.05 204.12L89.02 204.16L88.99 204.19L88.96 204.23L88.92 204.26L88.89 204.3L88.85 204.33L88.82 204.36L88.78 204.4L88.74 204.43L88.71 204.46L88.67 204.49L88.63 204.53L88.59 204.56L88.54 204.59L88.5 204.62L88.46 204.65L88.41 204.68L88.37 204.71L88.32 204.74L88.28 204.77L88.23 204.79L88.18 204.82L88.13 204.85L88.08 204.88L88.03 204.9L87.98 204.93L87.92 204.96L87.87 204.98L87.82 205.01L87.76 205.03L87.71 205.06L87.65 205.08L87.59 205.1L87.53 205.13L87.47 205.15L87.41 205.17L87.35 205.2L87.29 205.22L87.23 205.24L87.16 205.26L87.1 205.28L87.03 205.3L86.97 205.32L86.9 205.35L86.83 205.37L86.76 205.39L86.68 205.4L86.61 205.42L86.54 205.44L86.46 205.46L86.38 205.48L86.31 205.5L86.23 205.52L86.15 205.54L86.07 205.56L85.98 205.58L85.9 205.6L85.81 205.61L85.73 205.63L85.64 205.65L85.55 205.67L85.46 205.69L85.37 205.7L85.28 205.72L85.19 205.74L85.09 205.76L85 205.77L84.9 205.79L84.8 205.81L84.7 205.82L84.6 205.84L84.5 205.86L84.4 205.87L84.29 205.89L84.19 205.9L84.08 205.92L83.97 205.93L83.86 205.95L83.75 205.96L83.64 205.98L83.53 205.99L83.41 206.01L83.3 206.02L83.18 206.04L83.06 206.05L82.94 206.06L82.82 206.07L82.7 206.09L82.58 206.1L82.45 206.11L82.32 206.12L82.2 206.13L82.07 206.14L81.93 206.15L81.8 206.16L81.67 206.17L81.53 206.18L81.39 206.19L81.26 206.2L81.12 206.2L80.97 206.21L80.83 206.22L80.69 206.23L80.54 206.23L80.39 206.24L80.25 206.24L80.1 206.25L79.94 206.25L79.79 206.26L79.64 206.26L79.48 206.27L79.32 206.27L79.16 206.27L79 206.28L78.84 206.28L78.68 206.28L78.52 206.28L78.35 206.28L78.18 206.28L78.01 206.29L77.84 206.29L77.67 206.29L77.5 206.28L77.33 206.28L77.17 206.28L77 206.28L76.84 206.28L76.68 206.28L76.51 206.27L76.36 206.27L76.2 206.27L76.04 206.26L75.89 206.26L75.73 206.25L75.58 206.25L75.43 206.24L75.28 206.24L75.14 206.23L74.99 206.23L74.84 206.22L74.7 206.21L74.56 206.2L74.42 206.2L74.28 206.19L74.14 206.18L74.01 206.17L73.87 206.16L73.74 206.15L73.61 206.14L73.48 206.13L73.35 206.12L73.23 206.11L73.1 206.1L72.98 206.09L72.85 206.07L72.73 206.06L72.61 206.05L72.49 206.04L72.38 206.02L72.26 206.01L72.15 205.99L72.03 205.98L71.92 205.96L71.81 205.95L71.7 205.93L71.6 205.92L71.49 205.9L71.38 205.89L71.28 205.87L71.17 205.86L71.07 205.84L70.97 205.82L70.87 205.81L70.77 205.79L70.67 205.77L70.58 205.76L70.48 205.74L70.39 205.72L70.29 205.7L70.2 205.69L70.11 205.67L70.02 205.65L69.93 205.63L69.84 205.61L69.75 205.6L69.67 205.58L69.58 205.56L69.5 205.54L69.42 205.52L69.34 205.5L69.26 205.48L69.18 205.46L69.1 205.44L69.02 205.42L68.95 205.4L68.87 205.39L68.8 205.37L68.73 205.35L68.66 205.32L68.59 205.3L68.52 205.28L68.45 205.26L68.38 205.24L68.32 205.22L68.25 205.2L68.19 205.17L68.12 205.15L68.06 205.13L68 205.1L67.94 205.08L67.88 205.06L67.83 205.03L67.77 205.01L67.71 204.98L67.66 204.96L67.61 204.93L67.55 204.9L67.5 204.88L67.45 204.85L67.4 204.82L67.35 204.79L67.31 204.77L67.26 204.74L67.21 204.71L67.17 204.68L67.13 204.65L67.08 204.62L67.04 204.59L67 204.56L66.96 204.53L66.92 204.49L66.89 204.46L66.85 204.43L66.81 204.4L66.78 204.36L66.75 204.33L66.71 204.3L66.68 204.26L66.65 204.23L66.62 204.19L66.59 204.16L66.57 204.12L66.54 204.09L66.52 204.05L66.49 204.01L66.47 203.98L66.44 203.94L66.42 203.9L66.4 203.86L66.38 203.82L66.36 203.79L66.34 203.75L66.32 203.71L66.3 203.67L66.28 203.63L66.26 203.59L66.25 203.55L66.23 203.51L66.21 203.47L66.2 203.43L66.19 203.39L66.17 203.34L66.16 203.3L66.15 203.26L66.14 203.22L66.12 203.17L66.11 203.13L66.11 203.09L66.1 203.04L66.09 203L66.08 202.96L66.07 202.91L66.07 202.87L66.06 202.82L66.06 202.78L66.05 202.73L66.05 202.68L66.05 202.64L66.05 202.59L66.05 202.54L66.05 202.5L66.05 60.54L66.05 60.31L66.05 60.09L66.06 59.86L66.07 59.65L66.09 59.43L66.11 59.22L66.13 59.01L66.16 58.8L66.19 58.6L66.22 58.41L66.26 58.21L66.3 58.02L66.34 57.83L66.39 57.65L66.44 57.47L66.5 57.29L66.56 57.12L66.62 56.95L66.68 56.78L66.75 56.62L66.82 56.46L66.9 56.3L66.98 56.15L67.06 56L67.15 55.85L67.24 55.71L67.33 55.57L67.43 55.44L67.53 55.3L67.63 55.18L67.74 55.05L67.85 54.93L67.96 54.81L68.08 54.7L68.2 54.59L68.32 54.48L68.45 54.37L68.58 54.27L68.72 54.18L68.85 54.08L69 53.99L69.14 53.9L69.28 53.82L69.42 53.73L69.56 53.65L69.71 53.57L69.85 53.5L69.99 53.42L70.14 53.35L70.28 53.28L70.43 53.21L70.57 53.15L70.72 53.09L70.86 53.03L71.01 52.97L71.16 52.91L71.31 52.86L71.45 52.81L71.6 52.76L71.75 52.71L71.9 52.66L72.05 52.62L72.2 52.58L72.35 52.54L72.5 52.51L72.65 52.48L72.81 52.44L72.96 52.42L73.11 52.39L73.26 52.37L73.42 52.34L73.57 52.32L73.73 52.31L73.88 52.29L74.04 52.28L74.19 52.27L74.35 52.26L74.5 52.26L74.66 52.25L74.82 52.25L112.54 52.25L112.87 52.25L113.2 52.25ZM89.64 120.73L112.67 120.73L113.15 120.73L113.62 120.73L114.09 120.72L114.56 120.71L115.02 120.7L115.48 120.69L115.94 120.67L116.39 120.65L116.84 120.63L117.28 120.6L117.73 120.58L118.17 120.55L118.6 120.52L119.04 120.48L119.47 120.44L119.89 120.4L120.31 120.36L120.73 120.32L121.15 120.27L121.56 120.22L121.97 120.17L122.38 120.11L122.78 120.05L123.18 119.99L123.58 119.93L123.97 119.86L124.36 119.8L124.75 119.73L125.13 119.65L125.51 119.58L125.89 119.5L126.26 119.42L126.63 119.33L127 119.25L127.36 119.16L127.72 119.07L128.08 118.98L128.43 118.88L128.78 118.78L129.13 118.68L129.47 118.58L129.81 118.47L130.15 118.36L130.49 118.25L130.82 118.14L131.15 118.03L131.47 117.91L131.79 117.8L132.11 117.68L132.43 117.56L132.75 117.43L133.06 117.31L133.36 117.18L133.67 117.05L133.97 116.92L134.27 116.79L134.57 116.65L134.86 116.51L135.15 116.37L135.44 116.23L135.72 116.09L136 115.94L136.28 115.79L136.55 115.64L136.83 115.49L137.1 115.34L137.36 115.18L137.63 115.02L137.89 114.86L138.14 114.7L138.4 114.54L138.65 114.37L138.9 114.2L139.14 114.03L139.39 113.86L139.63 113.69L139.86 113.51L140.1 113.33L140.33 113.15L140.56 112.97L140.78 112.79L141 112.6L141.22 112.42L141.43 112.23L141.65 112.04L141.85 111.85L142.06 111.66L142.26 111.46L142.46 111.26L142.66 111.07L142.85 110.87L143.04 110.66L143.23 110.46L143.41 110.26L143.59 110.05L143.77 109.84L143.94 109.63L144.11 109.42L144.28 109.21L144.44 108.99L144.6 108.78L144.76 108.56L144.91 108.34L145.07 108.12L145.21 107.9L145.36 107.67L145.5 107.45L145.64 107.22L145.78 106.99L145.91 106.76L146.04 106.52L146.16 106.29L146.29 106.05L146.41 105.82L146.52 105.58L146.64 105.34L146.75 105.09L146.85 104.85L146.96 104.61L147.06 104.36L147.16 104.11L147.26 103.87L147.35 103.62L147.44 103.37L147.53 103.12L147.61 102.86L147.7 102.61L147.78 102.36L147.85 102.1L147.93 101.84L148 101.59L148.07 101.33L148.13 101.07L148.2 100.81L148.26 100.54L148.31 100.28L148.37 100.02L148.42 99.75L148.47 99.48L148.51 99.22L148.56 98.95L148.6 98.68L148.64 98.41L148.67 98.13L148.7 97.86L148.73 97.59L148.76 97.31L148.78 97.03L148.8 96.76L148.82 96.48L148.84 96.2L148.85 95.92L148.86 95.64L148.87 95.35L148.87 95.07L148.87 94.78L148.87 94.32L148.86 93.87L148.84 93.41L148.82 92.97L148.79 92.52L148.76 92.08L148.72 91.64L148.68 91.21L148.62 90.78L148.56 90.35L148.5 89.93L148.43 89.51L148.35 89.09L148.27 88.68L148.18 88.27L148.09 87.86L147.99 87.46L147.88 87.07L147.77 86.67L147.65 86.28L147.52 85.89L147.39 85.51L147.25 85.13L147.11 84.76L146.96 84.38L146.8 84.02L146.64 83.65L146.47 83.29L146.3 82.93L146.11 82.58L145.93 82.23L145.73 81.88L145.54 81.54L145.33 81.2L145.12 80.86L144.9 80.53L144.68 80.2L144.45 79.88L144.21 79.56L143.97 79.24L143.72 78.93L143.46 78.62L143.19 78.32L142.91 78.02L142.63 77.73L142.34 77.44L142.03 77.16L141.72 76.88L141.41 76.6L141.08 76.33L140.75 76.06L140.4 75.8L140.05 75.55L139.69 75.29L139.33 75.05L138.95 74.8L138.57 74.56L138.17 74.33L137.77 74.1L137.36 73.88L136.95 73.66L136.52 73.44L136.09 73.23L135.64 73.02L135.19 72.82L134.73 72.63L134.27 72.43L133.79 72.24L133.31 72.06L132.82 71.88L132.32 71.71L131.81 71.54L131.29 71.37L130.77 71.21L130.23 71.06L129.69 70.91L129.14 70.76L128.58 70.62L128.4 70.58L128.23 70.53L128.05 70.49L127.87 70.45L127.69 70.41L127.5 70.37L127.32 70.33L127.13 70.3L126.95 70.26L126.76 70.22L126.57 70.19L126.38 70.15L126.19 70.12L126 70.08L125.81 70.05L125.61 70.02L125.42 69.98L125.22 69.95L125.03 69.92L124.83 69.89L124.63 69.86L124.43 69.83L124.22 69.8L124.02 69.77L123.82 69.75L123.61 69.72L123.4 69.69L123.2 69.67L122.99 69.64L122.78 69.62L122.56 69.6L122.35 69.57L122.14 69.55L121.92 69.53L121.71 69.51L121.49 69.49L121.27 69.47L121.05 69.45L120.83 69.43L120.6 69.42L120.38 69.4L120.15 69.38L119.91 69.36L119.68 69.35L119.44 69.33L119.19 69.32L118.94 69.3L118.69 69.29L118.44 69.27L118.18 69.26L117.92 69.25L117.65 69.23L117.38 69.22L117.11 69.21L116.83 69.2L116.56 69.19L116.27 69.18L115.99 69.17L115.7 69.16L115.4 69.15L115.1 69.14L114.8 69.13L114.5 69.13L114.19 69.12L113.88 69.11L113.57 69.11L113.25 69.1L112.93 69.1L112.6 69.09L112.27 69.09L111.94 69.09L111.6 69.08L111.26 69.08L110.92 69.08L110.57 69.08L110.22 69.07L109.87 69.07L109.51 69.07L89.64 69.07L89.64 120.73Z" id="ba49ENT1D"></path><path d="M265.48 162.17L265.54 162.17L265.6 162.17L265.66 162.17L265.72 162.17L265.78 162.17L265.84 162.17L265.9 162.17L265.95 162.17L266.01 162.17L266.07 162.17L266.12 162.17L266.18 162.17L266.23 162.17L266.28 162.17L266.34 162.17L266.39 162.18L266.44 162.18L266.49 162.18L266.54 162.18L266.59 162.18L266.64 162.18L266.69 162.18L266.73 162.18L266.78 162.19L266.83 162.19L266.87 162.19L266.92 162.19L266.96 162.19L267.01 162.19L267.05 162.2L267.09 162.2L267.14 162.2L267.18 162.2L267.22 162.2L267.26 162.2L267.3 162.21L267.34 162.21L267.37 162.21L267.41 162.21L267.45 162.22L267.49 162.22L267.52 162.22L267.56 162.23L267.6 162.23L267.63 162.23L267.67 162.24L267.7 162.24L267.74 162.24L267.77 162.25L267.81 162.25L267.84 162.26L267.87 162.26L267.91 162.27L267.94 162.27L267.97 162.28L268 162.28L268.03 162.29L268.06 162.29L268.09 162.3L268.12 162.3L268.15 162.31L268.18 162.32L268.21 162.32L268.24 162.33L268.26 162.34L268.29 162.34L268.32 162.35L268.34 162.36L268.37 162.37L268.4 162.37L268.42 162.38L268.45 162.39L268.47 162.4L268.49 162.4L268.52 162.41L268.54 162.42L268.56 162.43L268.59 162.44L268.61 162.45L268.63 162.46L268.65 162.47L268.67 162.48L268.69 162.49L268.72 162.49L268.74 162.5L268.76 162.51L268.78 162.52L268.8 162.53L268.81 162.54L268.83 162.55L268.85 162.56L268.87 162.57L268.89 162.58L268.9 162.59L268.92 162.6L268.94 162.61L268.95 162.62L268.97 162.63L268.99 162.64L269 162.65L269.02 162.66L269.03 162.68L269.05 162.69L269.06 162.7L269.07 162.71L269.09 162.72L269.1 162.73L269.11 162.74L269.12 162.75L269.14 162.76L269.15 162.77L269.16 162.78L269.17 162.79L269.18 162.8L269.19 162.82L269.2 162.83L269.21 162.84L269.23 162.86L269.24 162.87L269.25 162.88L269.25 162.9L269.26 162.91L269.27 162.92L269.28 162.93L269.29 162.95L269.29 162.96L269.3 162.97L269.31 162.99L269.32 163L269.32 163.02L269.33 163.03L269.33 163.05L269.34 163.06L269.35 163.08L269.35 163.09L269.36 163.11L269.36 163.12L269.37 163.14L269.37 163.16L269.38 163.17L269.38 163.19L269.38 163.21L269.39 163.22L269.39 163.24L269.39 163.26L269.4 163.28L269.4 163.29L269.4 163.31L269.4 163.33L269.4 163.35L269.41 163.37L269.41 163.39L269.41 163.41L269.41 163.43L269.41 163.45L269.41 163.47L269.41 163.49L269.41 163.5L269.41 163.52L269.41 163.53L269.41 163.55L269.41 163.57L269.41 163.58L269.41 163.6L269.41 163.62L269.41 163.64L269.4 163.65L269.4 163.67L269.4 163.69L269.4 163.71L269.4 163.73L269.4 163.74L269.39 163.76L269.39 163.78L269.39 163.8L269.39 163.82L269.38 163.84L269.38 163.86L269.38 163.88L269.38 163.9L269.37 163.92L269.37 163.94L269.37 163.96L269.36 163.98L269.36 164L269.36 164.02L269.35 164.04L269.35 164.06L269.34 164.08L269.34 164.11L269.33 164.13L269.33 164.15L269.33 164.17L269.32 164.19L269.32 164.21L269.31 164.24L269.31 164.26L269.3 164.28L269.29 164.31L269.29 164.33L269.28 164.35L269.28 164.38L269.27 164.4L269.26 164.43L269.26 164.45L269.25 164.48L269.24 164.5L269.23 164.53L269.23 164.55L269.22 164.58L269.21 164.61L269.2 164.63L269.19 164.66L269.19 164.69L269.18 164.72L269.17 164.74L269.16 164.77L269.15 164.8L269.14 164.83L269.13 164.86L269.12 164.89L269.11 164.92L269.1 164.95L269.09 164.98L269.08 165.01L269.07 165.04L269.06 165.07L269.05 165.1L269.03 165.13L269.02 165.17L269.01 165.2L269 165.23L268.99 165.26L268.97 165.3L268.96 165.33L268.95 165.36L268.94 165.4L254.98 204.31L254.97 204.33L254.96 204.36L254.96 204.38L254.95 204.4L254.94 204.43L254.93 204.45L254.92 204.48L254.91 204.5L254.9 204.52L254.89 204.55L254.88 204.57L254.87 204.59L254.86 204.61L254.85 204.64L254.83 204.66L254.82 204.68L254.81 204.7L254.8 204.72L254.79 204.74L254.77 204.76L254.76 204.78L254.75 204.8L254.73 204.82L254.72 204.84L254.71 204.86L254.69 204.88L254.68 204.9L254.66 204.92L254.65 204.94L254.63 204.96L254.62 204.97L254.6 204.99L254.59 205.01L254.57 205.03L254.56 205.04L254.54 205.06L254.52 205.08L254.51 205.09L254.49 205.11L254.47 205.13L254.45 205.14L254.44 205.16L254.42 205.17L254.4 205.19L254.38 205.2L254.36 205.22L254.35 205.23L254.33 205.25L254.31 205.26L254.29 205.28L254.27 205.29L254.24 205.31L254.22 205.32L254.2 205.33L254.18 205.35L254.16 205.36L254.14 205.37L254.11 205.39L254.09 205.4L254.07 205.41L254.04 205.42L254.02 205.44L253.99 205.45L253.97 205.46L253.94 205.47L253.92 205.48L253.89 205.5L253.87 205.51L253.84 205.52L253.81 205.53L253.78 205.54L253.76 205.55L253.73 205.56L253.7 205.57L253.67 205.58L253.64 205.59L253.61 205.6L253.58 205.61L253.55 205.62L253.52 205.63L253.49 205.64L253.46 205.64L253.43 205.65L253.4 205.66L253.37 205.67L253.33 205.68L253.3 205.68L253.27 205.69L253.23 205.7L253.2 205.71L253.16 205.72L253.12 205.72L253.09 205.73L253.05 205.74L253.01 205.74L252.97 205.75L252.93 205.76L252.89 205.76L252.85 205.77L252.81 205.78L252.77 205.78L252.73 205.79L252.68 205.79L252.64 205.8L252.6 205.8L252.55 205.81L252.51 205.82L252.46 205.82L252.42 205.83L252.37 205.83L252.32 205.83L252.27 205.84L252.23 205.84L252.18 205.85L252.13 205.85L252.08 205.86L252.03 205.86L251.98 205.86L251.93 205.87L251.87 205.87L251.82 205.87L251.77 205.88L251.71 205.88L251.66 205.88L251.6 205.89L251.54 205.89L251.49 205.89L251.43 205.9L251.37 205.9L251.31 205.9L251.25 205.9L251.19 205.91L251.13 205.91L251.07 205.91L251.01 205.91L250.94 205.92L250.88 205.92L250.82 205.92L250.75 205.92L250.69 205.93L250.62 205.93L250.55 205.93L250.49 205.93L250.42 205.93L250.35 205.93L250.28 205.94L250.21 205.94L250.14 205.94L250.07 205.94L249.99 205.94L249.92 205.94L249.85 205.94L249.78 205.94L249.7 205.94L249.63 205.94L249.55 205.94L249.47 205.94L249.4 205.94L249.32 205.94L249.24 205.94L249.16 205.94L249.08 205.94L249 205.94L248.92 205.94L248.84 205.94L248.76 205.94L248.68 205.94L248.61 205.94L248.53 205.94L248.46 205.94L248.38 205.94L248.31 205.94L248.23 205.93L248.16 205.93L248.09 205.93L248.02 205.93L247.95 205.93L247.88 205.93L247.81 205.92L247.74 205.92L247.67 205.92L247.6 205.92L247.53 205.91L247.47 205.91L247.4 205.91L247.34 205.9L247.27 205.9L247.21 205.9L247.15 205.9L247.09 205.89L247.02 205.89L246.96 205.89L246.9 205.88L246.84 205.88L246.78 205.87L246.73 205.87L246.67 205.87L246.61 205.86L246.56 205.86L246.5 205.85L246.45 205.85L246.39 205.84L246.34 205.84L246.28 205.83L246.23 205.83L246.18 205.82L246.13 205.82L246.08 205.81L246.03 205.81L245.98 205.8L245.93 205.8L245.88 205.79L245.83 205.78L245.78 205.78L245.73 205.77L245.69 205.77L245.64 205.76L245.59 205.75L245.55 205.75L245.5 205.74L245.46 205.73L245.42 205.72L245.37 205.72L245.33 205.71L245.29 205.7L245.25 205.7L245.21 205.69L245.17 205.68L245.13 205.67L245.09 205.66L245.05 205.66L245.01 205.65L244.97 205.64L244.94 205.63L244.9 205.62L244.87 205.62L244.83 205.61L244.8 205.6L244.76 205.59L244.73 205.58L244.7 205.57L244.66 205.56L244.63 205.55L244.6 205.54L244.57 205.53L244.54 205.52L244.51 205.51L244.48 205.5L244.45 205.49L244.42 205.48L244.39 205.47L244.37 205.46L244.34 205.45L244.31 205.44L244.29 205.43L244.26 205.41L244.23 205.4L244.21 205.39L244.18 205.38L244.16 205.37L244.14 205.35L244.11 205.34L244.09 205.33L244.07 205.31L244.04 205.3L244.02 205.29L244 205.27L243.98 205.26L243.96 205.25L243.94 205.23L243.92 205.22L243.9 205.2L243.88 205.19L243.86 205.17L243.85 205.16L243.83 205.14L243.81 205.13L243.79 205.11L243.78 205.1L243.76 205.08L243.75 205.06L243.73 205.05L243.72 205.03L243.7 205.02L243.69 205L243.67 204.98L243.66 204.97L243.64 204.95L243.63 204.93L243.61 204.91L243.6 204.9L243.59 204.88L243.57 204.86L243.56 204.84L243.55 204.82L243.53 204.81L243.52 204.79L243.51 204.77L243.5 204.75L243.48 204.73L243.47 204.71L243.46 204.69L243.45 204.67L243.44 204.65L243.43 204.63L243.42 204.61L243.41 204.59L243.4 204.57L243.39 204.55L243.38 204.53L243.37 204.5L243.36 204.48L243.35 204.46L243.34 204.44L243.33 204.42L243.32 204.4L243.31 204.37L243.3 204.35L243.3 204.33L243.29 204.31L233.33 174.59L233.23 174.18L233.12 174.59L223.91 204.31L223.9 204.33L223.89 204.36L223.88 204.38L223.87 204.4L223.87 204.43L223.86 204.45L223.85 204.48L223.84 204.5L223.83 204.52L223.82 204.55L223.81 204.57L223.8 204.59L223.78 204.61L223.77 204.64L223.76 204.66L223.75 204.68L223.74 204.7L223.73 204.72L223.71 204.74L223.7 204.76L223.69 204.78L223.68 204.8L223.66 204.82L223.65 204.84L223.63 204.86L223.62 204.88L223.61 204.9L223.59 204.92L223.58 204.94L223.56 204.96L223.55 204.97L223.53 204.99L223.52 205.01L223.5 205.03L223.48 205.04L223.47 205.06L223.45 205.08L223.43 205.09L223.42 205.11L223.4 205.13L223.38 205.14L223.36 205.16L223.35 205.17L223.33 205.19L223.31 205.2L223.29 205.22L223.27 205.23L223.25 205.25L223.23 205.26L223.21 205.28L223.19 205.29L223.17 205.31L223.14 205.32L223.12 205.33L223.1 205.35L223.07 205.36L223.05 205.37L223.03 205.39L223 205.4L222.98 205.41L222.95 205.42L222.92 205.44L222.9 205.45L222.87 205.46L222.84 205.47L222.81 205.48L222.79 205.5L222.76 205.51L222.73 205.52L222.7 205.53L222.67 205.54L222.64 205.55L222.61 205.56L222.58 205.57L222.54 205.58L222.51 205.59L222.48 205.6L222.45 205.61L222.41 205.62L222.38 205.63L222.35 205.64L222.31 205.64L222.28 205.65L222.24 205.66L222.2 205.67L222.17 205.68L222.13 205.68L222.09 205.69L222.05 205.7L222.01 205.71L221.97 205.72L221.93 205.72L221.89 205.73L221.85 205.74L221.81 205.74L221.77 205.75L221.73 205.76L221.68 205.76L221.64 205.77L221.59 205.78L221.55 205.78L221.5 205.79L221.46 205.79L221.41 205.8L221.37 205.8L221.32 205.81L221.27 205.82L221.22 205.82L221.17 205.83L221.13 205.83L221.08 205.83L221.03 205.84L220.98 205.84L220.92 205.85L220.87 205.85L220.82 205.86L220.77 205.86L220.72 205.86L220.66 205.87L220.61 205.87L220.55 205.87L220.5 205.88L220.44 205.88L220.39 205.88L220.33 205.89L220.27 205.89L220.22 205.89L220.16 205.9L220.1 205.9L220.04 205.9L219.98 205.9L219.92 205.91L219.86 205.91L219.79 205.91L219.73 205.91L219.67 205.92L219.6 205.92L219.54 205.92L219.47 205.92L219.41 205.93L219.34 205.93L219.27 205.93L219.21 205.93L219.14 205.93L219.07 205.93L219 205.94L218.93 205.94L218.86 205.94L218.79 205.94L218.71 205.94L218.64 205.94L218.57 205.94L218.49 205.94L218.42 205.94L218.34 205.94L218.27 205.94L218.19 205.94L218.11 205.94L218.04 205.94L217.96 205.94L217.88 205.94L217.79 205.94L217.72 205.94L217.64 205.94L217.56 205.94L217.48 205.94L217.4 205.94L217.33 205.94L217.25 205.94L217.18 205.94L217.1 205.94L217.03 205.94L216.96 205.93L216.89 205.93L216.82 205.93L216.75 205.93L216.68 205.93L216.61 205.93L216.54 205.92L216.47 205.92L216.41 205.92L216.34 205.92L216.28 205.91L216.21 205.91L216.15 205.91L216.09 205.9L216.02 205.9L215.96 205.9L215.9 205.9L215.84 205.89L215.78 205.89L215.73 205.89L215.67 205.88L215.61 205.88L215.56 205.87L215.5 205.87L215.45 205.87L215.39 205.86L215.34 205.86L215.29 205.85L215.24 205.85L215.19 205.84L215.14 205.84L215.09 205.83L215.04 205.83L214.99 205.82L214.94 205.82L214.89 205.81L214.85 205.81L214.8 205.8L214.75 205.8L214.71 205.79L214.66 205.78L214.62 205.78L214.57 205.77L214.53 205.77L214.49 205.76L214.44 205.75L214.4 205.75L214.36 205.74L214.31 205.73L214.27 205.72L214.23 205.72L214.19 205.71L214.15 205.7L214.11 205.7L214.07 205.69L214.03 205.68L214 205.67L213.96 205.66L213.92 205.66L213.88 205.65L213.85 205.64L213.81 205.63L213.77 205.62L213.74 205.62L213.7 205.61L213.67 205.6L213.64 205.59L213.6 205.58L213.57 205.57L213.54 205.56L213.51 205.55L213.48 205.54L213.45 205.53L213.41 205.52L213.39 205.51L213.36 205.5L213.33 205.49L213.3 205.48L213.27 205.47L213.24 205.46L213.21 205.45L213.19 205.44L213.16 205.43L213.13 205.41L213.11 205.4L213.08 205.39L213.06 205.38L213.03 205.37L213.01 205.35L212.99 205.34L212.96 205.33L212.94 205.31L212.92 205.3L212.9 205.29L212.88 205.27L212.85 205.26L212.83 205.25L212.81 205.23L212.79 205.22L212.78 205.2L212.76 205.19L212.74 205.17L212.72 205.16L212.7 205.14L212.69 205.13L212.67 205.11L212.65 205.1L212.64 205.08L212.62 205.06L212.61 205.05L212.59 205.03L212.58 205.02L212.56 205L212.55 204.98L212.53 204.97L212.52 204.95L212.5 204.93L212.49 204.91L212.47 204.9L212.46 204.88L212.45 204.86L212.43 204.84L212.42 204.82L212.41 204.81L212.4 204.79L212.38 204.77L212.37 204.75L212.36 204.73L212.35 204.71L212.34 204.69L212.32 204.67L212.31 204.65L212.3 204.63L212.29 204.61L212.28 204.59L212.27 204.57L212.26 204.55L212.25 204.53L212.24 204.5L212.23 204.48L212.22 204.46L212.21 204.44L212.2 204.42L212.2 204.4L212.19 204.37L212.18 204.35L212.17 204.33L212.16 204.31L198.31 165.4L198.3 165.36L198.29 165.33L198.27 165.3L198.26 165.26L198.25 165.23L198.24 165.2L198.22 165.17L198.21 165.13L198.2 165.1L198.19 165.07L198.18 165.04L198.17 165.01L198.16 164.98L198.15 164.95L198.14 164.92L198.13 164.89L198.12 164.86L198.11 164.83L198.1 164.8L198.09 164.77L198.08 164.74L198.07 164.72L198.06 164.69L198.05 164.66L198.04 164.63L198.04 164.61L198.03 164.58L198.02 164.55L198.01 164.53L198 164.5L198 164.48L197.99 164.45L197.98 164.43L197.98 164.4L197.97 164.38L197.97 164.35L197.96 164.33L197.95 164.31L197.95 164.28L197.94 164.26L197.94 164.24L197.93 164.21L197.93 164.19L197.92 164.17L197.92 164.15L197.91 164.13L197.91 164.11L197.91 164.08L197.9 164.06L197.9 164.04L197.89 164.02L197.89 164L197.89 163.98L197.88 163.96L197.88 163.94L197.88 163.92L197.87 163.9L197.87 163.88L197.87 163.86L197.86 163.84L197.86 163.82L197.86 163.8L197.86 163.78L197.86 163.76L197.85 163.74L197.85 163.73L197.85 163.71L197.85 163.69L197.85 163.67L197.85 163.65L197.84 163.64L197.84 163.62L197.84 163.6L197.84 163.58L197.84 163.57L197.84 163.55L197.84 163.53L197.84 163.52L197.84 163.5L197.84 163.49L197.84 163.47L197.84 163.45L197.84 163.43L197.84 163.41L197.84 163.39L197.84 163.37L197.85 163.35L197.85 163.33L197.85 163.31L197.85 163.29L197.85 163.27L197.86 163.26L197.86 163.24L197.86 163.22L197.87 163.2L197.87 163.19L197.88 163.17L197.88 163.15L197.89 163.14L197.89 163.12L197.9 163.1L197.9 163.09L197.91 163.07L197.91 163.06L197.92 163.04L197.93 163.03L197.93 163.01L197.94 163L197.95 162.98L197.96 162.97L197.97 162.95L197.97 162.94L197.98 162.92L197.99 162.91L198 162.9L198.01 162.88L198.02 162.87L198.03 162.86L198.04 162.85L198.05 162.83L198.06 162.82L198.07 162.81L198.08 162.8L198.09 162.78L198.11 162.77L198.12 162.76L198.13 162.75L198.14 162.74L198.16 162.72L198.17 162.71L198.18 162.7L198.2 162.69L198.21 162.68L198.23 162.67L198.24 162.66L198.26 162.64L198.28 162.63L198.29 162.62L198.31 162.61L198.33 162.6L198.35 162.59L198.36 162.58L198.38 162.57L198.4 162.56L198.42 162.55L198.44 162.54L198.46 162.53L198.48 162.53L198.5 162.52L198.52 162.51L198.54 162.5L198.57 162.49L198.59 162.48L198.61 162.47L198.63 162.46L198.66 162.46L198.68 162.45L198.7 162.44L198.73 162.43L198.75 162.42L198.78 162.42L198.8 162.41L198.83 162.4L198.86 162.39L198.88 162.38L198.91 162.38L198.94 162.37L198.97 162.36L199 162.36L199.03 162.35L199.06 162.34L199.09 162.34L199.12 162.33L199.15 162.32L199.18 162.32L199.21 162.31L199.24 162.3L199.28 162.3L199.31 162.29L199.34 162.29L199.38 162.28L199.41 162.28L199.45 162.27L199.48 162.27L199.52 162.26L199.55 162.26L199.59 162.25L199.63 162.25L199.66 162.25L199.7 162.24L199.74 162.24L199.78 162.23L199.82 162.23L199.86 162.23L199.9 162.22L199.94 162.22L199.98 162.22L200.02 162.22L200.06 162.21L200.1 162.21L200.15 162.21L200.19 162.21L200.23 162.2L200.27 162.2L200.32 162.2L200.36 162.2L200.41 162.2L200.45 162.2L200.5 162.19L200.55 162.19L200.59 162.19L200.64 162.19L200.69 162.19L200.74 162.19L200.79 162.18L200.83 162.18L200.88 162.18L200.93 162.18L200.99 162.18L201.04 162.18L201.09 162.18L201.14 162.18L201.19 162.17L201.25 162.17L201.3 162.17L201.35 162.17L201.41 162.17L201.46 162.17L201.52 162.17L201.57 162.17L201.63 162.17L201.69 162.17L201.74 162.17L201.8 162.17L201.86 162.17L201.92 162.17L201.98 162.17L202.04 162.17L202.1 162.17L202.16 162.17L202.23 162.17L202.3 162.17L202.37 162.17L202.45 162.17L202.52 162.17L202.59 162.17L202.65 162.17L202.72 162.17L202.79 162.17L202.86 162.17L202.92 162.17L202.99 162.17L203.05 162.17L203.12 162.18L203.18 162.18L203.24 162.18L203.3 162.18L203.37 162.18L203.43 162.18L203.49 162.19L203.54 162.19L203.6 162.19L203.66 162.19L203.72 162.19L203.77 162.2L203.83 162.2L203.88 162.2L203.94 162.2L203.99 162.21L204.04 162.21L204.09 162.21L204.15 162.21L204.2 162.22L204.25 162.22L204.29 162.22L204.34 162.23L204.39 162.23L204.44 162.23L204.48 162.24L204.53 162.24L204.57 162.24L204.61 162.25L204.66 162.25L204.7 162.26L204.74 162.26L204.78 162.26L204.83 162.27L204.87 162.27L204.91 162.28L204.95 162.28L204.99 162.28L205.02 162.29L205.06 162.29L205.1 162.3L205.14 162.3L205.17 162.31L205.21 162.31L205.25 162.32L205.28 162.32L205.32 162.33L205.35 162.34L205.38 162.34L205.42 162.35L205.45 162.35L205.48 162.36L205.51 162.37L205.54 162.37L205.57 162.38L205.6 162.39L205.63 162.39L205.66 162.4L205.69 162.41L205.72 162.41L205.74 162.42L205.77 162.43L205.8 162.44L205.82 162.45L205.85 162.45L205.87 162.46L205.9 162.47L205.92 162.48L205.94 162.49L205.97 162.49L205.99 162.5L206.01 162.51L206.03 162.52L206.05 162.53L206.07 162.54L206.09 162.55L206.12 162.56L206.14 162.56L206.16 162.57L206.17 162.58L206.19 162.59L206.21 162.61L206.23 162.62L206.25 162.63L206.27 162.64L206.29 162.65L206.3 162.66L206.32 162.67L206.34 162.68L206.35 162.69L206.37 162.71L206.38 162.72L206.4 162.73L206.42 162.74L206.43 162.76L206.44 162.77L206.46 162.78L206.47 162.8L206.49 162.81L206.5 162.82L206.51 162.84L206.52 162.85L206.54 162.87L206.55 162.88L206.56 162.89L206.57 162.91L206.58 162.92L206.59 162.94L206.6 162.95L206.61 162.97L206.62 162.98L206.63 163L206.64 163.01L206.65 163.03L206.66 163.05L206.67 163.06L206.68 163.08L206.69 163.09L206.7 163.11L206.71 163.13L206.72 163.14L206.73 163.16L206.74 163.18L206.75 163.19L206.76 163.21L206.77 163.23L206.78 163.24L206.79 163.26L206.8 163.28L206.8 163.3L206.81 163.32L206.82 163.33L206.83 163.35L206.84 163.37L206.85 163.39L206.86 163.41L206.87 163.43L206.88 163.45L206.88 163.46L206.89 163.48L206.9 163.5L206.91 163.52L206.92 163.54L206.93 163.56L206.93 163.58L206.94 163.6L206.95 163.62L218.38 197.39L218.48 197.8L218.59 197.39L229.07 163.62L229.07 163.6L229.08 163.58L229.08 163.56L229.09 163.54L229.1 163.52L229.1 163.5L229.11 163.48L229.11 163.46L229.12 163.45L229.13 163.43L229.13 163.41L229.14 163.39L229.15 163.37L229.16 163.35L229.16 163.33L229.17 163.32L229.18 163.3L229.19 163.28L229.19 163.26L229.2 163.24L229.21 163.23L229.22 163.21L229.23 163.19L229.24 163.18L229.25 163.16L229.26 163.14L229.27 163.13L229.28 163.11L229.28 163.09L229.29 163.08L229.3 163.06L229.32 163.05L229.33 163.03L229.34 163.01L229.35 163L229.36 162.98L229.37 162.97L229.38 162.95L229.39 162.94L229.4 162.92L229.41 162.91L229.43 162.89L229.44 162.88L229.45 162.87L229.47 162.85L229.48 162.84L229.5 162.82L229.51 162.81L229.52 162.8L229.54 162.78L229.55 162.77L229.57 162.76L229.59 162.74L229.6 162.73L229.62 162.72L229.64 162.71L229.65 162.69L229.67 162.68L229.69 162.67L229.7 162.66L229.72 162.65L229.74 162.64L229.76 162.63L229.78 162.62L229.8 162.61L229.82 162.59L229.84 162.58L229.86 162.57L229.88 162.56L229.9 162.56L229.92 162.55L229.94 162.54L229.96 162.53L229.99 162.52L230.01 162.51L230.03 162.5L230.05 162.49L230.08 162.49L230.1 162.48L230.12 162.47L230.15 162.46L230.17 162.45L230.19 162.45L230.22 162.44L230.24 162.43L230.27 162.42L230.3 162.41L230.32 162.41L230.35 162.4L230.38 162.39L230.41 162.39L230.43 162.38L230.46 162.37L230.49 162.37L230.52 162.36L230.55 162.35L230.58 162.35L230.61 162.34L230.65 162.34L230.68 162.33L230.71 162.32L230.74 162.32L230.78 162.31L230.81 162.31L230.84 162.3L230.88 162.3L230.91 162.29L230.95 162.29L230.98 162.28L231.02 162.28L231.06 162.28L231.09 162.27L231.13 162.27L231.17 162.26L231.21 162.26L231.25 162.26L231.28 162.25L231.32 162.25L231.36 162.24L231.4 162.24L231.45 162.24L231.49 162.23L231.53 162.23L231.57 162.23L231.62 162.22L231.66 162.22L231.71 162.22L231.75 162.21L231.8 162.21L231.85 162.21L231.89 162.21L231.94 162.2L231.99 162.2L232.04 162.2L232.09 162.2L232.14 162.19L232.19 162.19L232.25 162.19L232.3 162.19L232.35 162.19L232.41 162.18L232.46 162.18L232.51 162.18L232.57 162.18L232.63 162.18L232.68 162.18L232.74 162.17L232.8 162.17L232.86 162.17L232.92 162.17L232.98 162.17L233.04 162.17L233.1 162.17L233.16 162.17L233.22 162.17L233.29 162.17L233.35 162.17L233.42 162.17L233.48 162.17L233.55 162.17L233.61 162.17L233.67 162.17L233.73 162.17L233.79 162.17L233.85 162.17L233.91 162.17L233.97 162.17L234.03 162.17L234.09 162.17L234.15 162.17L234.2 162.17L234.26 162.17L234.32 162.17L234.37 162.18L234.43 162.18L234.48 162.18L234.54 162.18L234.59 162.18L234.64 162.18L234.69 162.19L234.74 162.19L234.8 162.19L234.85 162.19L234.9 162.19L234.95 162.2L234.99 162.2L235.04 162.2L235.09 162.2L235.14 162.21L235.18 162.21L235.23 162.21L235.27 162.21L235.32 162.22L235.36 162.22L235.41 162.22L235.45 162.23L235.49 162.23L235.53 162.23L235.58 162.24L235.62 162.24L235.66 162.24L235.7 162.25L235.74 162.25L235.78 162.26L235.82 162.26L235.86 162.26L235.89 162.27L235.93 162.27L235.97 162.28L236.01 162.28L236.04 162.28L236.08 162.29L236.12 162.29L236.15 162.3L236.19 162.3L236.22 162.31L236.25 162.31L236.29 162.32L236.32 162.32L236.35 162.33L236.39 162.34L236.42 162.34L236.45 162.35L236.48 162.35L236.51 162.36L236.54 162.37L236.57 162.37L236.6 162.38L236.63 162.39L236.66 162.39L236.68 162.4L236.71 162.41L236.74 162.41L236.77 162.42L236.79 162.43L236.82 162.44L236.84 162.45L236.87 162.45L236.89 162.46L236.92 162.47L236.94 162.48L236.96 162.48L236.98 162.49L237.01 162.5L237.03 162.51L237.05 162.52L237.07 162.53L237.09 162.54L237.11 162.54L237.13 162.55L237.16 162.56L237.17 162.57L237.19 162.58L237.21 162.59L237.23 162.6L237.25 162.61L237.27 162.62L237.29 162.63L237.31 162.64L237.32 162.65L237.34 162.66L237.36 162.67L237.37 162.69L237.39 162.7L237.4 162.71L237.42 162.72L237.44 162.73L237.45 162.74L237.46 162.75L237.48 162.77L237.49 162.78L237.51 162.79L237.52 162.8L237.53 162.82L237.54 162.83L237.56 162.84L237.57 162.85L237.58 162.87L237.59 162.88L237.6 162.89L237.61 162.91L237.62 162.92L237.63 162.94L237.64 162.95L237.65 162.96L237.66 162.98L237.67 162.99L237.68 163.01L237.69 163.02L237.7 163.04L237.71 163.05L237.72 163.07L237.72 163.08L237.73 163.1L237.74 163.11L237.75 163.13L237.76 163.14L237.77 163.16L237.78 163.18L237.78 163.19L237.79 163.21L237.8 163.22L237.81 163.24L237.81 163.26L237.82 163.27L237.83 163.29L237.84 163.31L237.84 163.32L237.85 163.34L237.86 163.36L237.86 163.37L237.87 163.39L237.88 163.41L237.88 163.43L237.89 163.44L237.89 163.46L237.9 163.48L237.91 163.5L237.91 163.51L237.92 163.53L249.24 197.39L249.35 197.8L249.4 197.39L260.67 163.62L260.67 163.6L260.68 163.58L260.68 163.56L260.69 163.54L260.7 163.52L260.7 163.5L260.71 163.48L260.71 163.46L260.72 163.45L260.73 163.43L260.73 163.41L260.74 163.39L260.75 163.37L260.75 163.35L260.76 163.33L260.77 163.32L260.78 163.3L260.79 163.28L260.79 163.26L260.8 163.24L260.81 163.23L260.82 163.21L260.83 163.19L260.84 163.18L260.85 163.16L260.86 163.14L260.86 163.13L260.87 163.11L260.88 163.09L260.89 163.08L260.9 163.06L260.91 163.05L260.92 163.03L260.94 163.01L260.95 163L260.96 162.98L260.97 162.97L260.98 162.95L260.99 162.94L261 162.92L261.01 162.91L261.03 162.89L261.04 162.88L261.05 162.87L261.07 162.85L261.08 162.84L261.09 162.82L261.11 162.81L261.12 162.8L261.14 162.78L261.15 162.77L261.17 162.76L261.19 162.74L261.2 162.73L261.22 162.72L261.24 162.71L261.25 162.69L261.27 162.68L261.29 162.67L261.31 162.66L261.33 162.65L261.35 162.64L261.36 162.63L261.38 162.62L261.4 162.61L261.42 162.59L261.44 162.58L261.47 162.57L261.49 162.56L261.51 162.56L261.53 162.55L261.55 162.54L261.57 162.53L261.6 162.52L261.62 162.51L261.64 162.5L261.67 162.49L261.69 162.49L261.71 162.48L261.74 162.47L261.76 162.46L261.79 162.45L261.82 162.45L261.84 162.44L261.87 162.43L261.9 162.42L261.93 162.41L261.96 162.41L261.99 162.4L262.01 162.39L262.04 162.39L262.08 162.38L262.11 162.37L262.14 162.37L262.17 162.36L262.2 162.35L262.23 162.35L262.27 162.34L262.3 162.34L262.33 162.33L262.37 162.32L262.4 162.32L262.44 162.31L262.48 162.31L262.51 162.3L262.55 162.3L262.59 162.29L262.62 162.29L262.66 162.28L262.7 162.28L262.74 162.28L262.78 162.27L262.82 162.27L262.86 162.26L262.9 162.26L262.94 162.26L262.98 162.25L263.02 162.25L263.07 162.24L263.11 162.24L263.15 162.24L263.2 162.23L263.24 162.23L263.29 162.23L263.33 162.22L263.38 162.22L263.43 162.22L263.48 162.21L263.53 162.21L263.58 162.21L263.63 162.21L263.68 162.2L263.73 162.2L263.78 162.2L263.84 162.2L263.89 162.19L263.94 162.19L264 162.19L264.05 162.19L264.11 162.19L264.16 162.18L264.22 162.18L264.28 162.18L264.34 162.18L264.4 162.18L264.46 162.18L264.52 162.17L264.58 162.17L264.64 162.17L264.7 162.17L264.76 162.17L264.83 162.17L264.89 162.17L264.96 162.17L265.02 162.17L265.09 162.17L265.15 162.17L265.22 162.17L265.29 162.17L265.36 162.17L265.42 162.17L265.48 162.17Z" id="b28YX0kXb"></path><path d="M229.9 46.86L230.08 46.86L230.26 46.87L230.44 46.88L230.61 46.89L230.79 46.9L230.96 46.92L231.13 46.94L231.29 46.96L231.46 46.98L231.62 47L231.78 47.03L231.94 47.06L232.1 47.09L232.25 47.12L232.4 47.15L232.55 47.19L232.7 47.23L232.85 47.27L232.99 47.31L233.13 47.35L233.27 47.4L233.41 47.45L233.55 47.5L233.68 47.55L233.81 47.6L233.94 47.65L234.07 47.71L234.19 47.77L234.32 47.83L234.44 47.89L234.56 47.95L234.67 48.01L234.79 48.08L234.9 48.14L235.01 48.21L235.12 48.28L235.22 48.35L235.32 48.43L235.42 48.5L235.52 48.58L235.62 48.65L235.71 48.73L235.8 48.81L235.89 48.89L235.98 48.97L236.06 49.06L236.15 49.14L236.23 49.23L236.3 49.31L236.38 49.4L236.46 49.49L236.53 49.58L236.6 49.67L236.66 49.76L236.73 49.86L236.79 49.95L236.85 50.05L236.91 50.14L236.97 50.24L237.02 50.34L237.08 50.44L237.13 50.54L237.18 50.65L237.22 50.75L237.27 50.85L237.31 50.96L237.35 51.07L237.39 51.18L237.43 51.28L237.46 51.39L237.49 51.5L237.52 51.61L237.55 51.72L237.58 51.83L237.6 51.95L237.63 52.06L237.65 52.17L237.66 52.29L237.68 52.4L237.69 52.52L237.7 52.63L237.71 52.75L237.72 52.87L237.73 52.98L237.73 53.1L237.73 53.22L237.73 53.33L237.73 53.44L237.73 53.54L237.72 53.65L237.72 53.75L237.71 53.86L237.71 53.97L237.7 54.07L237.69 54.18L237.68 54.29L237.67 54.39L237.66 54.5L237.64 54.6L237.63 54.71L237.62 54.82L237.6 54.92L237.58 55.03L237.57 55.13L237.55 55.24L237.53 55.35L237.51 55.45L237.48 55.56L237.46 55.67L237.44 55.77L237.41 55.88L237.38 55.99L237.35 56.1L237.32 56.21L237.28 56.32L237.24 56.44L237.2 56.55L237.16 56.66L237.11 56.78L237.07 56.89L237.02 57.01L236.96 57.13L236.91 57.24L236.85 57.36L236.79 57.48L236.73 57.6L236.67 57.72L236.6 57.85L236.54 57.97L236.47 58.09L236.39 58.22L236.32 58.34L236.24 58.47L236.16 58.59L236.08 58.72L235.99 58.85L235.9 58.98L235.81 59.12L235.71 59.25L235.62 59.38L235.52 59.52L235.41 59.66L235.31 59.79L235.2 59.93L235.08 60.08L234.97 60.22L234.85 60.36L234.73 60.5L234.61 60.65L234.48 60.8L234.35 60.95L234.22 61.1L234.08 61.25L233.95 61.4L233.8 61.56L233.66 61.71L233.51 61.87L233.35 62.04L233.19 62.2L233.03 62.37L232.86 62.54L232.69 62.71L232.51 62.88L232.34 63.05L232.15 63.23L231.97 63.41L231.77 63.59L231.58 63.77L231.38 63.96L231.18 64.15L230.97 64.34L230.76 64.53L230.54 64.72L230.32 64.92L225.83 68.97L238.17 68.97L238.19 68.97L238.2 68.97L238.22 68.97L238.23 68.97L238.25 68.97L238.26 68.98L238.28 68.98L238.29 68.98L238.31 68.98L238.32 68.99L238.34 68.99L238.35 69L238.37 69L238.39 69.01L238.4 69.01L238.42 69.02L238.43 69.02L238.44 69.03L238.46 69.04L238.47 69.04L238.49 69.05L238.5 69.06L238.52 69.07L238.53 69.08L238.55 69.09L238.56 69.09L238.58 69.1L238.59 69.11L238.61 69.12L238.62 69.14L238.64 69.15L238.65 69.16L238.66 69.17L238.68 69.18L238.69 69.19L238.7 69.21L238.72 69.22L238.73 69.23L238.74 69.25L238.75 69.26L238.77 69.27L238.78 69.29L238.79 69.3L238.8 69.32L238.81 69.33L238.82 69.35L238.83 69.36L238.84 69.38L238.85 69.4L238.86 69.42L238.87 69.43L238.88 69.45L238.89 69.47L238.9 69.49L238.91 69.51L238.91 69.53L238.92 69.55L238.93 69.57L238.94 69.59L238.94 69.61L238.95 69.63L238.96 69.65L238.96 69.67L238.97 69.7L238.97 69.72L238.98 69.74L238.98 69.77L238.99 69.79L238.99 69.81L238.99 69.84L239 69.86L239 69.89L239 69.92L239.01 69.94L239.01 69.97L239.01 69.99L239.01 70.02L239.02 70.05L239.02 70.07L239.02 70.1L239.02 70.13L239.03 70.16L239.03 70.19L239.03 70.22L239.03 70.24L239.03 70.27L239.03 70.3L239.03 70.33L239.03 70.37L239.03 70.4L239.03 70.43L239.03 70.46L239.03 70.49L239.03 70.52L239.02 70.55L239.02 70.58L239.02 70.61L239.02 70.64L239.01 70.67L239.01 70.69L239.01 70.72L239.01 70.75L239 70.78L239 70.8L239 70.83L238.99 70.85L238.99 70.88L238.99 70.91L238.98 70.93L238.98 70.96L238.97 70.98L238.97 71L238.96 71.03L238.96 71.05L238.95 71.07L238.94 71.09L238.94 71.11L238.93 71.13L238.92 71.16L238.92 71.18L238.91 71.2L238.9 71.22L238.89 71.24L238.89 71.26L238.88 71.27L238.87 71.29L238.86 71.31L238.85 71.33L238.85 71.35L238.84 71.36L238.83 71.38L238.82 71.4L238.81 71.41L238.8 71.43L238.79 71.44L238.78 71.46L238.77 71.47L238.76 71.49L238.75 71.5L238.74 71.52L238.73 71.53L238.72 71.54L238.71 71.56L238.7 71.57L238.68 71.58L238.67 71.59L238.66 71.6L238.64 71.61L238.63 71.62L238.62 71.63L238.6 71.64L238.59 71.65L238.57 71.66L238.56 71.67L238.54 71.68L238.53 71.68L238.51 71.69L238.5 71.69L238.48 71.7L238.47 71.7L238.45 71.71L238.44 71.71L238.42 71.72L238.4 71.72L238.39 71.73L238.37 71.73L238.36 71.73L238.34 71.73L238.32 71.74L238.31 71.74L238.29 71.74L238.27 71.74L238.26 71.74L238.24 71.74L238.22 71.74L238.2 71.74L222.51 71.74L222.48 71.74L222.45 71.74L222.43 71.74L222.4 71.74L222.37 71.74L222.34 71.74L222.32 71.74L222.29 71.74L222.27 71.73L222.24 71.73L222.22 71.73L222.19 71.73L222.17 71.72L222.14 71.72L222.12 71.72L222.1 71.71L222.07 71.71L222.05 71.7L222.03 71.7L222.01 71.69L221.99 71.69L221.97 71.68L221.95 71.68L221.92 71.67L221.9 71.66L221.88 71.65L221.86 71.65L221.84 71.64L221.83 71.63L221.81 71.62L221.79 71.61L221.77 71.6L221.75 71.59L221.73 71.58L221.71 71.57L221.7 71.56L221.68 71.55L221.66 71.53L221.64 71.52L221.63 71.51L221.61 71.5L221.59 71.48L221.58 71.47L221.56 71.46L221.55 71.44L221.53 71.43L221.52 71.41L221.51 71.4L221.49 71.38L221.48 71.37L221.47 71.35L221.46 71.33L221.45 71.31L221.44 71.29L221.43 71.27L221.42 71.26L221.41 71.23L221.4 71.21L221.39 71.19L221.38 71.17L221.37 71.15L221.36 71.13L221.35 71.1L221.35 71.08L221.34 71.06L221.33 71.03L221.33 71L221.32 70.98L221.32 70.95L221.31 70.92L221.31 70.89L221.3 70.86L221.3 70.84L221.29 70.8L221.29 70.77L221.28 70.74L221.28 70.71L221.28 70.68L221.28 70.64L221.27 70.61L221.27 70.58L221.27 70.54L221.27 70.5L221.27 70.47L221.27 70.43L221.26 70.39L221.26 70.36L221.26 70.32L221.26 70.28L221.26 70.25L221.26 70.22L221.26 70.18L221.26 70.15L221.27 70.12L221.27 70.09L221.27 70.06L221.27 70.03L221.27 70L221.27 69.97L221.27 69.94L221.27 69.91L221.27 69.88L221.27 69.85L221.27 69.82L221.27 69.8L221.28 69.77L221.28 69.74L221.28 69.72L221.28 69.69L221.28 69.67L221.28 69.64L221.29 69.61L221.29 69.59L221.3 69.56L221.3 69.54L221.31 69.52L221.31 69.49L221.32 69.47L221.32 69.44L221.33 69.42L221.33 69.4L221.34 69.38L221.35 69.35L221.35 69.33L221.36 69.31L221.37 69.29L221.38 69.27L221.39 69.25L221.39 69.23L221.4 69.21L221.41 69.18L221.42 69.17L221.43 69.15L221.44 69.12L221.46 69.1L221.47 69.08L221.48 69.06L221.49 69.04L221.5 69.02L221.51 69L221.53 68.98L221.54 68.96L221.55 68.94L221.57 68.92L221.58 68.9L221.59 68.88L221.61 68.86L221.62 68.84L221.63 68.82L221.65 68.8L221.66 68.78L221.67 68.76L221.69 68.74L221.7 68.73L221.72 68.71L221.73 68.68L221.75 68.66L221.77 68.64L221.79 68.62L221.8 68.6L221.82 68.58L221.84 68.56L221.86 68.54L221.88 68.52L221.9 68.5L221.92 68.47L221.94 68.45L221.96 68.43L221.98 68.41L222 68.39L222.03 68.37L222.05 68.34L222.07 68.32L222.09 68.3L222.12 68.28L222.14 68.26L227.64 63.2L227.81 63.05L227.98 62.89L228.14 62.74L228.31 62.58L228.46 62.43L228.62 62.28L228.77 62.13L228.92 61.98L229.07 61.84L229.21 61.69L229.35 61.55L229.49 61.41L229.63 61.27L229.76 61.13L229.88 61L230.01 60.86L230.13 60.73L230.25 60.59L230.36 60.46L230.48 60.33L230.59 60.21L230.69 60.08L230.79 59.95L230.9 59.83L231 59.71L231.09 59.59L231.19 59.46L231.28 59.34L231.37 59.23L231.46 59.11L231.55 58.99L231.63 58.87L231.72 58.76L231.8 58.65L231.88 58.53L231.95 58.42L232.03 58.31L232.1 58.2L232.17 58.09L232.23 57.98L232.3 57.88L232.36 57.77L232.42 57.66L232.48 57.56L232.54 57.46L232.59 57.36L232.64 57.26L232.7 57.16L232.74 57.06L232.79 56.96L232.84 56.86L232.88 56.76L232.92 56.67L232.96 56.57L233 56.48L233.04 56.38L233.07 56.29L233.11 56.2L233.14 56.11L233.17 56.02L233.19 55.93L233.22 55.84L233.24 55.75L233.27 55.67L233.29 55.58L233.31 55.5L233.32 55.41L233.34 55.33L233.36 55.24L233.37 55.16L233.38 55.08L233.4 55L233.41 54.91L233.42 54.83L233.43 54.75L233.44 54.67L233.45 54.59L233.46 54.51L233.47 54.44L233.47 54.36L233.48 54.28L233.49 54.2L233.49 54.13L233.49 54.05L233.5 53.98L233.5 53.9L233.5 53.83L233.5 53.75L233.5 53.68L233.5 53.61L233.49 53.53L233.49 53.46L233.48 53.39L233.48 53.31L233.47 53.24L233.46 53.17L233.45 53.1L233.43 53.03L233.42 52.96L233.4 52.89L233.39 52.82L233.37 52.75L233.35 52.68L233.33 52.61L233.31 52.54L233.29 52.47L233.26 52.41L233.24 52.34L233.21 52.27L233.18 52.21L233.16 52.14L233.13 52.08L233.1 52.01L233.06 51.95L233.03 51.89L233 51.82L232.96 51.76L232.93 51.7L232.89 51.64L232.85 51.58L232.81 51.52L232.77 51.47L232.73 51.41L232.69 51.35L232.64 51.3L232.6 51.24L232.55 51.19L232.51 51.14L232.46 51.08L232.41 51.03L232.36 50.98L232.31 50.93L232.25 50.88L232.2 50.83L232.14 50.78L232.09 50.74L232.03 50.69L231.97 50.64L231.91 50.6L231.85 50.56L231.78 50.51L231.72 50.47L231.65 50.43L231.58 50.39L231.52 50.35L231.45 50.32L231.38 50.28L231.31 50.24L231.23 50.21L231.16 50.18L231.08 50.14L231.01 50.11L230.93 50.08L230.85 50.05L230.77 50.02L230.69 50L230.6 49.97L230.52 49.95L230.44 49.92L230.35 49.9L230.26 49.88L230.17 49.86L230.09 49.85L230 49.83L229.9 49.81L229.81 49.8L229.72 49.79L229.62 49.78L229.53 49.77L229.43 49.76L229.33 49.75L229.24 49.74L229.14 49.74L229.04 49.74L228.93 49.73L228.83 49.73L228.71 49.73L228.59 49.74L228.47 49.74L228.35 49.74L228.24 49.75L228.12 49.76L228.01 49.77L227.89 49.78L227.78 49.79L227.67 49.8L227.56 49.81L227.45 49.83L227.34 49.85L227.24 49.86L227.13 49.88L227.03 49.9L226.92 49.92L226.82 49.95L226.72 49.97L226.62 50L226.52 50.02L226.43 50.05L226.33 50.08L226.23 50.11L226.14 50.14L226.04 50.17L225.95 50.2L225.86 50.23L225.77 50.26L225.68 50.29L225.59 50.32L225.5 50.35L225.42 50.39L225.33 50.42L225.25 50.45L225.17 50.48L225.09 50.52L225.01 50.55L224.93 50.58L224.85 50.61L224.77 50.65L224.7 50.68L224.62 50.72L224.55 50.75L224.48 50.78L224.41 50.82L224.34 50.85L224.27 50.89L224.2 50.92L224.13 50.95L224.07 50.99L224 51.02L223.94 51.05L223.88 51.09L223.82 51.12L223.76 51.15L223.7 51.18L223.64 51.22L223.58 51.25L223.53 51.28L223.47 51.31L223.42 51.34L223.36 51.37L223.31 51.4L223.26 51.43L223.21 51.46L223.17 51.49L223.12 51.52L223.07 51.54L223.03 51.57L222.99 51.59L222.94 51.61L222.9 51.63L222.86 51.65L222.82 51.67L222.79 51.69L222.75 51.7L222.71 51.72L222.68 51.73L222.65 51.74L222.61 51.75L222.58 51.76L222.55 51.76L222.53 51.77L222.5 51.78L222.47 51.78L222.45 51.78L222.42 51.78L222.41 51.78L222.39 51.78L222.38 51.78L222.37 51.78L222.35 51.78L222.34 51.78L222.33 51.77L222.31 51.77L222.3 51.77L222.29 51.77L222.27 51.76L222.26 51.76L222.25 51.76L222.23 51.75L222.22 51.75L222.21 51.74L222.2 51.74L222.19 51.73L222.18 51.73L222.16 51.72L222.15 51.71L222.14 51.71L222.13 51.7L222.12 51.69L222.11 51.68L222.1 51.68L222.09 51.67L222.08 51.66L222.07 51.65L222.06 51.64L222.05 51.63L222.04 51.62L222.03 51.61L222.02 51.6L222.01 51.59L222.01 51.57L222 51.56L221.99 51.55L221.98 51.53L221.97 51.52L221.97 51.51L221.96 51.49L221.95 51.48L221.95 51.46L221.94 51.45L221.94 51.43L221.93 51.41L221.92 51.39L221.92 51.38L221.91 51.36L221.9 51.34L221.9 51.32L221.89 51.3L221.89 51.28L221.88 51.26L221.88 51.24L221.87 51.22L221.86 51.19L221.86 51.17L221.85 51.15L221.85 51.13L221.84 51.1L221.84 51.08L221.83 51.06L221.83 51.03L221.83 51.01L221.82 50.98L221.82 50.95L221.82 50.93L221.81 50.9L221.81 50.87L221.81 50.84L221.81 50.81L221.8 50.78L221.8 50.75L221.8 50.72L221.8 50.69L221.8 50.66L221.8 50.63L221.79 50.59L221.79 50.56L221.79 50.52L221.79 50.49L221.79 50.45L221.79 50.42L221.79 50.38L221.79 50.35L221.79 50.31L221.79 50.29L221.79 50.26L221.79 50.24L221.79 50.21L221.79 50.19L221.79 50.17L221.79 50.14L221.79 50.12L221.79 50.1L221.79 50.08L221.79 50.05L221.8 50.03L221.8 50.01L221.8 49.99L221.8 49.97L221.8 49.95L221.8 49.93L221.8 49.9L221.8 49.88L221.8 49.86L221.81 49.84L221.81 49.82L221.81 49.81L221.81 49.79L221.81 49.77L221.81 49.75L221.82 49.73L221.82 49.71L221.82 49.7L221.82 49.68L221.83 49.66L221.83 49.64L221.83 49.63L221.84 49.61L221.84 49.6L221.84 49.58L221.85 49.56L221.85 49.55L221.86 49.53L221.86 49.52L221.86 49.5L221.87 49.49L221.87 49.47L221.88 49.46L221.88 49.45L221.89 49.43L221.89 49.42L221.9 49.41L221.9 49.39L221.91 49.38L221.91 49.37L221.92 49.36L221.92 49.34L221.93 49.33L221.94 49.32L221.94 49.31L221.95 49.29L221.96 49.28L221.96 49.27L221.97 49.26L221.98 49.25L221.99 49.23L221.99 49.22L222 49.21L222.01 49.2L222.02 49.19L222.03 49.18L222.04 49.16L222.05 49.15L222.06 49.14L222.07 49.12L222.08 49.11L222.09 49.1L222.11 49.08L222.12 49.07L222.13 49.05L222.15 49.04L222.17 49.02L222.18 49.01L222.2 48.99L222.22 48.97L222.24 48.96L222.26 48.94L222.28 48.92L222.3 48.91L222.32 48.89L222.35 48.87L222.37 48.85L222.39 48.83L222.42 48.81L222.45 48.79L222.48 48.77L222.51 48.75L222.54 48.73L222.57 48.71L222.61 48.68L222.65 48.66L222.69 48.64L222.73 48.61L222.77 48.59L222.81 48.56L222.86 48.53L222.91 48.51L222.96 48.48L223.01 48.45L223.06 48.43L223.11 48.4L223.17 48.37L223.22 48.34L223.28 48.31L223.34 48.28L223.4 48.24L223.46 48.21L223.53 48.18L223.59 48.15L223.66 48.12L223.73 48.09L223.8 48.06L223.87 48.03L223.94 48L224.01 47.97L224.08 47.94L224.16 47.91L224.24 47.88L224.31 47.85L224.39 47.82L224.47 47.79L224.56 47.76L224.64 47.73L224.72 47.7L224.81 47.67L224.9 47.64L224.99 47.61L225.08 47.58L225.17 47.55L225.26 47.52L225.35 47.49L225.45 47.47L225.54 47.44L225.64 47.41L225.73 47.39L225.83 47.36L225.93 47.33L226.03 47.31L226.13 47.28L226.23 47.26L226.33 47.23L226.43 47.21L226.53 47.19L226.64 47.16L226.74 47.14L226.84 47.12L226.95 47.1L227.06 47.08L227.16 47.06L227.27 47.04L227.38 47.02L227.49 47L227.6 46.99L227.71 46.97L227.82 46.96L227.93 46.94L228.04 46.93L228.15 46.92L228.26 46.91L228.37 46.9L228.49 46.89L228.6 46.88L228.72 46.87L228.83 46.87L228.95 46.86L229.06 46.86L229.18 46.86L229.3 46.85L229.41 46.85L229.53 46.85L229.72 46.85L229.9 46.86Z" id="b1wuMBsA2n"></path><path d="M253.97 46.87L254.33 46.89L254.68 46.92L255.03 46.96L255.37 47L255.69 47.06L256.01 47.12L256.32 47.19L256.63 47.27L256.92 47.36L257.2 47.45L257.48 47.56L257.74 47.67L258 47.79L258.25 47.92L258.5 48.06L258.73 48.2L258.96 48.36L259.18 48.52L259.4 48.69L259.61 48.86L259.81 49.05L260 49.24L260.18 49.45L260.36 49.65L260.53 49.87L260.69 50.1L260.85 50.33L261 50.57L261.14 50.82L261.28 51.08L261.41 51.34L261.53 51.61L261.65 51.89L261.76 52.17L261.87 52.47L261.96 52.77L262.06 53.07L262.14 53.39L262.22 53.71L262.29 54.04L262.35 54.38L262.41 54.72L262.47 55.08L262.52 55.43L262.56 55.8L262.61 56.17L262.64 56.55L262.67 56.94L262.7 57.33L262.72 57.74L262.74 58.14L262.75 58.56L262.76 58.98L262.76 59.41L262.76 59.81L262.75 60.21L262.74 60.6L262.72 60.99L262.69 61.37L262.66 61.75L262.63 62.12L262.59 62.49L262.54 62.85L262.49 63.21L262.44 63.56L262.37 63.91L262.31 64.25L262.24 64.58L262.16 64.91L262.08 65.23L261.99 65.55L261.89 65.86L261.78 66.16L261.67 66.46L261.55 66.75L261.43 67.03L261.3 67.31L261.16 67.58L261.01 67.84L260.86 68.1L260.7 68.35L260.53 68.59L260.36 68.82L260.18 69.05L259.99 69.27L259.79 69.48L259.58 69.69L259.37 69.88L259.15 70.07L258.93 70.25L258.69 70.43L258.45 70.59L258.2 70.75L257.94 70.9L257.68 71.05L257.41 71.18L257.13 71.31L256.84 71.43L256.54 71.54L256.23 71.63L255.91 71.72L255.59 71.8L255.25 71.88L254.91 71.94L254.55 71.99L254.19 72.03L253.82 72.07L253.44 72.09L253.05 72.1L252.65 72.11L252.27 72.1L251.9 72.09L251.54 72.07L251.18 72.04L250.84 72L250.5 71.96L250.17 71.9L249.85 71.84L249.54 71.77L249.24 71.69L248.95 71.6L248.66 71.51L248.39 71.4L248.12 71.29L247.86 71.17L247.61 71.04L247.37 70.9L247.13 70.75L246.91 70.6L246.68 70.44L246.47 70.27L246.26 70.09L246.06 69.9L245.87 69.71L245.68 69.51L245.51 69.3L245.34 69.09L245.17 68.86L245.02 68.63L244.87 68.39L244.73 68.14L244.59 67.88L244.46 67.62L244.34 67.35L244.22 67.07L244.11 66.79L244.01 66.49L243.91 66.19L243.82 65.89L243.74 65.57L243.66 65.25L243.59 64.92L243.53 64.58L243.47 64.23L243.41 63.88L243.36 63.52L243.31 63.15L243.27 62.78L243.24 62.4L243.21 62.01L243.18 61.61L243.16 61.21L243.14 60.8L243.13 60.39L243.12 59.96L243.12 59.53L243.12 59.13L243.13 58.74L243.14 58.35L243.16 57.97L243.19 57.59L243.22 57.21L243.25 56.84L243.29 56.48L243.34 56.12L243.39 55.76L243.44 55.41L243.51 55.07L243.57 54.73L243.65 54.39L243.72 54.06L243.81 53.73L243.9 53.41L244 53.1L244.1 52.8L244.21 52.5L244.33 52.21L244.46 51.93L244.59 51.65L244.73 51.38L244.87 51.12L245.02 50.86L245.18 50.61L245.35 50.37L245.52 50.13L245.7 49.91L245.89 49.69L246.09 49.47L246.29 49.27L246.51 49.07L246.72 48.88L246.95 48.7L247.19 48.53L247.43 48.36L247.68 48.2L247.94 48.05L248.2 47.91L248.47 47.78L248.75 47.65L249.04 47.53L249.34 47.42L249.65 47.32L249.96 47.23L250.29 47.15L250.62 47.08L250.97 47.02L251.32 46.97L251.68 46.93L252.05 46.89L252.43 46.87L252.82 46.86L253.21 46.85L253.59 46.86L253.97 46.87ZM252.28 49.55L251.94 49.59L251.61 49.64L251.3 49.71L251 49.79L250.72 49.89L250.46 50.01L250.2 50.14L249.97 50.28L249.74 50.44L249.52 50.61L249.31 50.79L249.12 50.98L248.93 51.18L248.75 51.4L248.58 51.63L248.43 51.86L248.28 52.11L248.14 52.37L248.01 52.64L247.89 52.92L247.78 53.21L247.67 53.5L247.58 53.81L247.49 54.13L247.41 54.45L247.34 54.79L247.28 55.13L247.23 55.48L247.18 55.84L247.14 56.2L247.1 56.57L247.07 56.95L247.04 57.33L247.02 57.71L247 58.1L246.99 58.5L246.98 58.9L246.98 59.31L246.98 59.85L246.99 60.37L247.01 60.88L247.03 61.37L247.06 61.85L247.1 62.31L247.14 62.75L247.19 63.17L247.25 63.58L247.31 63.98L247.38 64.36L247.46 64.72L247.55 65.07L247.64 65.41L247.74 65.73L247.85 66.03L247.96 66.33L248.08 66.6L248.21 66.87L248.35 67.12L248.5 67.35L248.65 67.58L248.82 67.79L248.99 67.98L249.17 68.17L249.35 68.34L249.55 68.49L249.75 68.63L249.96 68.76L250.18 68.88L250.4 68.98L250.64 69.07L250.88 69.16L251.13 69.23L251.4 69.29L251.67 69.34L251.96 69.37L252.25 69.4L252.55 69.42L252.86 69.42L253.1 69.42L253.34 69.41L253.57 69.39L253.79 69.37L254.01 69.34L254.23 69.3L254.43 69.26L254.64 69.21L254.83 69.15L255.02 69.09L255.2 69.02L255.38 68.94L255.55 68.86L255.72 68.77L255.88 68.67L256.04 68.57L256.19 68.47L256.34 68.36L256.48 68.24L256.62 68.12L256.75 67.99L256.88 67.86L257 67.72L257.12 67.57L257.24 67.42L257.35 67.26L257.46 67.1L257.56 66.94L257.65 66.76L257.74 66.59L257.83 66.41L257.91 66.22L257.99 66.03L258.06 65.84L258.14 65.65L258.2 65.45L258.27 65.25L258.33 65.04L258.39 64.83L258.44 64.61L258.49 64.4L258.54 64.18L258.58 63.95L258.62 63.72L258.66 63.49L258.69 63.26L258.72 63.02L258.75 62.78L258.78 62.53L258.8 62.28L258.81 62.02L258.83 61.77L258.85 61.51L258.86 61.25L258.87 60.98L258.88 60.72L258.89 60.45L258.9 60.18L258.9 59.91L258.9 59.64L258.9 59.28L258.89 58.92L258.89 58.57L258.87 58.23L258.86 57.9L258.84 57.57L258.82 57.26L258.8 56.94L258.77 56.64L258.74 56.35L258.71 56.06L258.67 55.78L258.63 55.51L258.59 55.24L258.55 54.98L258.5 54.72L258.45 54.47L258.4 54.23L258.34 54L258.29 53.77L258.23 53.55L258.17 53.33L258.1 53.12L258.03 52.92L257.95 52.73L257.88 52.54L257.8 52.35L257.71 52.18L257.62 52.01L257.53 51.84L257.43 51.68L257.33 51.53L257.23 51.39L257.12 51.25L257.01 51.11L256.89 50.98L256.77 50.86L256.65 50.74L256.52 50.63L256.39 50.52L256.26 50.42L256.12 50.32L255.98 50.23L255.84 50.15L255.69 50.07L255.54 49.99L255.38 49.93L255.23 49.87L255.06 49.81L254.9 49.76L254.73 49.72L254.55 49.68L254.37 49.64L254.19 49.61L254 49.58L253.81 49.56L253.61 49.54L253.41 49.53L253.21 49.52L253 49.52L252.63 49.53L252.28 49.55Z" id="bJoEzNsRd"></path></defs><g><g><g><use xlink:href="#c1Q6kZYMNM" opacity="1" fill="#ffffff" fill-opacity="1"></use><g><use xlink:href="#c1Q6kZYMNM" opacity="1" fill-opacity="0" stroke="#000000" stroke-width="1" stroke-opacity="0"></use></g></g><g><use xlink:href="#c2EpJ1ffo3" opacity="1" fill="#ffffff" fill-opacity="1"></use><g><use xlink:href="#c2EpJ1ffo3" opacity="1" fill-opacity="0" stroke="#000000" stroke-width="1" stroke-opacity="0"></use></g></g><g><use xlink:href="#f4uhvLqhjR" opacity="1" fill="#ffffff" fill-opacity="1"></use><g><use xlink:href="#f4uhvLqhjR" opacity="1" fill-opacity="0" stroke="#000000" stroke-width="1" stroke-opacity="0"></use></g></g><g><use xlink:href="#ggwbsKtj0" opacity="1" fill="#c93c3c" fill-opacity="0"></use><g><use xlink:href="#ggwbsKtj0" opacity="1" fill-opacity="0" stroke="#41228e" stroke-width="22.8" stroke-opacity="1"></use></g></g><g><use xlink:href="#ba49ENT1D" opacity="1" fill="#41228e" fill-opacity="1"></use><g><use xlink:href="#ba49ENT1D" opacity="1" fill-opacity="0" stroke="#906f16" stroke-width="1" stroke-opacity="0"></use></g></g><g><use xlink:href="#b28YX0kXb" opacity="1" fill="#41228e" fill-opacity="1"></use><g><use xlink:href="#b28YX0kXb" opacity="1" fill-opacity="0" stroke="#000000" stroke-width="1" stroke-opacity="0"></use></g></g><g><use xlink:href="#b1wuMBsA2n" opacity="1" fill="#41228e" fill-opacity="1"></use><g><use xlink:href="#b1wuMBsA2n" opacity="1" fill-opacity="0" stroke="#000000" stroke-width="1" stroke-opacity="0"></use></g></g><g><use xlink:href="#bJoEzNsRd" opacity="1" fill="#41228e" fill-opacity="1"></use><g><use xlink:href="#bJoEzNsRd" opacity="1" fill-opacity="0" stroke="#000000" stroke-width="1" stroke-opacity="0"></use></g></g></g></g></svg>