<?xml version="1.0" encoding="UTF-8" standalone="no"?>
<!DOCTYPE svg PUBLIC "-//W3C//DTD SVG 1.1//EN" "http://www.w3.org/Graphics/SVG/1.1/DTD/svg11.dtd">
<svg version="1.1" xmlns="http://www.w3.org/2000/svg" xmlns:xlink="http://www.w3.org/1999/xlink" preserveAspectRatio="xMidYMid meet" viewBox="0 0 314.88 271.29" width="90" height="77.54"><defs><path d="M289.98 0C289.98 0 289.98 0 289.98 0C289.98 162.11 289.98 252.17 289.98 270.18C289.98 270.18 289.98 270.18 289.98 270.18C128.52 270.18 38.82 270.18 20.88 270.18C20.88 270.18 20.88 270.18 20.88 270.18C20.88 108.07 20.88 18.01 20.88 0C20.88 0 20.88 0 20.88 0C182.34 0 272.04 0 289.98 0Z" id="b2O82ewXE4"></path><path d="M-264.05 128.96L-263.87 128.97L-263.69 128.98L-263.52 129L-263.35 129.02L-263.18 129.04L-263.02 129.07L-262.86 129.1L-262.7 129.14L-262.55 129.17L-262.4 129.21L-262.25 129.26L-262.11 129.31L-261.97 129.36L-261.84 129.41L-261.71 129.47L-261.59 129.53L-261.46 129.59L-261.35 129.65L-261.23 129.72L-261.12 129.79L-261.02 129.86L-260.92 129.94L-260.82 130.01L-260.72 130.09L-260.63 130.17L-260.54 130.26L-260.46 130.34L-260.38 130.43L-260.3 130.52L-260.23 130.61L-260.16 130.7L-260.09 130.8L-260.03 130.9L-259.97 131L-259.91 131.1L-259.86 131.2L-259.81 131.31L-259.77 131.41L-259.72 131.52L-259.68 131.63L-259.65 131.74L-259.62 131.85L-259.59 131.96L-259.56 132.07L-259.54 132.19L-259.53 132.3L-259.51 132.42L-259.5 132.54L-259.5 132.66L-259.5 132.78L-259.5 132.89L-259.5 133L-259.5 133.11L-259.51 133.22L-259.52 133.33L-259.53 133.44L-259.54 133.54L-259.56 133.65L-259.57 133.76L-259.59 133.87L-259.61 133.98L-259.63 134.08L-259.65 134.19L-259.68 134.3L-259.71 134.41L-259.74 134.52L-259.77 134.63L-259.81 134.75L-259.86 134.86L-259.9 134.98L-259.95 135.1L-260.01 135.22L-260.07 135.34L-260.13 135.46L-260.2 135.58L-260.27 135.71L-260.34 135.83L-260.42 135.96L-260.5 136.09L-260.59 136.22L-260.68 136.36L-260.78 136.49L-260.88 136.63L-260.99 136.77L-261.1 136.92L-261.22 137.06L-261.34 137.21L-261.47 137.36L-261.6 137.51L-261.74 137.67L-261.89 137.82L-262.04 137.98L-262.2 138.15L-262.37 138.32L-262.54 138.49L-262.72 138.67L-262.91 138.85L-263.11 139.03L-263.31 139.22L-263.52 139.41L-263.73 139.6L-263.95 139.8L-266.64 142.23L-259.23 142.23L-259.22 142.23L-259.2 142.23L-259.19 142.23L-259.17 142.24L-259.16 142.24L-259.14 142.24L-259.13 142.25L-259.11 142.25L-259.1 142.26L-259.08 142.27L-259.07 142.27L-259.05 142.28L-259.04 142.29L-259.02 142.3L-259.01 142.31L-258.99 142.31L-258.98 142.32L-258.97 142.33L-258.95 142.35L-258.94 142.36L-258.92 142.37L-258.91 142.38L-258.9 142.4L-258.89 142.41L-258.87 142.43L-258.86 142.44L-258.85 142.46L-258.84 142.48L-258.83 142.49L-258.83 142.51L-258.82 142.53L-258.81 142.55L-258.8 142.57L-258.79 142.59L-258.78 142.61L-258.78 142.63L-258.77 142.65L-258.76 142.68L-258.76 142.7L-258.75 142.72L-258.75 142.75L-258.74 142.77L-258.74 142.8L-258.74 142.82L-258.73 142.85L-258.73 142.88L-258.73 142.9L-258.73 142.93L-258.72 142.96L-258.72 142.99L-258.72 143.02L-258.72 143.05L-258.72 143.08L-258.72 143.11L-258.72 143.15L-258.73 143.18L-258.73 143.21L-258.73 143.24L-258.73 143.27L-258.74 143.29L-258.74 143.32L-258.74 143.35L-258.75 143.38L-258.75 143.4L-258.76 143.43L-258.76 143.45L-258.77 143.47L-258.78 143.5L-258.78 143.52L-258.79 143.54L-258.8 143.56L-258.8 143.58L-258.81 143.6L-258.82 143.62L-258.82 143.64L-258.83 143.65L-258.84 143.67L-258.85 143.69L-258.85 143.7L-258.86 143.72L-258.87 143.73L-258.88 143.75L-258.89 143.76L-258.91 143.78L-258.92 143.79L-258.93 143.8L-258.95 143.81L-258.96 143.82L-258.97 143.83L-258.99 143.84L-259 143.85L-259.02 143.86L-259.04 143.87L-259.05 143.87L-259.07 143.88L-259.09 143.88L-259.1 143.88L-259.12 143.89L-259.14 143.89L-259.15 143.89L-259.17 143.9L-259.18 143.9L-259.2 143.9L-259.21 143.9L-268.64 143.9L-268.67 143.9L-268.69 143.9L-268.72 143.9L-268.75 143.9L-268.77 143.89L-268.8 143.89L-268.82 143.89L-268.84 143.89L-268.87 143.88L-268.89 143.88L-268.91 143.88L-268.94 143.87L-268.96 143.87L-268.98 143.86L-269 143.85L-269.02 143.85L-269.04 143.84L-269.06 143.83L-269.08 143.82L-269.1 143.81L-269.12 143.8L-269.14 143.78L-269.15 143.77L-269.17 143.76L-269.19 143.74L-269.2 143.73L-269.22 143.72L-269.23 143.7L-269.24 143.69L-269.26 143.67L-269.27 143.65L-269.28 143.63L-269.29 143.61L-269.3 143.59L-269.31 143.57L-269.32 143.55L-269.33 143.52L-269.34 143.5L-269.34 143.47L-269.35 143.45L-269.35 143.42L-269.36 143.39L-269.36 143.36L-269.37 143.33L-269.37 143.29L-269.37 143.26L-269.37 143.23L-269.38 143.19L-269.38 143.16L-269.38 143.12L-269.38 143.09L-269.38 143.05L-269.38 143.01L-269.38 142.98L-269.38 142.95L-269.38 142.92L-269.38 142.88L-269.38 142.85L-269.37 142.82L-269.37 142.79L-269.37 142.76L-269.37 142.74L-269.37 142.71L-269.36 142.68L-269.36 142.65L-269.36 142.63L-269.36 142.6L-269.35 142.57L-269.35 142.55L-269.34 142.53L-269.34 142.5L-269.33 142.48L-269.33 142.45L-269.32 142.43L-269.31 142.41L-269.31 142.39L-269.3 142.37L-269.29 142.35L-269.28 142.33L-269.27 142.31L-269.26 142.29L-269.25 142.27L-269.23 142.25L-269.22 142.23L-269.21 142.21L-269.19 142.19L-269.18 142.17L-269.16 142.15L-269.15 142.13L-269.13 142.11L-269.12 142.09L-269.1 142.07L-269.08 142.05L-269.07 142.03L-269.05 142.01L-269.03 141.99L-269.01 141.97L-268.99 141.94L-268.97 141.92L-268.94 141.9L-268.92 141.87L-268.9 141.85L-268.88 141.83L-268.85 141.8L-265.55 138.77L-265.38 138.61L-265.21 138.46L-265.05 138.3L-264.89 138.15L-264.74 138L-264.6 137.85L-264.46 137.71L-264.32 137.57L-264.19 137.43L-264.07 137.3L-263.95 137.16L-263.83 137.03L-263.73 136.9L-263.62 136.78L-263.52 136.65L-263.42 136.53L-263.33 136.41L-263.24 136.29L-263.15 136.17L-263.07 136.05L-262.99 135.94L-262.91 135.82L-262.84 135.71L-262.78 135.6L-262.71 135.49L-262.65 135.39L-262.6 135.28L-262.54 135.18L-262.49 135.08L-262.45 134.98L-262.4 134.88L-262.36 134.79L-262.32 134.69L-262.29 134.6L-262.26 134.5L-262.23 134.41L-262.2 134.32L-262.18 134.23L-262.16 134.14L-262.15 134.06L-262.13 133.97L-262.11 133.89L-262.1 133.81L-262.09 133.73L-262.08 133.64L-262.07 133.56L-262.06 133.48L-262.05 133.4L-262.05 133.33L-262.04 133.25L-262.04 133.17L-262.04 133.1L-262.04 133.02L-262.05 132.95L-262.05 132.88L-262.06 132.8L-262.07 132.73L-262.08 132.66L-262.1 132.59L-262.11 132.52L-262.13 132.45L-262.16 132.38L-262.18 132.31L-262.21 132.24L-262.23 132.17L-262.26 132.11L-262.29 132.04L-262.32 131.98L-262.36 131.91L-262.4 131.85L-262.43 131.79L-262.47 131.73L-262.52 131.68L-262.56 131.62L-262.61 131.57L-262.66 131.51L-262.71 131.46L-262.76 131.41L-262.82 131.36L-262.87 131.31L-262.93 131.27L-263 131.22L-263.06 131.18L-263.12 131.14L-263.19 131.09L-263.26 131.06L-263.33 131.02L-263.41 130.98L-263.48 130.95L-263.56 130.91L-263.64 130.88L-263.72 130.85L-263.8 130.83L-263.89 130.8L-263.98 130.78L-264.07 130.76L-264.16 130.74L-264.25 130.73L-264.35 130.72L-264.44 130.7L-264.54 130.7L-264.64 130.69L-264.75 130.69L-264.85 130.69L-264.97 130.69L-265.09 130.69L-265.21 130.7L-265.32 130.7L-265.44 130.72L-265.55 130.73L-265.66 130.74L-265.77 130.76L-265.88 130.78L-265.98 130.8L-266.09 130.83L-266.19 130.85L-266.29 130.88L-266.39 130.91L-266.48 130.94L-266.57 130.98L-266.67 131.01L-266.75 131.04L-266.84 131.07L-266.93 131.11L-267.01 131.14L-267.1 131.17L-267.18 131.21L-267.26 131.24L-267.34 131.27L-267.41 131.31L-267.48 131.34L-267.56 131.38L-267.62 131.41L-267.69 131.44L-267.76 131.48L-267.82 131.51L-267.88 131.54L-267.94 131.58L-268 131.61L-268.06 131.64L-268.11 131.67L-268.17 131.7L-268.22 131.73L-268.27 131.76L-268.31 131.78L-268.36 131.81L-268.4 131.83L-268.44 131.84L-268.48 131.86L-268.52 131.88L-268.55 131.89L-268.58 131.9L-268.61 131.9L-268.64 131.91L-268.67 131.91L-268.69 131.91L-268.71 131.91L-268.72 131.91L-268.73 131.91L-268.75 131.91L-268.76 131.91L-268.77 131.9L-268.79 131.9L-268.8 131.9L-268.81 131.89L-268.82 131.89L-268.83 131.88L-268.84 131.88L-268.85 131.87L-268.86 131.86L-268.87 131.85L-268.88 131.85L-268.89 131.84L-268.91 131.83L-268.92 131.82L-268.92 131.81L-268.93 131.8L-268.94 131.78L-268.95 131.77L-268.96 131.76L-268.97 131.75L-268.97 131.73L-268.98 131.72L-268.99 131.7L-268.99 131.68L-269 131.66L-269 131.64L-269.01 131.62L-269.01 131.6L-269.02 131.58L-269.02 131.56L-269.03 131.53L-269.03 131.51L-269.04 131.48L-269.04 131.46L-269.05 131.43L-269.05 131.4L-269.05 131.37L-269.05 131.34L-269.06 131.31L-269.06 131.28L-269.06 131.25L-269.06 131.21L-269.06 131.18L-269.06 131.14L-269.06 131.11L-269.06 131.07L-269.06 131.03L-269.06 130.75L-269.06 130.73L-269.06 130.71L-269.06 130.69L-269.05 130.67L-269.05 130.66L-269.04 130.64L-269.04 130.62L-269.04 130.61L-269.03 130.59L-269.03 130.58L-269.02 130.56L-269.02 130.55L-269.01 130.53L-269 130.52L-269 130.51L-268.99 130.49L-268.99 130.48L-268.98 130.47L-268.97 130.46L-268.97 130.44L-268.96 130.43L-268.95 130.42L-268.95 130.4L-268.94 130.39L-268.93 130.38L-268.92 130.37L-268.91 130.35L-268.9 130.34L-268.89 130.32L-268.88 130.31L-268.87 130.29L-268.85 130.28L-268.84 130.26L-268.82 130.25L-268.8 130.23L-268.78 130.21L-268.76 130.19L-268.74 130.17L-268.71 130.15L-268.69 130.14L-268.66 130.12L-268.63 130.09L-268.59 130.07L-268.56 130.05L-268.52 130.03L-268.48 130L-268.43 129.98L-268.38 129.95L-268.33 129.92L-268.28 129.9L-268.23 129.87L-268.17 129.84L-268.11 129.8L-268.04 129.77L-267.98 129.74L-267.91 129.71L-267.84 129.68L-267.77 129.64L-267.7 129.61L-267.62 129.58L-267.54 129.55L-267.46 129.52L-267.38 129.49L-267.29 129.46L-267.2 129.43L-267.11 129.4L-267.02 129.37L-266.92 129.34L-266.83 129.31L-266.73 129.28L-266.63 129.26L-266.53 129.23L-266.43 129.21L-266.33 129.18L-266.22 129.16L-266.12 129.14L-266.01 129.11L-265.9 129.09L-265.79 129.07L-265.69 129.05L-265.58 129.04L-265.47 129.02L-265.35 129.01L-265.24 129L-265.13 128.99L-265.01 128.98L-264.9 128.97L-264.78 128.96L-264.67 128.96L-264.55 128.96L-264.43 128.96L-264.24 128.96L-264.05 128.96Z" id="c2EpJ1ffo3"></path><path d="M-249.49 128.99L-249.13 129.03L-248.78 129.08L-248.45 129.15L-248.13 129.24L-247.83 129.34L-247.55 129.46L-247.28 129.59L-247.02 129.73L-246.78 129.89L-246.55 130.07L-246.34 130.25L-246.14 130.46L-245.95 130.68L-245.77 130.91L-245.61 131.16L-245.46 131.42L-245.33 131.69L-245.2 131.98L-245.09 132.29L-244.99 132.6L-244.9 132.93L-244.82 133.28L-244.76 133.64L-244.7 134.01L-244.65 134.39L-244.62 134.78L-244.58 135.19L-244.56 135.61L-244.55 136.05L-244.54 136.5L-244.55 136.92L-244.56 137.33L-244.59 137.73L-244.62 138.12L-244.67 138.51L-244.72 138.88L-244.79 139.25L-244.86 139.6L-244.94 139.95L-245.04 140.28L-245.14 140.6L-245.27 140.9L-245.4 141.2L-245.55 141.48L-245.71 141.75L-245.88 142L-246.07 142.25L-246.27 142.48L-246.48 142.69L-246.71 142.89L-246.95 143.08L-247.21 143.26L-247.47 143.42L-247.76 143.56L-248.05 143.69L-248.37 143.8L-248.7 143.9L-249.05 143.97L-249.41 144.03L-249.79 144.08L-250.19 144.1L-250.6 144.11L-251 144.1L-251.38 144.08L-251.74 144.04L-252.09 143.99L-252.42 143.92L-252.74 143.84L-253.04 143.74L-253.32 143.62L-253.59 143.49L-253.84 143.35L-254.08 143.19L-254.31 143.01L-254.53 142.82L-254.73 142.62L-254.92 142.4L-255.09 142.17L-255.26 141.92L-255.41 141.66L-255.54 141.38L-255.67 141.09L-255.78 140.79L-255.88 140.47L-255.97 140.15L-256.04 139.8L-256.11 139.44L-256.17 139.07L-256.21 138.69L-256.25 138.29L-256.28 137.88L-256.31 137.46L-256.32 137.02L-256.32 136.57L-256.32 136.16L-256.3 135.75L-256.28 135.35L-256.24 134.96L-256.2 134.58L-256.15 134.21L-256.08 133.85L-256.01 133.49L-255.92 133.15L-255.83 132.81L-255.72 132.49L-255.6 132.18L-255.46 131.89L-255.32 131.61L-255.16 131.34L-254.99 131.08L-254.8 130.83L-254.6 130.6L-254.39 130.38L-254.16 130.18L-253.92 129.99L-253.66 129.82L-253.39 129.66L-253.11 129.52L-252.81 129.39L-252.5 129.27L-252.17 129.18L-251.82 129.1L-251.46 129.04L-251.08 128.99L-250.68 128.96L-250.27 128.96L-249.87 128.96L-249.49 128.99ZM-251.09 130.62L-251.41 130.68L-251.7 130.77L-251.97 130.88L-252.22 131.02L-252.44 131.18L-252.65 131.36L-252.84 131.56L-253.02 131.78L-253.18 132.02L-253.32 132.28L-253.44 132.55L-253.55 132.84L-253.65 133.14L-253.74 133.46L-253.81 133.79L-253.87 134.14L-253.91 134.5L-253.94 134.87L-253.97 135.25L-253.99 135.64L-254 136.03L-254.01 136.43L-254 136.97L-253.99 137.48L-253.96 137.96L-253.92 138.42L-253.87 138.84L-253.81 139.24L-253.74 139.61L-253.65 139.96L-253.55 140.29L-253.44 140.59L-253.32 140.87L-253.18 141.12L-253.04 141.35L-252.88 141.56L-252.7 141.75L-252.51 141.92L-252.31 142.06L-252.09 142.18L-251.86 142.28L-251.62 142.36L-251.36 142.42L-251.08 142.47L-250.79 142.49L-250.48 142.5L-250.24 142.5L-250.01 142.48L-249.79 142.45L-249.57 142.42L-249.37 142.37L-249.18 142.3L-249 142.23L-248.82 142.15L-248.66 142.05L-248.5 141.95L-248.35 141.84L-248.21 141.71L-248.08 141.58L-247.96 141.45L-247.84 141.3L-247.74 141.14L-247.64 140.98L-247.55 140.8L-247.46 140.62L-247.38 140.44L-247.31 140.24L-247.24 140.04L-247.18 139.83L-247.12 139.62L-247.08 139.4L-247.03 139.17L-246.99 138.94L-246.96 138.7L-246.93 138.46L-246.91 138.21L-246.9 137.96L-246.89 137.7L-246.88 137.44L-246.87 137.17L-246.86 136.9L-246.86 136.63L-246.86 136.27L-246.87 135.93L-246.88 135.59L-246.9 135.27L-246.92 134.96L-246.95 134.66L-246.98 134.37L-247.02 134.1L-247.06 133.83L-247.11 133.58L-247.16 133.34L-247.21 133.11L-247.27 132.9L-247.34 132.69L-247.42 132.49L-247.5 132.3L-247.59 132.13L-247.69 131.96L-247.78 131.8L-247.89 131.66L-248 131.52L-248.12 131.39L-248.24 131.28L-248.37 131.17L-248.5 131.07L-248.64 130.98L-248.79 130.9L-248.94 130.83L-249.1 130.77L-249.27 130.72L-249.43 130.67L-249.61 130.63L-249.79 130.6L-249.99 130.58L-250.18 130.57L-250.39 130.56L-250.75 130.58L-251.09 130.62Z" id="f4uhvLqhjR"></path><path d="M30.15 260.65L30.15 10.64L280.27 10.64L280.27 260.65L30.15 260.65Z" id="b1HbaP5eP4"></path><path d="M108.78 53.12L109.11 53.12L109.44 53.12L109.76 53.12L110.08 53.12L110.4 53.12L110.71 53.13L111.02 53.13L111.33 53.13L111.64 53.14L111.94 53.14L112.24 53.15L112.54 53.15L112.84 53.16L113.13 53.16L113.42 53.17L113.7 53.17L113.99 53.18L114.27 53.19L114.55 53.19L114.82 53.2L115.09 53.21L115.36 53.22L115.63 53.23L115.9 53.24L116.16 53.25L116.42 53.26L116.67 53.27L116.92 53.28L117.17 53.29L117.42 53.3L117.67 53.31L117.91 53.32L118.15 53.34L118.38 53.35L118.61 53.36L118.84 53.38L119.07 53.39L119.3 53.4L119.52 53.42L119.74 53.43L119.96 53.45L120.18 53.47L120.4 53.48L120.61 53.5L120.83 53.51L121.04 53.53L121.25 53.54L121.47 53.56L121.68 53.57L121.89 53.59L122.1 53.61L122.3 53.62L122.51 53.64L122.72 53.65L122.92 53.67L123.12 53.69L123.33 53.7L123.53 53.72L123.73 53.73L123.93 53.75L124.12 53.77L124.32 53.78L124.52 53.8L124.71 53.82L124.9 53.83L125.1 53.85L125.29 53.87L125.48 53.88L125.67 53.9L125.85 53.92L126.04 53.93L126.23 53.95L126.41 53.97L126.6 53.99L126.78 54L126.96 54.02L127.14 54.04L127.32 54.06L127.83 54.13L128.34 54.21L128.85 54.3L129.35 54.38L129.85 54.47L130.35 54.56L130.84 54.65L131.34 54.74L131.82 54.84L132.31 54.94L132.79 55.04L133.27 55.14L133.75 55.25L134.22 55.35L134.69 55.46L135.16 55.57L135.63 55.69L136.09 55.8L136.55 55.92L137 56.04L137.45 56.17L137.9 56.29L138.35 56.42L138.79 56.55L139.23 56.68L139.67 56.81L140.11 56.95L140.54 57.09L140.97 57.23L141.39 57.37L141.81 57.51L142.23 57.66L142.65 57.81L143.06 57.96L143.48 58.12L143.88 58.27L144.29 58.43L144.69 58.59L145.09 58.75L145.48 58.92L145.88 59.09L146.27 59.25L146.65 59.43L147.04 59.6L147.42 59.78L147.79 59.95L148.17 60.13L148.54 60.32L148.91 60.5L149.27 60.69L149.63 60.88L149.99 61.07L150.34 61.26L150.69 61.46L151.04 61.66L151.39 61.86L151.73 62.06L152.07 62.27L152.4 62.47L152.74 62.68L153.06 62.89L153.39 63.11L153.71 63.32L154.03 63.54L154.35 63.76L154.66 63.98L154.97 64.21L155.28 64.43L155.58 64.66L155.88 64.89L156.18 65.13L156.47 65.36L156.76 65.6L157.05 65.84L157.34 66.08L157.62 66.33L157.9 66.57L158.17 66.82L158.44 67.07L158.71 67.33L158.98 67.58L159.24 67.84L159.5 68.1L159.76 68.36L160.01 68.62L160.26 68.89L160.51 69.16L160.75 69.42L160.99 69.69L161.22 69.97L161.46 70.24L161.68 70.52L161.91 70.8L162.13 71.08L162.35 71.36L162.57 71.64L162.78 71.93L162.99 72.21L163.19 72.5L163.4 72.79L163.59 73.09L163.79 73.38L163.98 73.68L164.17 73.98L164.36 74.28L164.54 74.58L164.72 74.88L164.89 75.19L165.06 75.5L165.23 75.81L165.4 76.12L165.56 76.43L165.72 76.75L165.87 77.06L166.02 77.38L166.17 77.7L166.32 78.03L166.46 78.35L166.6 78.68L166.73 79.01L166.86 79.34L166.99 79.67L167.12 80L167.24 80.33L167.36 80.67L167.47 81.01L167.59 81.35L167.69 81.69L167.8 82.03L167.9 82.38L168 82.72L168.1 83.07L168.19 83.42L168.28 83.77L168.36 84.13L168.44 84.48L168.52 84.84L168.6 85.2L168.67 85.56L168.74 85.92L168.8 86.29L168.87 86.65L168.92 87.02L168.98 87.39L169.03 87.76L169.08 88.13L169.13 88.5L169.17 88.88L169.21 89.26L169.24 89.64L169.27 90.02L169.3 90.4L169.33 90.78L169.35 91.17L169.37 91.56L169.38 91.95L169.39 92.34L169.4 92.73L169.41 93.12L169.41 93.52L169.41 93.9L169.4 94.29L169.39 94.67L169.38 95.04L169.37 95.42L169.35 95.8L169.33 96.17L169.31 96.54L169.29 96.91L169.26 97.27L169.23 97.64L169.19 98L169.15 98.36L169.11 98.72L169.07 99.07L169.02 99.43L168.97 99.78L168.92 100.13L168.87 100.48L168.81 100.82L168.75 101.17L168.68 101.51L168.62 101.85L168.54 102.19L168.47 102.53L168.4 102.86L168.32 103.19L168.23 103.52L168.15 103.85L168.06 104.18L167.97 104.5L167.87 104.82L167.78 105.14L167.68 105.46L167.57 105.78L167.47 106.09L167.36 106.4L167.24 106.71L167.13 107.02L167.01 107.33L166.89 107.63L166.77 107.93L166.64 108.23L166.51 108.53L166.38 108.83L166.24 109.12L166.1 109.42L165.96 109.71L165.82 110L165.68 110.29L165.53 110.57L165.38 110.86L165.22 111.14L165.07 111.42L164.91 111.7L164.75 111.98L164.59 112.25L164.42 112.53L164.25 112.8L164.08 113.07L163.9 113.34L163.73 113.61L163.55 113.87L163.37 114.13L163.18 114.39L162.99 114.65L162.8 114.91L162.61 115.17L162.42 115.42L162.22 115.67L162.02 115.93L161.81 116.17L161.61 116.42L161.4 116.67L161.19 116.91L160.97 117.15L160.76 117.39L160.54 117.63L160.32 117.87L160.09 118.1L159.86 118.34L159.63 118.57L159.4 118.8L159.17 119.03L158.93 119.25L158.69 119.48L158.45 119.7L158.21 119.93L157.96 120.15L157.72 120.37L157.47 120.59L157.21 120.8L156.96 121.02L156.7 121.23L156.44 121.44L156.18 121.65L155.92 121.86L155.66 122.06L155.39 122.27L155.12 122.47L154.85 122.68L154.57 122.88L154.3 123.07L154.02 123.27L153.74 123.47L153.45 123.66L153.17 123.85L152.88 124.05L152.59 124.23L152.3 124.42L152 124.61L151.71 124.79L151.41 124.98L151.11 125.16L150.8 125.34L150.5 125.52L150.19 125.69L149.88 125.87L149.56 126.04L149.25 126.22L148.93 126.39L148.62 126.56L148.3 126.73L147.97 126.89L147.65 127.06L147.33 127.23L147 127.39L146.67 127.55L146.34 127.71L146 127.87L145.67 128.03L145.33 128.19L144.99 128.34L144.65 128.5L144.31 128.65L143.97 128.8L143.62 128.95L143.27 129.1L142.92 129.25L142.57 129.39L142.21 129.54L141.86 129.68L141.5 129.82L141.14 129.96L140.78 130.1L140.42 130.24L140.05 130.38L139.68 130.51L139.31 130.64L138.94 130.78L138.57 130.91L138.19 131.04L137.82 131.16L137.44 131.29L137.06 131.42L136.68 131.54L136.29 131.66L135.91 131.78L135.52 131.9L135.13 132.02L135.35 132.11L135.56 132.19L135.78 132.28L136 132.36L136.21 132.45L136.43 132.54L136.64 132.63L136.85 132.72L137.06 132.82L137.27 132.91L137.48 133L137.69 133.1L137.9 133.2L138.1 133.3L138.31 133.39L138.51 133.5L138.71 133.6L138.91 133.7L139.11 133.8L139.31 133.91L139.51 134.01L139.71 134.12L139.91 134.23L140.1 134.34L140.3 134.45L140.49 134.56L140.68 134.67L140.87 134.79L141.06 134.9L141.25 135.02L141.44 135.13L141.63 135.25L141.81 135.37L142 135.49L142.18 135.61L142.36 135.74L142.54 135.86L142.73 135.98L142.91 136.11L143.08 136.24L143.26 136.36L143.44 136.49L143.62 136.62L143.79 136.76L143.97 136.89L144.14 137.02L144.32 137.16L144.49 137.3L144.66 137.43L144.84 137.57L145.01 137.71L145.18 137.85L145.35 138L145.52 138.14L145.69 138.29L145.86 138.43L146.03 138.58L146.2 138.73L146.36 138.88L146.53 139.03L146.7 139.19L146.86 139.34L147.03 139.5L147.19 139.65L147.35 139.81L147.52 139.97L147.68 140.13L147.84 140.29L148 140.46L148.16 140.62L148.32 140.79L148.48 140.95L148.64 141.12L148.8 141.29L148.95 141.46L149.11 141.63L149.27 141.81L149.42 141.98L149.58 142.16L149.73 142.33L149.89 142.51L150.04 142.69L150.19 142.87L150.35 143.06L150.5 143.24L150.65 143.43L150.8 143.61L150.95 143.8L151.1 143.99L151.26 144.18L151.41 144.37L151.55 144.56L151.7 144.76L151.85 144.95L152 145.15L152.15 145.35L152.3 145.55L152.44 145.75L152.59 145.95L152.73 146.16L152.88 146.36L153.03 146.57L153.17 146.78L153.31 146.98L153.46 147.19L153.6 147.41L153.74 147.62L153.89 147.83L154.03 148.05L154.17 148.27L154.31 148.48L154.45 148.7L154.59 148.92L154.73 149.15L154.87 149.37L155.01 149.59L155.15 149.82L155.29 150.05L155.43 150.28L155.57 150.51L155.7 150.74L155.84 150.97L155.98 151.21L156.11 151.45L156.25 151.68L156.39 151.92L156.52 152.16L156.66 152.41L156.8 152.65L156.93 152.9L157.07 153.14L157.21 153.39L157.34 153.64L157.48 153.89L157.62 154.15L157.75 154.4L157.89 154.66L158.03 154.91L158.17 155.17L158.3 155.43L158.44 155.69L158.58 155.96L158.71 156.22L158.85 156.49L158.99 156.75L159.13 157.02L159.26 157.29L159.4 157.56L159.54 157.84L159.67 158.11L159.81 158.39L159.95 158.66L160.09 158.94L160.22 159.22L160.36 159.51L160.5 159.79L160.64 160.07L160.77 160.36L160.91 160.65L161.05 160.94L176.96 194.71L177.05 194.92L177.15 195.13L177.24 195.34L177.33 195.54L177.42 195.74L177.5 195.93L177.59 196.13L177.67 196.31L177.75 196.5L177.83 196.68L177.91 196.86L177.99 197.04L178.06 197.21L178.13 197.38L178.2 197.55L178.27 197.71L178.34 197.88L178.41 198.03L178.47 198.19L178.53 198.34L178.59 198.49L178.65 198.63L178.71 198.77L178.77 198.91L178.82 199.05L178.87 199.18L178.92 199.31L178.97 199.43L179.02 199.55L179.06 199.67L179.11 199.79L179.15 199.9L179.19 200.01L179.23 200.12L179.26 200.22L179.3 200.32L179.33 200.42L179.36 200.51L179.39 200.6L179.42 200.69L179.45 200.78L179.47 200.86L179.5 200.94L179.52 201.03L179.55 201.11L179.57 201.19L179.59 201.27L179.62 201.35L179.64 201.43L179.66 201.5L179.68 201.58L179.7 201.65L179.72 201.73L179.74 201.8L179.75 201.87L179.77 201.94L179.79 202.01L179.8 202.08L179.82 202.15L179.83 202.22L179.84 202.29L179.86 202.35L179.87 202.42L179.88 202.48L179.89 202.54L179.9 202.6L179.91 202.66L179.92 202.72L179.93 202.78L179.93 202.84L179.94 202.9L179.95 202.95L179.95 203.01L179.95 203.06L179.96 203.11L179.96 203.16L179.96 203.22L179.97 203.26L179.97 203.31L179.97 203.36L179.97 203.41L179.97 203.46L179.96 203.5L179.96 203.55L179.96 203.59L179.96 203.64L179.95 203.69L179.95 203.73L179.95 203.78L179.94 203.82L179.94 203.86L179.93 203.91L179.92 203.95L179.92 204L179.91 204.04L179.9 204.08L179.89 204.12L179.88 204.17L179.88 204.21L179.87 204.25L179.86 204.29L179.84 204.33L179.83 204.37L179.82 204.41L179.81 204.45L179.8 204.49L179.78 204.53L179.77 204.57L179.75 204.61L179.74 204.65L179.72 204.69L179.71 204.73L179.69 204.76L179.67 204.8L179.66 204.84L179.64 204.88L179.62 204.91L179.6 204.95L179.58 204.99L179.56 205.02L179.54 205.06L179.52 205.09L179.49 205.13L179.47 205.16L179.44 205.2L179.42 205.23L179.39 205.26L179.36 205.3L179.33 205.33L179.29 205.36L179.26 205.39L179.23 205.43L179.19 205.46L179.15 205.49L179.11 205.52L179.07 205.55L179.03 205.58L178.99 205.61L178.95 205.64L178.91 205.67L178.86 205.7L178.81 205.73L178.77 205.76L178.72 205.79L178.67 205.82L178.62 205.84L178.56 205.87L178.51 205.9L178.46 205.93L178.4 205.95L178.34 205.98L178.28 206.01L178.23 206.03L178.16 206.06L178.1 206.08L178.04 206.11L177.98 206.13L177.91 206.16L177.84 206.18L177.78 206.21L177.71 206.23L177.64 206.25L177.57 206.27L177.49 206.3L177.42 206.32L177.34 206.34L177.27 206.36L177.19 206.38L177.11 206.4L177.03 206.43L176.94 206.45L176.86 206.47L176.77 206.49L176.69 206.51L176.6 206.53L176.51 206.54L176.42 206.56L176.32 206.58L176.23 206.6L176.13 206.62L176.04 206.64L175.94 206.65L175.84 206.67L175.74 206.69L175.64 206.7L175.53 206.72L175.43 206.74L175.32 206.75L175.21 206.77L175.1 206.78L174.99 206.8L174.88 206.81L174.77 206.83L174.65 206.84L174.54 206.85L174.42 206.87L174.3 206.88L174.18 206.89L174.06 206.9L173.93 206.91L173.81 206.93L173.68 206.94L173.55 206.95L173.42 206.96L173.29 206.97L173.16 206.98L173.02 206.99L172.88 207L172.74 207.01L172.6 207.02L172.45 207.03L172.31 207.03L172.16 207.04L172.01 207.05L171.85 207.06L171.7 207.06L171.54 207.07L171.38 207.08L171.22 207.08L171.06 207.09L170.89 207.1L170.72 207.1L170.55 207.11L170.38 207.11L170.21 207.12L170.03 207.12L169.85 207.12L169.67 207.13L169.49 207.13L169.3 207.13L169.12 207.14L168.93 207.14L168.74 207.14L168.55 207.14L168.35 207.15L168.16 207.15L167.96 207.15L167.76 207.15L167.55 207.15L167.35 207.15L167.17 207.15L167 207.15L166.82 207.15L166.65 207.15L166.48 207.15L166.31 207.14L166.14 207.14L165.98 207.14L165.81 207.14L165.65 207.13L165.49 207.13L165.33 207.13L165.17 207.12L165.02 207.12L164.86 207.12L164.71 207.11L164.56 207.11L164.41 207.1L164.26 207.1L164.12 207.09L163.97 207.08L163.83 207.08L163.69 207.07L163.55 207.06L163.41 207.06L163.27 207.05L163.14 207.04L163 207.03L162.87 207.03L162.74 207.02L162.61 207.01L162.49 207L162.36 206.99L162.24 206.98L162.11 206.97L161.99 206.96L161.88 206.95L161.76 206.94L161.64 206.93L161.53 206.91L161.42 206.9L161.3 206.89L161.19 206.88L161.08 206.86L160.98 206.85L160.87 206.84L160.76 206.82L160.66 206.81L160.55 206.79L160.45 206.78L160.35 206.76L160.25 206.75L160.15 206.73L160.05 206.71L159.96 206.7L159.86 206.68L159.77 206.66L159.67 206.64L159.58 206.62L159.49 206.6L159.4 206.58L159.31 206.56L159.22 206.54L159.13 206.52L159.05 206.5L158.96 206.48L158.88 206.46L158.8 206.44L158.72 206.42L158.64 206.39L158.56 206.37L158.48 206.35L158.4 206.32L158.33 206.3L158.25 206.28L158.18 206.25L158.1 206.23L158.03 206.2L157.96 206.17L157.89 206.15L157.82 206.12L157.76 206.09L157.69 206.07L157.62 206.04L157.56 206.01L157.49 205.98L157.43 205.95L157.37 205.92L157.31 205.89L157.25 205.85L157.19 205.82L157.13 205.79L157.07 205.75L157.01 205.72L156.95 205.69L156.89 205.65L156.84 205.62L156.78 205.58L156.73 205.54L156.68 205.51L156.62 205.47L156.57 205.43L156.52 205.39L156.47 205.36L156.42 205.32L156.37 205.28L156.32 205.24L156.28 205.19L156.23 205.15L156.18 205.11L156.14 205.07L156.09 205.03L156.05 204.98L156.01 204.94L155.97 204.89L155.92 204.85L155.88 204.8L155.84 204.76L155.81 204.71L155.77 204.66L155.73 204.61L155.69 204.57L155.66 204.52L155.62 204.47L155.58 204.42L155.55 204.37L155.51 204.32L155.47 204.27L155.44 204.21L155.4 204.16L155.37 204.11L155.33 204.05L155.3 204L155.26 203.94L155.23 203.89L155.2 203.83L155.16 203.77L155.13 203.72L155.1 203.66L155.06 203.6L155.03 203.54L155 203.48L154.97 203.42L154.94 203.36L154.91 203.29L154.87 203.23L154.84 203.17L154.81 203.11L154.78 203.04L154.75 202.98L154.72 202.91L154.69 202.85L154.66 202.78L154.63 202.71L154.61 202.64L154.58 202.58L154.55 202.51L154.52 202.44L154.49 202.37L154.46 202.3L138.15 166.15L138.01 165.84L137.86 165.54L137.72 165.23L137.57 164.93L137.43 164.63L137.28 164.33L137.14 164.03L136.99 163.73L136.84 163.43L136.7 163.13L136.55 162.84L136.4 162.55L136.26 162.25L136.11 161.96L135.96 161.67L135.81 161.38L135.66 161.1L135.52 160.81L135.37 160.53L135.22 160.24L135.07 159.96L134.92 159.68L134.77 159.4L134.62 159.12L134.47 158.84L134.32 158.57L134.17 158.29L134.02 158.02L133.86 157.75L133.71 157.48L133.56 157.21L133.41 156.94L133.26 156.67L133.1 156.41L132.95 156.14L132.8 155.88L132.64 155.62L132.49 155.36L132.34 155.1L132.18 154.84L132.03 154.58L131.87 154.33L131.71 154.07L131.55 153.82L131.39 153.57L131.23 153.32L131.07 153.08L130.9 152.83L130.74 152.59L130.57 152.35L130.4 152.11L130.23 151.87L130.05 151.64L129.88 151.4L129.71 151.17L129.53 150.94L129.35 150.71L129.17 150.49L128.99 150.26L128.81 150.04L128.62 149.82L128.44 149.6L128.25 149.38L128.06 149.17L127.87 148.95L127.68 148.74L127.49 148.53L127.29 148.32L127.1 148.11L126.9 147.91L126.7 147.71L126.5 147.5L126.3 147.3L126.1 147.11L125.89 146.91L125.69 146.72L125.48 146.52L125.27 146.33L125.06 146.14L124.85 145.96L124.64 145.77L124.42 145.59L124.2 145.4L123.98 145.22L123.76 145.05L123.54 144.87L123.32 144.7L123.09 144.53L122.86 144.36L122.63 144.19L122.4 144.02L122.16 143.86L121.93 143.7L121.69 143.54L121.45 143.38L121.21 143.23L120.96 143.08L120.72 142.93L120.47 142.78L120.22 142.63L119.97 142.49L119.72 142.35L119.46 142.21L119.21 142.07L118.95 141.93L118.69 141.8L118.42 141.67L118.16 141.54L117.89 141.41L117.62 141.28L117.35 141.16L117.08 141.04L116.81 140.92L116.53 140.8L116.25 140.68L115.97 140.57L115.69 140.46L115.41 140.35L115.12 140.24L114.84 140.14L114.55 140.04L114.26 139.94L113.96 139.84L113.66 139.75L113.36 139.65L113.06 139.57L112.75 139.48L112.44 139.4L112.13 139.31L111.81 139.24L111.49 139.16L111.17 139.09L110.84 139.01L110.52 138.95L110.19 138.88L109.85 138.82L109.52 138.76L109.18 138.7L108.84 138.64L108.49 138.59L108.14 138.54L107.79 138.49L107.44 138.45L107.08 138.4L106.72 138.36L106.36 138.33L106 138.29L105.63 138.26L105.26 138.23L104.88 138.2L104.51 138.18L104.13 138.15L103.74 138.14L103.36 138.12L102.97 138.1L102.58 138.09L102.18 138.08L101.79 138.08L101.39 138.07L100.98 138.07L85.22 138.07L85.22 203.36L85.22 203.41L85.22 203.46L85.22 203.5L85.22 203.55L85.21 203.59L85.21 203.64L85.2 203.69L85.2 203.73L85.19 203.78L85.18 203.82L85.17 203.86L85.17 203.91L85.16 203.95L85.14 204L85.13 204.04L85.12 204.08L85.11 204.12L85.09 204.17L85.08 204.21L85.06 204.25L85.05 204.29L85.03 204.33L85.01 204.37L85 204.41L84.98 204.45L84.96 204.49L84.94 204.53L84.92 204.57L84.89 204.61L84.87 204.65L84.85 204.69L84.82 204.73L84.8 204.76L84.77 204.8L84.75 204.84L84.72 204.88L84.69 204.91L84.66 204.95L84.63 204.99L84.6 205.02L84.57 205.06L84.54 205.09L84.51 205.13L84.47 205.16L84.44 205.2L84.4 205.23L84.36 205.26L84.33 205.29L84.29 205.33L84.25 205.36L84.21 205.39L84.17 205.42L84.13 205.45L84.08 205.48L84.04 205.51L84 205.54L83.95 205.57L83.9 205.6L83.86 205.63L83.81 205.66L83.76 205.69L83.71 205.71L83.66 205.74L83.61 205.77L83.56 205.79L83.51 205.82L83.45 205.85L83.4 205.87L83.34 205.9L83.29 205.92L83.23 205.95L83.17 205.97L83.11 205.99L83.06 206.02L83 206.04L82.93 206.06L82.87 206.08L82.81 206.11L82.75 206.13L82.68 206.15L82.61 206.17L82.55 206.19L82.48 206.21L82.41 206.23L82.34 206.25L82.27 206.27L82.19 206.29L82.12 206.31L82.04 206.33L81.97 206.35L81.89 206.37L81.81 206.39L81.73 206.4L81.65 206.42L81.57 206.44L81.48 206.46L81.4 206.48L81.31 206.5L81.22 206.52L81.14 206.53L81.05 206.55L80.95 206.57L80.86 206.59L80.77 206.6L80.68 206.62L80.58 206.64L80.48 206.65L80.38 206.67L80.28 206.69L80.18 206.7L80.08 206.72L79.98 206.74L79.87 206.75L79.77 206.77L79.66 206.78L79.55 206.8L79.44 206.81L79.33 206.83L79.22 206.84L79.11 206.86L79 206.87L78.88 206.89L78.76 206.9L78.65 206.91L78.53 206.93L78.4 206.94L78.28 206.95L78.16 206.96L78.03 206.97L77.91 206.98L77.78 207L77.65 207.01L77.52 207.02L77.38 207.03L77.25 207.04L77.11 207.04L76.98 207.05L76.84 207.06L76.7 207.07L76.56 207.08L76.41 207.08L76.27 207.09L76.12 207.1L75.98 207.1L75.83 207.11L75.68 207.11L75.53 207.12L75.37 207.12L75.22 207.13L75.06 207.13L74.91 207.13L74.75 207.14L74.59 207.14L74.42 207.14L74.26 207.15L74.1 207.15L73.93 207.15L73.76 207.15L73.6 207.15L73.43 207.15L73.25 207.15L73.08 207.15L72.92 207.15L72.75 207.15L72.58 207.15L72.42 207.14L72.26 207.14L72.1 207.14L71.94 207.13L71.78 207.13L71.62 207.13L71.47 207.12L71.32 207.12L71.16 207.11L71.01 207.11L70.86 207.1L70.72 207.1L70.57 207.09L70.43 207.08L70.28 207.08L70.14 207.07L70 207.06L69.86 207.05L69.73 207.04L69.59 207.04L69.46 207.03L69.32 207.02L69.19 207.01L69.06 207L68.93 206.98L68.81 206.97L68.68 206.96L68.56 206.95L68.44 206.94L68.31 206.93L68.19 206.91L68.08 206.9L67.96 206.89L67.84 206.87L67.73 206.86L67.62 206.84L67.51 206.83L67.39 206.81L67.29 206.8L67.18 206.78L67.07 206.77L66.97 206.75L66.86 206.74L66.76 206.72L66.65 206.7L66.55 206.69L66.45 206.67L66.35 206.65L66.26 206.64L66.16 206.62L66.06 206.6L65.97 206.59L65.87 206.57L65.78 206.55L65.69 206.53L65.6 206.52L65.51 206.5L65.42 206.48L65.34 206.46L65.25 206.44L65.17 206.42L65.08 206.4L65 206.39L64.92 206.37L64.84 206.35L64.76 206.33L64.68 206.31L64.6 206.29L64.53 206.27L64.45 206.25L64.38 206.23L64.31 206.21L64.24 206.19L64.17 206.17L64.1 206.15L64.03 206.13L63.96 206.11L63.9 206.08L63.83 206.06L63.77 206.04L63.71 206.02L63.65 205.99L63.58 205.97L63.52 205.95L63.47 205.92L63.41 205.9L63.35 205.87L63.3 205.85L63.24 205.82L63.19 205.79L63.14 205.77L63.08 205.74L63.03 205.71L62.98 205.69L62.94 205.66L62.89 205.63L62.84 205.6L62.8 205.57L62.75 205.54L62.71 205.51L62.67 205.48L62.62 205.45L62.58 205.42L62.54 205.39L62.51 205.36L62.47 205.33L62.43 205.29L62.4 205.26L62.36 205.23L62.33 205.2L62.3 205.16L62.27 205.13L62.23 205.09L62.21 205.06L62.18 205.02L62.15 204.99L62.12 204.95L62.1 204.91L62.07 204.88L62.05 204.84L62.03 204.8L62 204.76L61.98 204.73L61.96 204.69L61.94 204.65L61.92 204.61L61.9 204.57L61.88 204.53L61.86 204.49L61.85 204.45L61.83 204.41L61.81 204.37L61.8 204.33L61.78 204.29L61.77 204.25L61.75 204.21L61.74 204.17L61.73 204.12L61.72 204.08L61.71 204.04L61.7 204L61.69 203.95L61.68 203.91L61.67 203.86L61.66 203.82L61.66 203.78L61.65 203.73L61.65 203.69L61.64 203.64L61.64 203.59L61.63 203.55L61.63 203.5L61.63 203.46L61.63 203.41L61.63 203.36L61.63 61.41L61.63 61.18L61.64 60.95L61.64 60.73L61.66 60.51L61.67 60.29L61.69 60.08L61.72 59.87L61.74 59.67L61.77 59.47L61.81 59.27L61.84 59.08L61.88 58.88L61.93 58.7L61.97 58.51L62.03 58.33L62.08 58.15L62.14 57.98L62.2 57.81L62.26 57.64L62.33 57.48L62.41 57.32L62.48 57.17L62.56 57.01L62.64 56.86L62.73 56.72L62.82 56.57L62.91 56.44L63.01 56.3L63.11 56.17L63.21 56.04L63.32 55.92L63.43 55.79L63.54 55.68L63.66 55.56L63.78 55.45L63.91 55.34L64.03 55.24L64.16 55.14L64.3 55.04L64.44 54.95L64.58 54.86L64.72 54.77L64.86 54.68L65 54.6L65.15 54.52L65.29 54.44L65.43 54.36L65.58 54.29L65.72 54.22L65.86 54.15L66.01 54.08L66.15 54.01L66.3 53.95L66.45 53.89L66.59 53.83L66.74 53.77L66.89 53.72L67.04 53.67L67.18 53.62L67.33 53.57L67.48 53.53L67.63 53.49L67.78 53.45L67.93 53.41L68.08 53.37L68.24 53.34L68.39 53.31L68.54 53.28L68.69 53.25L68.85 53.23L69 53.21L69.15 53.19L69.31 53.17L69.46 53.16L69.62 53.14L69.77 53.13L69.93 53.13L70.09 53.12L70.24 53.12L70.4 53.12L108.12 53.12L108.45 53.12L108.78 53.12ZM85.22 121.6L108.25 121.6L108.73 121.6L109.2 121.59L109.67 121.59L110.14 121.58L110.6 121.57L111.06 121.55L111.52 121.53L111.97 121.52L112.42 121.49L112.87 121.47L113.31 121.44L113.75 121.41L114.19 121.38L114.62 121.35L115.05 121.31L115.47 121.27L115.9 121.23L116.32 121.18L116.73 121.13L117.15 121.08L117.56 121.03L117.96 120.98L118.37 120.92L118.77 120.86L119.16 120.79L119.56 120.73L119.95 120.66L120.33 120.59L120.72 120.52L121.1 120.44L121.47 120.36L121.85 120.28L122.22 120.2L122.58 120.11L122.95 120.02L123.31 119.93L123.66 119.84L124.02 119.74L124.37 119.64L124.71 119.54L125.06 119.44L125.4 119.34L125.73 119.23L126.07 119.12L126.4 119.01L126.73 118.89L127.05 118.78L127.38 118.66L127.7 118.54L128.01 118.42L128.33 118.3L128.64 118.17L128.95 118.04L129.25 117.92L129.55 117.78L129.85 117.65L130.15 117.51L130.44 117.38L130.73 117.24L131.02 117.1L131.3 116.95L131.58 116.81L131.86 116.66L132.14 116.51L132.41 116.36L132.68 116.2L132.94 116.05L133.21 115.89L133.47 115.73L133.73 115.57L133.98 115.4L134.23 115.24L134.48 115.07L134.73 114.9L134.97 114.73L135.21 114.55L135.45 114.38L135.68 114.2L135.91 114.02L136.14 113.84L136.36 113.65L136.58 113.47L136.8 113.28L137.02 113.09L137.23 112.9L137.44 112.71L137.64 112.52L137.84 112.32L138.04 112.13L138.24 111.93L138.43 111.73L138.62 111.53L138.81 111.33L138.99 111.12L139.17 110.91L139.35 110.71L139.52 110.5L139.69 110.29L139.86 110.07L140.02 109.86L140.18 109.64L140.34 109.42L140.5 109.2L140.65 108.98L140.8 108.76L140.94 108.54L141.08 108.31L141.22 108.08L141.36 107.85L141.49 107.62L141.62 107.39L141.75 107.15L141.87 106.92L141.99 106.68L142.11 106.44L142.22 106.2L142.33 105.96L142.44 105.71L142.54 105.47L142.64 105.23L142.74 104.98L142.84 104.73L142.93 104.48L143.02 104.23L143.11 103.98L143.2 103.73L143.28 103.48L143.36 103.22L143.44 102.97L143.51 102.71L143.58 102.45L143.65 102.19L143.71 101.93L143.78 101.67L143.84 101.41L143.9 101.15L143.95 100.88L144 100.62L144.05 100.35L144.1 100.08L144.14 99.81L144.18 99.54L144.22 99.27L144.25 99L144.28 98.73L144.31 98.45L144.34 98.18L144.36 97.9L144.38 97.62L144.4 97.34L144.42 97.06L144.43 96.78L144.44 96.5L144.45 96.22L144.45 95.93L144.45 95.65L144.45 95.19L144.44 94.73L144.43 94.28L144.4 93.83L144.38 93.38L144.34 92.94L144.3 92.51L144.26 92.07L144.21 91.64L144.15 91.21L144.08 90.79L144.01 90.37L143.94 89.95L143.85 89.54L143.76 89.13L143.67 88.73L143.57 88.33L143.46 87.93L143.35 87.54L143.23 87.15L143.1 86.76L142.97 86.38L142.83 86L142.69 85.62L142.54 85.25L142.38 84.88L142.22 84.52L142.05 84.15L141.88 83.8L141.7 83.44L141.51 83.09L141.32 82.75L141.12 82.4L140.91 82.06L140.7 81.73L140.48 81.4L140.26 81.07L140.03 80.75L139.79 80.42L139.55 80.11L139.3 79.8L139.04 79.49L138.77 79.19L138.49 78.89L138.21 78.59L137.92 78.3L137.62 78.02L137.31 77.74L136.99 77.47L136.66 77.19L136.33 76.93L135.99 76.67L135.64 76.41L135.28 76.16L134.91 75.91L134.53 75.67L134.15 75.43L133.76 75.2L133.35 74.97L132.95 74.74L132.53 74.52L132.1 74.31L131.67 74.09L131.23 73.89L130.78 73.69L130.32 73.49L129.85 73.3L129.37 73.11L128.89 72.93L128.4 72.75L127.9 72.57L127.39 72.4L126.87 72.24L126.35 72.08L125.81 71.92L125.27 71.77L124.72 71.62L124.16 71.48L123.99 71.44L123.81 71.4L123.63 71.36L123.45 71.32L123.27 71.28L123.08 71.24L122.9 71.2L122.72 71.16L122.53 71.12L122.34 71.09L122.15 71.05L121.97 71.02L121.77 70.98L121.58 70.95L121.39 70.91L121.2 70.88L121 70.85L120.81 70.82L120.61 70.78L120.41 70.75L120.21 70.72L120.01 70.7L119.81 70.67L119.6 70.64L119.4 70.61L119.19 70.59L118.99 70.56L118.78 70.53L118.57 70.51L118.36 70.49L118.15 70.46L117.93 70.44L117.72 70.42L117.5 70.4L117.29 70.38L117.07 70.36L116.85 70.34L116.63 70.32L116.41 70.3L116.19 70.28L115.96 70.26L115.73 70.24L115.5 70.23L115.26 70.21L115.02 70.2L114.77 70.18L114.53 70.17L114.28 70.15L114.02 70.14L113.76 70.12L113.5 70.11L113.23 70.1L112.97 70.09L112.69 70.07L112.42 70.06L112.14 70.05L111.85 70.04L111.57 70.03L111.28 70.02L110.98 70.01L110.69 70.01L110.39 70L110.08 69.99L109.77 69.98L109.46 69.98L109.15 69.97L108.83 69.97L108.51 69.96L108.18 69.96L107.85 69.95L107.52 69.95L107.18 69.95L106.85 69.94L106.5 69.94L106.16 69.94L105.81 69.94L105.45 69.94L105.09 69.94L85.22 69.94L85.22 121.6Z" id="dis7qIBV3"></path><path d="M249.01 162.17L249.07 162.17L249.13 162.17L249.19 162.17L249.25 162.17L249.31 162.17L249.37 162.17L249.43 162.17L249.48 162.17L249.54 162.17L249.6 162.17L249.65 162.17L249.71 162.17L249.76 162.17L249.81 162.17L249.87 162.17L249.92 162.18L249.97 162.18L250.02 162.18L250.07 162.18L250.12 162.18L250.17 162.18L250.22 162.18L250.26 162.18L250.31 162.19L250.36 162.19L250.4 162.19L250.45 162.19L250.49 162.19L250.54 162.19L250.58 162.2L250.62 162.2L250.67 162.2L250.71 162.2L250.75 162.2L250.79 162.2L250.83 162.21L250.87 162.21L250.9 162.21L250.94 162.21L250.98 162.22L251.02 162.22L251.06 162.22L251.09 162.23L251.13 162.23L251.16 162.23L251.2 162.24L251.23 162.24L251.27 162.24L251.3 162.25L251.34 162.25L251.37 162.26L251.4 162.26L251.44 162.27L251.47 162.27L251.5 162.28L251.53 162.28L251.56 162.29L251.59 162.29L251.62 162.3L251.65 162.3L251.68 162.31L251.71 162.32L251.74 162.32L251.77 162.33L251.79 162.34L251.82 162.34L251.85 162.35L251.87 162.36L251.9 162.37L251.93 162.37L251.95 162.38L251.98 162.39L252 162.4L252.02 162.4L252.05 162.41L252.07 162.42L252.09 162.43L252.12 162.44L252.14 162.45L252.16 162.46L252.18 162.47L252.2 162.48L252.22 162.49L252.25 162.49L252.27 162.5L252.29 162.51L252.31 162.52L252.33 162.53L252.34 162.54L252.36 162.55L252.38 162.56L252.4 162.57L252.42 162.58L252.43 162.59L252.45 162.6L252.47 162.61L252.48 162.62L252.5 162.63L252.52 162.64L252.53 162.65L252.55 162.66L252.56 162.68L252.58 162.69L252.59 162.7L252.6 162.71L252.62 162.72L252.63 162.73L252.64 162.74L252.65 162.75L252.67 162.76L252.68 162.77L252.69 162.78L252.7 162.79L252.71 162.8L252.72 162.82L252.73 162.83L252.74 162.84L252.76 162.86L252.77 162.87L252.78 162.88L252.78 162.9L252.79 162.91L252.8 162.92L252.81 162.93L252.82 162.95L252.82 162.96L252.83 162.97L252.84 162.99L252.85 163L252.85 163.02L252.86 163.03L252.86 163.05L252.87 163.06L252.88 163.08L252.88 163.09L252.89 163.11L252.89 163.12L252.9 163.14L252.9 163.16L252.91 163.17L252.91 163.19L252.91 163.21L252.92 163.22L252.92 163.24L252.92 163.26L252.93 163.28L252.93 163.29L252.93 163.31L252.93 163.33L252.93 163.35L252.94 163.37L252.94 163.39L252.94 163.41L252.94 163.43L252.94 163.45L252.94 163.47L252.94 163.49L252.94 163.5L252.94 163.52L252.94 163.53L252.94 163.55L252.94 163.57L252.94 163.58L252.94 163.6L252.94 163.62L252.94 163.64L252.93 163.65L252.93 163.67L252.93 163.69L252.93 163.71L252.93 163.73L252.93 163.74L252.92 163.76L252.92 163.78L252.92 163.8L252.92 163.82L252.91 163.84L252.91 163.86L252.91 163.88L252.91 163.9L252.9 163.92L252.9 163.94L252.9 163.96L252.89 163.98L252.89 164L252.89 164.02L252.88 164.04L252.88 164.06L252.87 164.08L252.87 164.11L252.86 164.13L252.86 164.15L252.86 164.17L252.85 164.19L252.85 164.21L252.84 164.24L252.84 164.26L252.83 164.28L252.82 164.31L252.82 164.33L252.81 164.35L252.81 164.38L252.8 164.4L252.79 164.43L252.79 164.45L252.78 164.48L252.77 164.5L252.76 164.53L252.76 164.55L252.75 164.58L252.74 164.61L252.73 164.63L252.72 164.66L252.72 164.69L252.71 164.72L252.7 164.74L252.69 164.77L252.68 164.8L252.67 164.83L252.66 164.86L252.65 164.89L252.64 164.92L252.63 164.95L252.62 164.98L252.61 165.01L252.6 165.04L252.59 165.07L252.58 165.1L252.56 165.13L252.55 165.17L252.54 165.2L252.53 165.23L252.52 165.26L252.5 165.3L252.49 165.33L252.48 165.36L252.47 165.4L238.51 204.31L238.5 204.33L238.49 204.36L238.49 204.38L238.48 204.4L238.47 204.43L238.46 204.45L238.45 204.48L238.44 204.5L238.43 204.52L238.42 204.55L238.41 204.57L238.4 204.59L238.39 204.61L238.38 204.64L238.36 204.66L238.35 204.68L238.34 204.7L238.33 204.72L238.32 204.74L238.3 204.76L238.29 204.78L238.28 204.8L238.26 204.82L238.25 204.84L238.24 204.86L238.22 204.88L238.21 204.9L238.19 204.92L238.18 204.94L238.16 204.96L238.15 204.97L238.13 204.99L238.12 205.01L238.1 205.03L238.09 205.04L238.07 205.06L238.05 205.08L238.04 205.09L238.02 205.11L238 205.13L237.98 205.14L237.97 205.16L237.95 205.17L237.93 205.19L237.91 205.2L237.89 205.22L237.88 205.23L237.86 205.25L237.84 205.26L237.82 205.28L237.8 205.29L237.78 205.31L237.75 205.32L237.73 205.33L237.71 205.35L237.69 205.36L237.67 205.37L237.64 205.39L237.62 205.4L237.6 205.41L237.57 205.42L237.55 205.44L237.52 205.45L237.5 205.46L237.47 205.47L237.45 205.48L237.42 205.5L237.4 205.51L237.37 205.52L237.34 205.53L237.31 205.54L237.29 205.55L237.26 205.56L237.23 205.57L237.2 205.58L237.17 205.59L237.14 205.6L237.11 205.61L237.08 205.62L237.05 205.63L237.02 205.64L236.99 205.64L236.96 205.65L236.93 205.66L236.9 205.67L236.86 205.68L236.83 205.68L236.8 205.69L236.76 205.7L236.73 205.71L236.69 205.72L236.65 205.72L236.62 205.73L236.58 205.74L236.54 205.74L236.5 205.75L236.46 205.76L236.42 205.76L236.38 205.77L236.34 205.78L236.3 205.78L236.26 205.79L236.21 205.79L236.17 205.8L236.13 205.8L236.08 205.81L236.04 205.82L235.99 205.82L235.95 205.83L235.9 205.83L235.85 205.83L235.8 205.84L235.76 205.84L235.71 205.85L235.66 205.85L235.61 205.86L235.56 205.86L235.51 205.86L235.46 205.87L235.4 205.87L235.35 205.87L235.3 205.88L235.24 205.88L235.19 205.88L235.13 205.89L235.08 205.89L235.02 205.89L234.96 205.9L234.9 205.9L234.84 205.9L234.78 205.9L234.72 205.91L234.66 205.91L234.6 205.91L234.54 205.91L234.48 205.92L234.41 205.92L234.35 205.92L234.28 205.92L234.22 205.93L234.15 205.93L234.08 205.93L234.02 205.93L233.95 205.93L233.88 205.93L233.81 205.94L233.74 205.94L233.67 205.94L233.6 205.94L233.53 205.94L233.45 205.94L233.38 205.94L233.31 205.94L233.23 205.94L233.16 205.94L233.08 205.94L233 205.94L232.93 205.94L232.85 205.94L232.77 205.94L232.69 205.94L232.61 205.94L232.53 205.94L232.45 205.94L232.37 205.94L232.29 205.94L232.21 205.94L232.14 205.94L232.06 205.94L231.99 205.94L231.91 205.94L231.84 205.94L231.76 205.93L231.69 205.93L231.62 205.93L231.55 205.93L231.48 205.93L231.41 205.93L231.34 205.92L231.27 205.92L231.2 205.92L231.13 205.92L231.06 205.91L231 205.91L230.93 205.91L230.87 205.9L230.8 205.9L230.74 205.9L230.68 205.9L230.62 205.89L230.55 205.89L230.49 205.89L230.43 205.88L230.37 205.88L230.31 205.87L230.26 205.87L230.2 205.87L230.14 205.86L230.09 205.86L230.03 205.85L229.98 205.85L229.92 205.84L229.87 205.84L229.81 205.83L229.76 205.83L229.71 205.82L229.66 205.82L229.61 205.81L229.56 205.81L229.51 205.8L229.46 205.8L229.41 205.79L229.36 205.78L229.31 205.78L229.26 205.77L229.22 205.77L229.17 205.76L229.12 205.75L229.08 205.75L229.03 205.74L228.99 205.73L228.95 205.72L228.9 205.72L228.86 205.71L228.82 205.7L228.78 205.7L228.74 205.69L228.7 205.68L228.66 205.67L228.62 205.66L228.58 205.66L228.54 205.65L228.5 205.64L228.47 205.63L228.43 205.62L228.4 205.62L228.36 205.61L228.33 205.6L228.29 205.59L228.26 205.58L228.23 205.57L228.19 205.56L228.16 205.55L228.13 205.54L228.1 205.53L228.07 205.52L228.04 205.51L228.01 205.5L227.98 205.49L227.95 205.48L227.92 205.47L227.9 205.46L227.87 205.45L227.84 205.44L227.82 205.43L227.79 205.41L227.76 205.4L227.74 205.39L227.71 205.38L227.69 205.37L227.67 205.35L227.64 205.34L227.62 205.33L227.6 205.31L227.57 205.3L227.55 205.29L227.53 205.27L227.51 205.26L227.49 205.25L227.47 205.23L227.45 205.22L227.43 205.2L227.41 205.19L227.39 205.17L227.38 205.16L227.36 205.14L227.34 205.13L227.32 205.11L227.31 205.1L227.29 205.08L227.28 205.06L227.26 205.05L227.25 205.03L227.23 205.02L227.22 205L227.2 204.98L227.19 204.97L227.17 204.95L227.16 204.93L227.14 204.91L227.13 204.9L227.12 204.88L227.1 204.86L227.09 204.84L227.08 204.82L227.06 204.81L227.05 204.79L227.04 204.77L227.03 204.75L227.01 204.73L227 204.71L226.99 204.69L226.98 204.67L226.97 204.65L226.96 204.63L226.95 204.61L226.94 204.59L226.93 204.57L226.92 204.55L226.91 204.53L226.9 204.5L226.89 204.48L226.88 204.46L226.87 204.44L226.86 204.42L226.85 204.4L226.84 204.37L226.83 204.35L226.83 204.33L226.82 204.31L216.87 174.59L216.76 174.18L216.65 174.59L207.44 204.31L207.43 204.33L207.42 204.36L207.41 204.38L207.4 204.4L207.4 204.43L207.39 204.45L207.38 204.48L207.37 204.5L207.36 204.52L207.35 204.55L207.34 204.57L207.33 204.59L207.31 204.61L207.3 204.64L207.29 204.66L207.28 204.68L207.27 204.7L207.26 204.72L207.24 204.74L207.23 204.76L207.22 204.78L207.21 204.8L207.19 204.82L207.18 204.84L207.16 204.86L207.15 204.88L207.14 204.9L207.12 204.92L207.11 204.94L207.09 204.96L207.08 204.97L207.06 204.99L207.05 205.01L207.03 205.03L207.01 205.04L207 205.06L206.98 205.08L206.96 205.09L206.95 205.11L206.93 205.13L206.91 205.14L206.89 205.16L206.88 205.17L206.86 205.19L206.84 205.2L206.82 205.22L206.8 205.23L206.78 205.25L206.76 205.26L206.74 205.28L206.72 205.29L206.7 205.31L206.67 205.32L206.65 205.33L206.63 205.35L206.6 205.36L206.58 205.37L206.56 205.39L206.53 205.4L206.51 205.41L206.48 205.42L206.45 205.44L206.43 205.45L206.4 205.46L206.37 205.47L206.34 205.48L206.32 205.5L206.29 205.51L206.26 205.52L206.23 205.53L206.2 205.54L206.17 205.55L206.14 205.56L206.11 205.57L206.08 205.58L206.04 205.59L206.01 205.6L205.98 205.61L205.94 205.62L205.91 205.63L205.88 205.64L205.84 205.64L205.81 205.65L205.77 205.66L205.73 205.67L205.7 205.68L205.66 205.68L205.62 205.69L205.58 205.7L205.54 205.71L205.5 205.72L205.46 205.72L205.42 205.73L205.38 205.74L205.34 205.74L205.3 205.75L205.26 205.76L205.21 205.76L205.17 205.77L205.12 205.78L205.08 205.78L205.03 205.79L204.99 205.79L204.94 205.8L204.9 205.8L204.85 205.81L204.8 205.82L204.75 205.82L204.71 205.83L204.66 205.83L204.61 205.83L204.56 205.84L204.51 205.84L204.45 205.85L204.4 205.85L204.35 205.86L204.3 205.86L204.25 205.86L204.19 205.87L204.14 205.87L204.08 205.87L204.03 205.88L203.97 205.88L203.92 205.88L203.86 205.89L203.8 205.89L203.75 205.89L203.69 205.9L203.63 205.9L203.57 205.9L203.51 205.9L203.45 205.91L203.39 205.91L203.32 205.91L203.26 205.91L203.2 205.92L203.13 205.92L203.07 205.92L203 205.92L202.94 205.93L202.87 205.93L202.8 205.93L202.74 205.93L202.67 205.93L202.6 205.93L202.53 205.94L202.46 205.94L202.39 205.94L202.32 205.94L202.24 205.94L202.17 205.94L202.1 205.94L202.02 205.94L201.95 205.94L201.87 205.94L201.8 205.94L201.72 205.94L201.64 205.94L201.57 205.94L201.49 205.94L201.41 205.94L201.33 205.94L201.25 205.94L201.17 205.94L201.09 205.94L201.01 205.94L200.93 205.94L200.86 205.94L200.78 205.94L200.71 205.94L200.63 205.94L200.56 205.94L200.49 205.93L200.42 205.93L200.35 205.93L200.28 205.93L200.21 205.93L200.14 205.93L200.07 205.92L200 205.92L199.94 205.92L199.87 205.92L199.81 205.91L199.74 205.91L199.68 205.91L199.62 205.9L199.55 205.9L199.49 205.9L199.43 205.9L199.37 205.89L199.31 205.89L199.26 205.89L199.2 205.88L199.14 205.88L199.09 205.87L199.03 205.87L198.98 205.87L198.92 205.86L198.87 205.86L198.82 205.85L198.77 205.85L198.72 205.84L198.67 205.84L198.62 205.83L198.57 205.83L198.52 205.82L198.47 205.82L198.42 205.81L198.38 205.81L198.33 205.8L198.28 205.8L198.24 205.79L198.19 205.78L198.15 205.78L198.1 205.77L198.06 205.77L198.02 205.76L197.97 205.75L197.93 205.75L197.89 205.74L197.85 205.73L197.8 205.72L197.76 205.72L197.72 205.71L197.68 205.7L197.64 205.7L197.6 205.69L197.56 205.68L197.53 205.67L197.49 205.66L197.45 205.66L197.41 205.65L197.38 205.64L197.34 205.63L197.31 205.62L197.27 205.62L197.23 205.61L197.2 205.6L197.17 205.59L197.13 205.58L197.1 205.57L197.07 205.56L197.04 205.55L197.01 205.54L196.98 205.53L196.95 205.52L196.92 205.51L196.89 205.5L196.86 205.49L196.83 205.48L196.8 205.47L196.77 205.46L196.74 205.45L196.72 205.44L196.69 205.43L196.67 205.41L196.64 205.4L196.61 205.39L196.59 205.38L196.56 205.37L196.54 205.35L196.52 205.34L196.49 205.33L196.47 205.31L196.45 205.3L196.43 205.29L196.41 205.27L196.39 205.26L196.36 205.25L196.34 205.23L196.32 205.22L196.31 205.2L196.29 205.19L196.27 205.17L196.25 205.16L196.23 205.14L196.22 205.13L196.2 205.11L196.18 205.1L196.17 205.08L196.15 205.06L196.14 205.05L196.12 205.03L196.11 205.02L196.09 205L196.08 204.98L196.06 204.97L196.05 204.95L196.03 204.93L196.02 204.91L196.01 204.9L195.99 204.88L195.98 204.86L195.96 204.84L195.95 204.82L195.94 204.81L195.93 204.79L195.91 204.77L195.9 204.75L195.89 204.73L195.88 204.71L195.87 204.69L195.85 204.67L195.84 204.65L195.83 204.63L195.82 204.61L195.81 204.59L195.8 204.57L195.79 204.55L195.78 204.53L195.77 204.5L195.76 204.48L195.75 204.46L195.74 204.44L195.73 204.42L195.73 204.4L195.72 204.37L195.71 204.35L195.7 204.33L195.69 204.31L181.84 165.4L181.83 165.36L181.82 165.33L181.8 165.3L181.79 165.26L181.78 165.23L181.77 165.2L181.76 165.17L181.74 165.13L181.73 165.1L181.72 165.07L181.71 165.04L181.7 165.01L181.69 164.98L181.68 164.95L181.67 164.92L181.66 164.89L181.65 164.86L181.64 164.83L181.63 164.8L181.62 164.77L181.61 164.74L181.6 164.72L181.59 164.69L181.58 164.66L181.57 164.63L181.57 164.61L181.56 164.58L181.55 164.55L181.54 164.53L181.53 164.5L181.53 164.48L181.52 164.45L181.51 164.43L181.51 164.4L181.5 164.38L181.5 164.35L181.49 164.33L181.48 164.31L181.48 164.28L181.47 164.26L181.47 164.24L181.46 164.21L181.46 164.19L181.45 164.17L181.45 164.15L181.44 164.13L181.44 164.11L181.44 164.08L181.43 164.06L181.43 164.04L181.42 164.02L181.42 164L181.42 163.98L181.41 163.96L181.41 163.94L181.41 163.92L181.4 163.9L181.4 163.88L181.4 163.86L181.4 163.84L181.39 163.82L181.39 163.8L181.39 163.78L181.39 163.76L181.38 163.74L181.38 163.73L181.38 163.71L181.38 163.69L181.38 163.67L181.38 163.65L181.37 163.64L181.37 163.62L181.37 163.6L181.37 163.58L181.37 163.57L181.37 163.55L181.37 163.53L181.37 163.52L181.37 163.5L181.37 163.49L181.37 163.47L181.37 163.45L181.37 163.43L181.37 163.41L181.37 163.39L181.37 163.37L181.38 163.35L181.38 163.33L181.38 163.31L181.38 163.29L181.38 163.27L181.39 163.26L181.39 163.24L181.39 163.22L181.4 163.2L181.4 163.19L181.41 163.17L181.41 163.15L181.42 163.14L181.42 163.12L181.43 163.1L181.43 163.09L181.44 163.07L181.44 163.06L181.45 163.04L181.46 163.03L181.46 163.01L181.47 163L181.48 162.98L181.49 162.97L181.5 162.95L181.5 162.94L181.51 162.92L181.52 162.91L181.53 162.9L181.54 162.88L181.55 162.87L181.56 162.86L181.57 162.85L181.58 162.83L181.59 162.82L181.6 162.81L181.61 162.8L181.62 162.78L181.64 162.77L181.65 162.76L181.66 162.75L181.67 162.74L181.69 162.72L181.7 162.71L181.71 162.7L181.73 162.69L181.74 162.68L181.76 162.67L181.77 162.66L181.79 162.64L181.81 162.63L181.82 162.62L181.84 162.61L181.86 162.6L181.88 162.59L181.89 162.58L181.91 162.57L181.93 162.56L181.95 162.55L181.97 162.54L181.99 162.53L182.01 162.53L182.03 162.52L182.05 162.51L182.07 162.5L182.1 162.49L182.12 162.48L182.14 162.47L182.16 162.46L182.19 162.46L182.21 162.45L182.23 162.44L182.26 162.43L182.28 162.42L182.31 162.42L182.33 162.41L182.36 162.4L182.39 162.39L182.41 162.38L182.44 162.38L182.47 162.37L182.5 162.36L182.53 162.36L182.56 162.35L182.59 162.34L182.62 162.34L182.65 162.33L182.68 162.32L182.71 162.32L182.74 162.31L182.77 162.3L182.81 162.3L182.84 162.29L182.87 162.29L182.91 162.28L182.94 162.28L182.98 162.27L183.01 162.27L183.05 162.26L183.08 162.26L183.12 162.25L183.16 162.25L183.19 162.25L183.23 162.24L183.27 162.24L183.31 162.23L183.35 162.23L183.39 162.23L183.43 162.22L183.47 162.22L183.51 162.22L183.55 162.22L183.59 162.21L183.63 162.21L183.68 162.21L183.72 162.21L183.76 162.2L183.8 162.2L183.85 162.2L183.89 162.2L183.94 162.2L183.98 162.2L184.03 162.19L184.08 162.19L184.12 162.19L184.17 162.19L184.22 162.19L184.27 162.19L184.32 162.18L184.36 162.18L184.41 162.18L184.46 162.18L184.52 162.18L184.57 162.18L184.62 162.18L184.67 162.18L184.72 162.17L184.78 162.17L184.83 162.17L184.88 162.17L184.94 162.17L184.99 162.17L185.05 162.17L185.1 162.17L185.16 162.17L185.22 162.17L185.27 162.17L185.33 162.17L185.39 162.17L185.45 162.17L185.51 162.17L185.57 162.17L185.63 162.17L185.69 162.17L185.76 162.17L185.83 162.17L185.9 162.17L185.98 162.17L186.05 162.17L186.12 162.17L186.18 162.17L186.25 162.17L186.32 162.17L186.39 162.17L186.45 162.17L186.52 162.17L186.58 162.17L186.65 162.18L186.71 162.18L186.77 162.18L186.83 162.18L186.9 162.18L186.96 162.18L187.02 162.19L187.07 162.19L187.13 162.19L187.19 162.19L187.25 162.19L187.3 162.2L187.36 162.2L187.41 162.2L187.47 162.2L187.52 162.21L187.57 162.21L187.62 162.21L187.68 162.21L187.73 162.22L187.78 162.22L187.82 162.22L187.87 162.23L187.92 162.23L187.97 162.23L188.01 162.24L188.06 162.24L188.1 162.24L188.15 162.25L188.19 162.25L188.23 162.26L188.27 162.26L188.31 162.26L188.36 162.27L188.4 162.27L188.44 162.28L188.48 162.28L188.52 162.28L188.55 162.29L188.59 162.29L188.63 162.3L188.67 162.3L188.7 162.31L188.74 162.31L188.78 162.32L188.81 162.32L188.85 162.33L188.88 162.34L188.91 162.34L188.95 162.35L188.98 162.35L189.01 162.36L189.04 162.37L189.07 162.37L189.1 162.38L189.13 162.39L189.16 162.39L189.19 162.4L189.22 162.41L189.25 162.41L189.27 162.42L189.3 162.43L189.33 162.44L189.35 162.45L189.38 162.45L189.4 162.46L189.43 162.47L189.45 162.48L189.47 162.49L189.5 162.49L189.52 162.5L189.54 162.51L189.56 162.52L189.58 162.53L189.6 162.54L189.62 162.55L189.65 162.56L189.67 162.56L189.69 162.57L189.7 162.58L189.72 162.59L189.74 162.61L189.76 162.62L189.78 162.63L189.8 162.64L189.82 162.65L189.83 162.66L189.85 162.67L189.87 162.68L189.88 162.69L189.9 162.71L189.92 162.72L189.93 162.73L189.95 162.74L189.96 162.76L189.97 162.77L189.99 162.78L190 162.8L190.02 162.81L190.03 162.82L190.04 162.84L190.05 162.85L190.07 162.87L190.08 162.88L190.09 162.89L190.1 162.91L190.11 162.92L190.12 162.94L190.13 162.95L190.14 162.97L190.15 162.98L190.16 163L190.17 163.01L190.18 163.03L190.19 163.05L190.2 163.06L190.21 163.08L190.22 163.09L190.23 163.11L190.24 163.13L190.25 163.14L190.26 163.16L190.27 163.18L190.28 163.19L190.29 163.21L190.3 163.23L190.31 163.24L190.32 163.26L190.33 163.28L190.33 163.3L190.34 163.32L190.35 163.33L190.36 163.35L190.37 163.37L190.38 163.39L190.39 163.41L190.4 163.43L190.41 163.45L190.41 163.46L190.42 163.48L190.43 163.5L190.44 163.52L190.45 163.54L190.46 163.56L190.46 163.58L190.47 163.6L190.48 163.62L201.91 197.39L202.01 197.8L202.12 197.39L212.6 163.62L212.6 163.6L212.61 163.58L212.61 163.56L212.62 163.54L212.63 163.52L212.63 163.5L212.64 163.48L212.64 163.46L212.65 163.45L212.66 163.43L212.66 163.41L212.67 163.39L212.68 163.37L212.69 163.35L212.69 163.33L212.7 163.32L212.71 163.3L212.72 163.28L212.72 163.26L212.73 163.24L212.74 163.23L212.75 163.21L212.76 163.19L212.77 163.18L212.78 163.16L212.79 163.14L212.8 163.13L212.81 163.11L212.82 163.09L212.83 163.08L212.84 163.06L212.85 163.05L212.86 163.03L212.87 163.01L212.88 163L212.89 162.98L212.9 162.97L212.91 162.95L212.92 162.94L212.93 162.92L212.95 162.91L212.96 162.89L212.97 162.88L212.98 162.87L213 162.85L213.01 162.84L213.03 162.82L213.04 162.81L213.05 162.8L213.07 162.78L213.08 162.77L213.1 162.76L213.12 162.74L213.13 162.73L213.15 162.72L213.17 162.71L213.18 162.69L213.2 162.68L213.22 162.67L213.24 162.66L213.25 162.65L213.27 162.64L213.29 162.63L213.31 162.62L213.33 162.61L213.35 162.59L213.37 162.58L213.39 162.57L213.41 162.56L213.43 162.56L213.45 162.55L213.47 162.54L213.49 162.53L213.52 162.52L213.54 162.51L213.56 162.5L213.58 162.49L213.61 162.49L213.63 162.48L213.65 162.47L213.68 162.46L213.7 162.45L213.72 162.45L213.75 162.44L213.77 162.43L213.8 162.42L213.83 162.41L213.85 162.41L213.88 162.4L213.91 162.39L213.94 162.39L213.96 162.38L213.99 162.37L214.02 162.37L214.05 162.36L214.08 162.35L214.11 162.35L214.14 162.34L214.18 162.34L214.21 162.33L214.24 162.32L214.27 162.32L214.31 162.31L214.34 162.31L214.37 162.3L214.41 162.3L214.44 162.29L214.48 162.29L214.51 162.28L214.55 162.28L214.59 162.28L214.62 162.27L214.66 162.27L214.7 162.26L214.74 162.26L214.78 162.26L214.81 162.25L214.85 162.25L214.89 162.24L214.93 162.24L214.98 162.24L215.02 162.23L215.06 162.23L215.1 162.23L215.15 162.22L215.19 162.22L215.24 162.22L215.28 162.21L215.33 162.21L215.38 162.21L215.42 162.21L215.47 162.2L215.52 162.2L215.57 162.2L215.62 162.2L215.67 162.19L215.72 162.19L215.78 162.19L215.83 162.19L215.88 162.19L215.94 162.18L215.99 162.18L216.04 162.18L216.1 162.18L216.16 162.18L216.21 162.18L216.27 162.17L216.33 162.17L216.39 162.17L216.45 162.17L216.51 162.17L216.57 162.17L216.63 162.17L216.69 162.17L216.75 162.17L216.82 162.17L216.88 162.17L216.95 162.17L217.01 162.17L217.08 162.17L217.14 162.17L217.2 162.17L217.26 162.17L217.32 162.17L217.38 162.17L217.44 162.17L217.5 162.17L217.56 162.17L217.62 162.17L217.68 162.17L217.73 162.17L217.79 162.17L217.85 162.17L217.9 162.18L217.96 162.18L218.01 162.18L218.07 162.18L218.12 162.18L218.17 162.18L218.22 162.19L218.28 162.19L218.33 162.19L218.38 162.19L218.43 162.19L218.48 162.2L218.52 162.2L218.57 162.2L218.62 162.2L218.67 162.21L218.71 162.21L218.76 162.21L218.81 162.21L218.85 162.22L218.89 162.22L218.94 162.22L218.98 162.23L219.02 162.23L219.07 162.23L219.11 162.24L219.15 162.24L219.19 162.24L219.23 162.25L219.27 162.25L219.31 162.26L219.35 162.26L219.39 162.26L219.42 162.27L219.46 162.27L219.5 162.28L219.54 162.28L219.57 162.28L219.61 162.29L219.65 162.29L219.68 162.3L219.72 162.3L219.75 162.31L219.78 162.31L219.82 162.32L219.85 162.32L219.88 162.33L219.92 162.34L219.95 162.34L219.98 162.35L220.01 162.35L220.04 162.36L220.07 162.37L220.1 162.37L220.13 162.38L220.16 162.39L220.19 162.39L220.22 162.4L220.24 162.41L220.27 162.41L220.3 162.42L220.32 162.43L220.35 162.44L220.37 162.45L220.4 162.45L220.42 162.46L220.45 162.47L220.47 162.48L220.49 162.48L220.52 162.49L220.54 162.5L220.56 162.51L220.58 162.52L220.6 162.53L220.62 162.54L220.64 162.54L220.67 162.55L220.69 162.56L220.71 162.57L220.72 162.58L220.74 162.59L220.76 162.6L220.78 162.61L220.8 162.62L220.82 162.63L220.84 162.64L220.85 162.65L220.87 162.66L220.89 162.67L220.9 162.69L220.92 162.7L220.93 162.71L220.95 162.72L220.97 162.73L220.98 162.74L220.99 162.75L221.01 162.77L221.02 162.78L221.04 162.79L221.05 162.8L221.06 162.82L221.07 162.83L221.09 162.84L221.1 162.85L221.11 162.87L221.12 162.88L221.13 162.89L221.14 162.91L221.15 162.92L221.16 162.94L221.17 162.95L221.18 162.96L221.19 162.98L221.2 162.99L221.21 163.01L221.22 163.02L221.23 163.04L221.24 163.05L221.25 163.07L221.25 163.08L221.26 163.1L221.27 163.11L221.28 163.13L221.29 163.14L221.3 163.16L221.31 163.18L221.31 163.19L221.32 163.21L221.33 163.22L221.34 163.24L221.34 163.26L221.35 163.27L221.36 163.29L221.37 163.31L221.37 163.32L221.38 163.34L221.39 163.36L221.39 163.37L221.4 163.39L221.41 163.41L221.41 163.43L221.42 163.44L221.42 163.46L221.43 163.48L221.44 163.5L221.44 163.51L221.45 163.53L232.77 197.39L232.88 197.8L232.93 197.39L244.2 163.62L244.2 163.6L244.21 163.58L244.21 163.56L244.22 163.54L244.23 163.52L244.23 163.5L244.24 163.48L244.24 163.46L244.25 163.45L244.26 163.43L244.26 163.41L244.27 163.39L244.28 163.37L244.28 163.35L244.29 163.33L244.3 163.32L244.31 163.3L244.32 163.28L244.32 163.26L244.33 163.24L244.34 163.23L244.35 163.21L244.36 163.19L244.37 163.18L244.38 163.16L244.39 163.14L244.39 163.13L244.4 163.11L244.41 163.09L244.42 163.08L244.43 163.06L244.44 163.05L244.45 163.03L244.47 163.01L244.48 163L244.49 162.98L244.5 162.97L244.51 162.95L244.52 162.94L244.53 162.92L244.54 162.91L244.56 162.89L244.57 162.88L244.58 162.87L244.6 162.85L244.61 162.84L244.62 162.82L244.64 162.81L244.65 162.8L244.67 162.78L244.68 162.77L244.7 162.76L244.72 162.74L244.73 162.73L244.75 162.72L244.77 162.71L244.78 162.69L244.8 162.68L244.82 162.67L244.84 162.66L244.86 162.65L244.88 162.64L244.89 162.63L244.91 162.62L244.93 162.61L244.95 162.59L244.97 162.58L245 162.57L245.02 162.56L245.04 162.56L245.06 162.55L245.08 162.54L245.1 162.53L245.13 162.52L245.15 162.51L245.17 162.5L245.2 162.49L245.22 162.49L245.24 162.48L245.27 162.47L245.29 162.46L245.32 162.45L245.35 162.45L245.37 162.44L245.4 162.43L245.43 162.42L245.46 162.41L245.49 162.41L245.52 162.4L245.54 162.39L245.57 162.39L245.61 162.38L245.64 162.37L245.67 162.37L245.7 162.36L245.73 162.35L245.76 162.35L245.8 162.34L245.83 162.34L245.86 162.33L245.9 162.32L245.93 162.32L245.97 162.31L246.01 162.31L246.04 162.3L246.08 162.3L246.12 162.29L246.15 162.29L246.19 162.28L246.23 162.28L246.27 162.28L246.31 162.27L246.35 162.27L246.39 162.26L246.43 162.26L246.47 162.26L246.51 162.25L246.55 162.25L246.6 162.24L246.64 162.24L246.68 162.24L246.73 162.23L246.77 162.23L246.82 162.23L246.87 162.22L246.91 162.22L246.96 162.22L247.01 162.21L247.06 162.21L247.11 162.21L247.16 162.21L247.21 162.2L247.26 162.2L247.31 162.2L247.37 162.2L247.42 162.19L247.47 162.19L247.53 162.19L247.58 162.19L247.64 162.19L247.7 162.18L247.75 162.18L247.81 162.18L247.87 162.18L247.93 162.18L247.99 162.18L248.05 162.17L248.11 162.17L248.17 162.17L248.23 162.17L248.29 162.17L248.36 162.17L248.42 162.17L248.49 162.17L248.55 162.17L248.62 162.17L248.68 162.17L248.75 162.17L248.82 162.17L248.89 162.17L248.95 162.17L249.01 162.17Z" id="b9lyQB5SLZ"></path><path d="M228.9 46.86L229.08 46.86L229.26 46.87L229.44 46.88L229.61 46.89L229.79 46.9L229.96 46.92L230.13 46.94L230.29 46.96L230.46 46.98L230.62 47L230.78 47.03L230.94 47.06L231.1 47.09L231.25 47.12L231.4 47.15L231.55 47.19L231.7 47.23L231.85 47.27L231.99 47.31L232.13 47.35L232.27 47.4L232.41 47.45L232.55 47.5L232.68 47.55L232.81 47.6L232.94 47.65L233.07 47.71L233.19 47.77L233.32 47.83L233.44 47.89L233.56 47.95L233.67 48.01L233.79 48.08L233.9 48.14L234.01 48.21L234.12 48.28L234.22 48.35L234.32 48.43L234.42 48.5L234.52 48.58L234.62 48.65L234.71 48.73L234.8 48.81L234.89 48.89L234.98 48.97L235.06 49.06L235.15 49.14L235.23 49.23L235.3 49.31L235.38 49.4L235.46 49.49L235.53 49.58L235.6 49.67L235.66 49.76L235.73 49.86L235.79 49.95L235.85 50.05L235.91 50.14L235.97 50.24L236.02 50.34L236.08 50.44L236.13 50.54L236.18 50.65L236.22 50.75L236.27 50.85L236.31 50.96L236.35 51.07L236.39 51.18L236.43 51.28L236.46 51.39L236.49 51.5L236.52 51.61L236.55 51.72L236.58 51.83L236.6 51.95L236.63 52.06L236.65 52.17L236.66 52.29L236.68 52.4L236.69 52.52L236.7 52.63L236.71 52.75L236.72 52.87L236.73 52.98L236.73 53.1L236.73 53.22L236.73 53.33L236.73 53.44L236.73 53.54L236.72 53.65L236.72 53.75L236.71 53.86L236.71 53.97L236.7 54.07L236.69 54.18L236.68 54.29L236.67 54.39L236.66 54.5L236.64 54.6L236.63 54.71L236.62 54.82L236.6 54.92L236.58 55.03L236.57 55.13L236.55 55.24L236.53 55.35L236.51 55.45L236.48 55.56L236.46 55.67L236.44 55.77L236.41 55.88L236.38 55.99L236.35 56.1L236.32 56.21L236.28 56.32L236.24 56.44L236.2 56.55L236.16 56.66L236.11 56.78L236.07 56.89L236.02 57.01L235.96 57.13L235.91 57.24L235.85 57.36L235.79 57.48L235.73 57.6L235.67 57.72L235.6 57.85L235.54 57.97L235.47 58.09L235.39 58.22L235.32 58.34L235.24 58.47L235.16 58.59L235.08 58.72L234.99 58.85L234.9 58.98L234.81 59.12L234.71 59.25L234.62 59.38L234.52 59.52L234.41 59.66L234.31 59.79L234.2 59.93L234.08 60.08L233.97 60.22L233.85 60.36L233.73 60.5L233.61 60.65L233.48 60.8L233.35 60.95L233.22 61.1L233.08 61.25L232.95 61.4L232.8 61.56L232.66 61.71L232.51 61.87L232.35 62.04L232.19 62.2L232.03 62.37L231.86 62.54L231.69 62.71L231.51 62.88L231.34 63.05L231.15 63.23L230.97 63.41L230.77 63.59L230.58 63.77L230.38 63.96L230.18 64.15L229.97 64.34L229.76 64.53L229.54 64.72L229.32 64.92L224.83 68.97L237.17 68.97L237.19 68.97L237.2 68.97L237.22 68.97L237.23 68.97L237.25 68.97L237.26 68.98L237.28 68.98L237.29 68.98L237.31 68.98L237.32 68.99L237.34 68.99L237.35 69L237.37 69L237.39 69.01L237.4 69.01L237.42 69.02L237.43 69.02L237.44 69.03L237.46 69.04L237.47 69.04L237.49 69.05L237.5 69.06L237.52 69.07L237.53 69.08L237.55 69.09L237.56 69.09L237.58 69.1L237.59 69.11L237.61 69.12L237.62 69.14L237.64 69.15L237.65 69.16L237.66 69.17L237.68 69.18L237.69 69.19L237.7 69.21L237.72 69.22L237.73 69.23L237.74 69.25L237.75 69.26L237.77 69.27L237.78 69.29L237.79 69.3L237.8 69.32L237.81 69.33L237.82 69.35L237.83 69.36L237.84 69.38L237.85 69.4L237.86 69.42L237.87 69.43L237.88 69.45L237.89 69.47L237.9 69.49L237.91 69.51L237.91 69.53L237.92 69.55L237.93 69.57L237.94 69.59L237.94 69.61L237.95 69.63L237.96 69.65L237.96 69.67L237.97 69.7L237.97 69.72L237.98 69.74L237.98 69.77L237.99 69.79L237.99 69.81L237.99 69.84L238 69.86L238 69.89L238 69.92L238.01 69.94L238.01 69.97L238.01 69.99L238.01 70.02L238.02 70.05L238.02 70.07L238.02 70.1L238.02 70.13L238.03 70.16L238.03 70.19L238.03 70.22L238.03 70.24L238.03 70.27L238.03 70.3L238.03 70.33L238.03 70.37L238.03 70.4L238.03 70.43L238.03 70.46L238.03 70.49L238.03 70.52L238.02 70.55L238.02 70.58L238.02 70.61L238.02 70.64L238.01 70.67L238.01 70.69L238.01 70.72L238.01 70.75L238 70.78L238 70.8L238 70.83L237.99 70.85L237.99 70.88L237.99 70.91L237.98 70.93L237.98 70.96L237.97 70.98L237.97 71L237.96 71.03L237.96 71.05L237.95 71.07L237.94 71.09L237.94 71.11L237.93 71.13L237.92 71.16L237.92 71.18L237.91 71.2L237.9 71.22L237.89 71.24L237.89 71.26L237.88 71.27L237.87 71.29L237.86 71.31L237.85 71.33L237.85 71.35L237.84 71.36L237.83 71.38L237.82 71.4L237.81 71.41L237.8 71.43L237.79 71.44L237.78 71.46L237.77 71.47L237.76 71.49L237.75 71.5L237.74 71.52L237.73 71.53L237.72 71.54L237.71 71.56L237.7 71.57L237.68 71.58L237.67 71.59L237.66 71.6L237.64 71.61L237.63 71.62L237.62 71.63L237.6 71.64L237.59 71.65L237.57 71.66L237.56 71.67L237.54 71.68L237.53 71.68L237.51 71.69L237.5 71.69L237.48 71.7L237.47 71.7L237.45 71.71L237.44 71.71L237.42 71.72L237.4 71.72L237.39 71.73L237.37 71.73L237.36 71.73L237.34 71.73L237.32 71.74L237.31 71.74L237.29 71.74L237.27 71.74L237.26 71.74L237.24 71.74L237.22 71.74L237.2 71.74L221.51 71.74L221.48 71.74L221.45 71.74L221.43 71.74L221.4 71.74L221.37 71.74L221.34 71.74L221.32 71.74L221.29 71.74L221.27 71.73L221.24 71.73L221.22 71.73L221.19 71.73L221.17 71.72L221.14 71.72L221.12 71.72L221.1 71.71L221.07 71.71L221.05 71.7L221.03 71.7L221.01 71.69L220.99 71.69L220.97 71.68L220.95 71.68L220.92 71.67L220.9 71.66L220.88 71.65L220.86 71.65L220.84 71.64L220.83 71.63L220.81 71.62L220.79 71.61L220.77 71.6L220.75 71.59L220.73 71.58L220.71 71.57L220.7 71.56L220.68 71.55L220.66 71.53L220.64 71.52L220.63 71.51L220.61 71.5L220.59 71.48L220.58 71.47L220.56 71.46L220.55 71.44L220.53 71.43L220.52 71.41L220.51 71.4L220.49 71.38L220.48 71.37L220.47 71.35L220.46 71.33L220.45 71.31L220.44 71.29L220.43 71.27L220.42 71.26L220.41 71.23L220.4 71.21L220.39 71.19L220.38 71.17L220.37 71.15L220.36 71.13L220.35 71.1L220.35 71.08L220.34 71.06L220.33 71.03L220.33 71L220.32 70.98L220.32 70.95L220.31 70.92L220.31 70.89L220.3 70.86L220.3 70.84L220.29 70.8L220.29 70.77L220.28 70.74L220.28 70.71L220.28 70.68L220.28 70.64L220.27 70.61L220.27 70.58L220.27 70.54L220.27 70.5L220.27 70.47L220.27 70.43L220.26 70.39L220.26 70.36L220.26 70.32L220.26 70.28L220.26 70.25L220.26 70.22L220.26 70.18L220.26 70.15L220.27 70.12L220.27 70.09L220.27 70.06L220.27 70.03L220.27 70L220.27 69.97L220.27 69.94L220.27 69.91L220.27 69.88L220.27 69.85L220.27 69.82L220.27 69.8L220.28 69.77L220.28 69.74L220.28 69.72L220.28 69.69L220.28 69.67L220.28 69.64L220.29 69.61L220.29 69.59L220.3 69.56L220.3 69.54L220.31 69.52L220.31 69.49L220.32 69.47L220.32 69.44L220.33 69.42L220.33 69.4L220.34 69.38L220.35 69.35L220.35 69.33L220.36 69.31L220.37 69.29L220.38 69.27L220.39 69.25L220.39 69.23L220.4 69.21L220.41 69.18L220.42 69.17L220.43 69.15L220.44 69.12L220.46 69.1L220.47 69.08L220.48 69.06L220.49 69.04L220.5 69.02L220.51 69L220.53 68.98L220.54 68.96L220.55 68.94L220.57 68.92L220.58 68.9L220.59 68.88L220.61 68.86L220.62 68.84L220.63 68.82L220.65 68.8L220.66 68.78L220.67 68.76L220.69 68.74L220.7 68.73L220.72 68.71L220.73 68.68L220.75 68.66L220.77 68.64L220.79 68.62L220.8 68.6L220.82 68.58L220.84 68.56L220.86 68.54L220.88 68.52L220.9 68.5L220.92 68.47L220.94 68.45L220.96 68.43L220.98 68.41L221 68.39L221.03 68.37L221.05 68.34L221.07 68.32L221.09 68.3L221.12 68.28L221.14 68.26L226.64 63.2L226.81 63.05L226.98 62.89L227.14 62.74L227.31 62.58L227.46 62.43L227.62 62.28L227.77 62.13L227.92 61.98L228.07 61.84L228.21 61.69L228.35 61.55L228.49 61.41L228.63 61.27L228.76 61.13L228.88 61L229.01 60.86L229.13 60.73L229.25 60.59L229.36 60.46L229.48 60.33L229.59 60.21L229.69 60.08L229.79 59.95L229.9 59.83L230 59.71L230.09 59.59L230.19 59.46L230.28 59.34L230.37 59.23L230.46 59.11L230.55 58.99L230.63 58.87L230.72 58.76L230.8 58.65L230.88 58.53L230.95 58.42L231.03 58.31L231.1 58.2L231.17 58.09L231.23 57.98L231.3 57.88L231.36 57.77L231.42 57.66L231.48 57.56L231.54 57.46L231.59 57.36L231.64 57.26L231.7 57.16L231.74 57.06L231.79 56.96L231.84 56.86L231.88 56.76L231.92 56.67L231.96 56.57L232 56.48L232.04 56.38L232.07 56.29L232.11 56.2L232.14 56.11L232.17 56.02L232.19 55.93L232.22 55.84L232.24 55.75L232.27 55.67L232.29 55.58L232.31 55.5L232.32 55.41L232.34 55.33L232.36 55.24L232.37 55.16L232.38 55.08L232.4 55L232.41 54.91L232.42 54.83L232.43 54.75L232.44 54.67L232.45 54.59L232.46 54.51L232.47 54.44L232.47 54.36L232.48 54.28L232.49 54.2L232.49 54.13L232.49 54.05L232.5 53.98L232.5 53.9L232.5 53.83L232.5 53.75L232.5 53.68L232.5 53.61L232.49 53.53L232.49 53.46L232.48 53.39L232.48 53.31L232.47 53.24L232.46 53.17L232.45 53.1L232.43 53.03L232.42 52.96L232.4 52.89L232.39 52.82L232.37 52.75L232.35 52.68L232.33 52.61L232.31 52.54L232.29 52.47L232.26 52.41L232.24 52.34L232.21 52.27L232.18 52.21L232.16 52.14L232.13 52.08L232.1 52.01L232.06 51.95L232.03 51.89L232 51.82L231.96 51.76L231.93 51.7L231.89 51.64L231.85 51.58L231.81 51.52L231.77 51.47L231.73 51.41L231.69 51.35L231.64 51.3L231.6 51.24L231.55 51.19L231.51 51.14L231.46 51.08L231.41 51.03L231.36 50.98L231.31 50.93L231.25 50.88L231.2 50.83L231.14 50.78L231.09 50.74L231.03 50.69L230.97 50.64L230.91 50.6L230.85 50.56L230.78 50.51L230.72 50.47L230.65 50.43L230.58 50.39L230.52 50.35L230.45 50.32L230.38 50.28L230.31 50.24L230.23 50.21L230.16 50.18L230.08 50.14L230.01 50.11L229.93 50.08L229.85 50.05L229.77 50.02L229.69 50L229.6 49.97L229.52 49.95L229.44 49.92L229.35 49.9L229.26 49.88L229.17 49.86L229.09 49.85L229 49.83L228.9 49.81L228.81 49.8L228.72 49.79L228.62 49.78L228.53 49.77L228.43 49.76L228.33 49.75L228.24 49.74L228.14 49.74L228.04 49.74L227.93 49.73L227.83 49.73L227.71 49.73L227.59 49.74L227.47 49.74L227.35 49.74L227.24 49.75L227.12 49.76L227.01 49.77L226.89 49.78L226.78 49.79L226.67 49.8L226.56 49.81L226.45 49.83L226.34 49.85L226.24 49.86L226.13 49.88L226.03 49.9L225.92 49.92L225.82 49.95L225.72 49.97L225.62 50L225.52 50.02L225.43 50.05L225.33 50.08L225.23 50.11L225.14 50.14L225.04 50.17L224.95 50.2L224.86 50.23L224.77 50.26L224.68 50.29L224.59 50.32L224.5 50.35L224.42 50.39L224.33 50.42L224.25 50.45L224.17 50.48L224.09 50.52L224.01 50.55L223.93 50.58L223.85 50.61L223.77 50.65L223.7 50.68L223.62 50.72L223.55 50.75L223.48 50.78L223.41 50.82L223.34 50.85L223.27 50.89L223.2 50.92L223.13 50.95L223.07 50.99L223 51.02L222.94 51.05L222.88 51.09L222.82 51.12L222.76 51.15L222.7 51.18L222.64 51.22L222.58 51.25L222.53 51.28L222.47 51.31L222.42 51.34L222.36 51.37L222.31 51.4L222.26 51.43L222.21 51.46L222.17 51.49L222.12 51.52L222.07 51.54L222.03 51.57L221.99 51.59L221.94 51.61L221.9 51.63L221.86 51.65L221.82 51.67L221.79 51.69L221.75 51.7L221.71 51.72L221.68 51.73L221.65 51.74L221.61 51.75L221.58 51.76L221.55 51.76L221.53 51.77L221.5 51.78L221.47 51.78L221.45 51.78L221.42 51.78L221.41 51.78L221.39 51.78L221.38 51.78L221.37 51.78L221.35 51.78L221.34 51.78L221.33 51.77L221.31 51.77L221.3 51.77L221.29 51.77L221.27 51.76L221.26 51.76L221.25 51.76L221.23 51.75L221.22 51.75L221.21 51.74L221.2 51.74L221.19 51.73L221.18 51.73L221.16 51.72L221.15 51.71L221.14 51.71L221.13 51.7L221.12 51.69L221.11 51.68L221.1 51.68L221.09 51.67L221.08 51.66L221.07 51.65L221.06 51.64L221.05 51.63L221.04 51.62L221.03 51.61L221.02 51.6L221.01 51.59L221.01 51.57L221 51.56L220.99 51.55L220.98 51.53L220.97 51.52L220.97 51.51L220.96 51.49L220.95 51.48L220.95 51.46L220.94 51.45L220.94 51.43L220.93 51.41L220.92 51.39L220.92 51.38L220.91 51.36L220.9 51.34L220.9 51.32L220.89 51.3L220.89 51.28L220.88 51.26L220.88 51.24L220.87 51.22L220.86 51.19L220.86 51.17L220.85 51.15L220.85 51.13L220.84 51.1L220.84 51.08L220.83 51.06L220.83 51.03L220.83 51.01L220.82 50.98L220.82 50.95L220.82 50.93L220.81 50.9L220.81 50.87L220.81 50.84L220.81 50.81L220.8 50.78L220.8 50.75L220.8 50.72L220.8 50.69L220.8 50.66L220.8 50.63L220.79 50.59L220.79 50.56L220.79 50.52L220.79 50.49L220.79 50.45L220.79 50.42L220.79 50.38L220.79 50.35L220.79 50.31L220.79 50.29L220.79 50.26L220.79 50.24L220.79 50.21L220.79 50.19L220.79 50.17L220.79 50.14L220.79 50.12L220.79 50.1L220.79 50.08L220.79 50.05L220.8 50.03L220.8 50.01L220.8 49.99L220.8 49.97L220.8 49.95L220.8 49.93L220.8 49.9L220.8 49.88L220.8 49.86L220.81 49.84L220.81 49.82L220.81 49.81L220.81 49.79L220.81 49.77L220.81 49.75L220.82 49.73L220.82 49.71L220.82 49.7L220.82 49.68L220.83 49.66L220.83 49.64L220.83 49.63L220.84 49.61L220.84 49.6L220.84 49.58L220.85 49.56L220.85 49.55L220.86 49.53L220.86 49.52L220.86 49.5L220.87 49.49L220.87 49.47L220.88 49.46L220.88 49.45L220.89 49.43L220.89 49.42L220.9 49.41L220.9 49.39L220.91 49.38L220.91 49.37L220.92 49.36L220.92 49.34L220.93 49.33L220.94 49.32L220.94 49.31L220.95 49.29L220.96 49.28L220.96 49.27L220.97 49.26L220.98 49.25L220.99 49.23L220.99 49.22L221 49.21L221.01 49.2L221.02 49.19L221.03 49.18L221.04 49.16L221.05 49.15L221.06 49.14L221.07 49.12L221.08 49.11L221.09 49.1L221.11 49.08L221.12 49.07L221.13 49.05L221.15 49.04L221.17 49.02L221.18 49.01L221.2 48.99L221.22 48.97L221.24 48.96L221.26 48.94L221.28 48.92L221.3 48.91L221.32 48.89L221.35 48.87L221.37 48.85L221.39 48.83L221.42 48.81L221.45 48.79L221.48 48.77L221.51 48.75L221.54 48.73L221.57 48.71L221.61 48.68L221.65 48.66L221.69 48.64L221.73 48.61L221.77 48.59L221.81 48.56L221.86 48.53L221.91 48.51L221.96 48.48L222.01 48.45L222.06 48.43L222.11 48.4L222.17 48.37L222.22 48.34L222.28 48.31L222.34 48.28L222.4 48.24L222.46 48.21L222.53 48.18L222.59 48.15L222.66 48.12L222.73 48.09L222.8 48.06L222.87 48.03L222.94 48L223.01 47.97L223.08 47.94L223.16 47.91L223.24 47.88L223.31 47.85L223.39 47.82L223.47 47.79L223.56 47.76L223.64 47.73L223.72 47.7L223.81 47.67L223.9 47.64L223.99 47.61L224.08 47.58L224.17 47.55L224.26 47.52L224.35 47.49L224.45 47.47L224.54 47.44L224.64 47.41L224.73 47.39L224.83 47.36L224.93 47.33L225.03 47.31L225.13 47.28L225.23 47.26L225.33 47.23L225.43 47.21L225.53 47.19L225.64 47.16L225.74 47.14L225.84 47.12L225.95 47.1L226.06 47.08L226.16 47.06L226.27 47.04L226.38 47.02L226.49 47L226.6 46.99L226.71 46.97L226.82 46.96L226.93 46.94L227.04 46.93L227.15 46.92L227.26 46.91L227.37 46.9L227.49 46.89L227.6 46.88L227.72 46.87L227.83 46.87L227.95 46.86L228.06 46.86L228.18 46.86L228.3 46.85L228.41 46.85L228.53 46.85L228.72 46.85L228.9 46.86Z" id="evon6i6oU"></path><path d="M250.97 46.87L251.33 46.89L251.68 46.92L252.03 46.96L252.37 47L252.69 47.06L253.01 47.12L253.32 47.19L253.63 47.27L253.92 47.36L254.2 47.45L254.48 47.56L254.74 47.67L255 47.79L255.25 47.92L255.5 48.06L255.73 48.2L255.96 48.36L256.18 48.52L256.4 48.69L256.61 48.86L256.81 49.05L257 49.24L257.18 49.45L257.36 49.65L257.53 49.87L257.69 50.1L257.85 50.33L258 50.57L258.14 50.82L258.28 51.08L258.41 51.34L258.53 51.61L258.65 51.89L258.76 52.17L258.87 52.47L258.96 52.77L259.06 53.07L259.14 53.39L259.22 53.71L259.29 54.04L259.35 54.38L259.41 54.72L259.47 55.08L259.52 55.43L259.56 55.8L259.61 56.17L259.64 56.55L259.67 56.94L259.7 57.33L259.72 57.74L259.74 58.14L259.75 58.56L259.76 58.98L259.76 59.41L259.76 59.81L259.75 60.21L259.74 60.6L259.72 60.99L259.69 61.37L259.66 61.75L259.63 62.12L259.59 62.49L259.54 62.85L259.49 63.21L259.44 63.56L259.37 63.91L259.31 64.25L259.24 64.58L259.16 64.91L259.08 65.23L258.99 65.55L258.89 65.86L258.78 66.16L258.67 66.46L258.55 66.75L258.43 67.03L258.3 67.31L258.16 67.58L258.01 67.84L257.86 68.1L257.7 68.35L257.53 68.59L257.36 68.82L257.18 69.05L256.99 69.27L256.79 69.48L256.58 69.69L256.37 69.88L256.15 70.07L255.93 70.25L255.69 70.43L255.45 70.59L255.2 70.75L254.94 70.9L254.68 71.05L254.41 71.18L254.13 71.31L253.84 71.43L253.54 71.54L253.23 71.63L252.91 71.72L252.59 71.8L252.25 71.88L251.91 71.94L251.55 71.99L251.19 72.03L250.82 72.07L250.44 72.09L250.05 72.1L249.65 72.11L249.27 72.1L248.9 72.09L248.54 72.07L248.18 72.04L247.84 72L247.5 71.96L247.17 71.9L246.85 71.84L246.54 71.77L246.24 71.69L245.95 71.6L245.66 71.51L245.39 71.4L245.12 71.29L244.86 71.17L244.61 71.04L244.37 70.9L244.13 70.75L243.91 70.6L243.68 70.44L243.47 70.27L243.26 70.09L243.06 69.9L242.87 69.71L242.68 69.51L242.51 69.3L242.34 69.09L242.17 68.86L242.02 68.63L241.87 68.39L241.73 68.14L241.59 67.88L241.46 67.62L241.34 67.35L241.22 67.07L241.11 66.79L241.01 66.49L240.91 66.19L240.82 65.89L240.74 65.57L240.66 65.25L240.59 64.92L240.53 64.58L240.47 64.23L240.41 63.88L240.36 63.52L240.31 63.15L240.27 62.78L240.24 62.4L240.21 62.01L240.18 61.61L240.16 61.21L240.14 60.8L240.13 60.39L240.12 59.96L240.12 59.53L240.12 59.13L240.13 58.74L240.14 58.35L240.16 57.97L240.19 57.59L240.22 57.21L240.25 56.84L240.29 56.48L240.34 56.12L240.39 55.76L240.44 55.41L240.51 55.07L240.57 54.73L240.65 54.39L240.72 54.06L240.81 53.73L240.9 53.41L241 53.1L241.1 52.8L241.21 52.5L241.33 52.21L241.46 51.93L241.59 51.65L241.73 51.38L241.87 51.12L242.02 50.86L242.18 50.61L242.35 50.37L242.52 50.13L242.7 49.91L242.89 49.69L243.09 49.47L243.29 49.27L243.51 49.07L243.72 48.88L243.95 48.7L244.19 48.53L244.43 48.36L244.68 48.2L244.94 48.05L245.2 47.91L245.47 47.78L245.75 47.65L246.04 47.53L246.34 47.42L246.65 47.32L246.96 47.23L247.29 47.15L247.62 47.08L247.97 47.02L248.32 46.97L248.68 46.93L249.05 46.89L249.43 46.87L249.82 46.86L250.21 46.85L250.59 46.86L250.97 46.87ZM249.28 49.55L248.94 49.59L248.61 49.64L248.3 49.71L248 49.79L247.72 49.89L247.46 50.01L247.2 50.14L246.97 50.28L246.74 50.44L246.52 50.61L246.31 50.79L246.12 50.98L245.93 51.18L245.75 51.4L245.58 51.63L245.43 51.86L245.28 52.11L245.14 52.37L245.01 52.64L244.89 52.92L244.78 53.21L244.67 53.5L244.58 53.81L244.49 54.13L244.41 54.45L244.34 54.79L244.28 55.13L244.23 55.48L244.18 55.84L244.14 56.2L244.1 56.57L244.07 56.95L244.04 57.33L244.02 57.71L244 58.1L243.99 58.5L243.98 58.9L243.98 59.31L243.98 59.85L243.99 60.37L244.01 60.88L244.03 61.37L244.06 61.85L244.1 62.31L244.14 62.75L244.19 63.17L244.25 63.58L244.31 63.98L244.38 64.36L244.46 64.72L244.55 65.07L244.64 65.41L244.74 65.73L244.85 66.03L244.96 66.33L245.08 66.6L245.21 66.87L245.35 67.12L245.5 67.35L245.65 67.58L245.82 67.79L245.99 67.98L246.17 68.17L246.35 68.34L246.55 68.49L246.75 68.63L246.96 68.76L247.18 68.88L247.4 68.98L247.64 69.07L247.88 69.16L248.13 69.23L248.4 69.29L248.67 69.34L248.96 69.37L249.25 69.4L249.55 69.42L249.86 69.42L250.1 69.42L250.34 69.41L250.57 69.39L250.79 69.37L251.01 69.34L251.23 69.3L251.43 69.26L251.64 69.21L251.83 69.15L252.02 69.09L252.2 69.02L252.38 68.94L252.55 68.86L252.72 68.77L252.88 68.67L253.04 68.57L253.19 68.47L253.34 68.36L253.48 68.24L253.62 68.12L253.75 67.99L253.88 67.86L254 67.72L254.12 67.57L254.24 67.42L254.35 67.26L254.46 67.1L254.56 66.94L254.65 66.76L254.74 66.59L254.83 66.41L254.91 66.22L254.99 66.03L255.06 65.84L255.14 65.65L255.2 65.45L255.27 65.25L255.33 65.04L255.39 64.83L255.44 64.61L255.49 64.4L255.54 64.18L255.58 63.95L255.62 63.72L255.66 63.49L255.69 63.26L255.72 63.02L255.75 62.78L255.78 62.53L255.8 62.28L255.81 62.02L255.83 61.77L255.85 61.51L255.86 61.25L255.87 60.98L255.88 60.72L255.89 60.45L255.9 60.18L255.9 59.91L255.9 59.64L255.9 59.28L255.89 58.92L255.89 58.57L255.87 58.23L255.86 57.9L255.84 57.57L255.82 57.26L255.8 56.94L255.77 56.64L255.74 56.35L255.71 56.06L255.67 55.78L255.63 55.51L255.59 55.24L255.55 54.98L255.5 54.72L255.45 54.47L255.4 54.23L255.34 54L255.29 53.77L255.23 53.55L255.17 53.33L255.1 53.12L255.03 52.92L254.95 52.73L254.88 52.54L254.8 52.35L254.71 52.18L254.62 52.01L254.53 51.84L254.43 51.68L254.33 51.53L254.23 51.39L254.12 51.25L254.01 51.11L253.89 50.98L253.77 50.86L253.65 50.74L253.52 50.63L253.39 50.52L253.26 50.42L253.12 50.32L252.98 50.23L252.84 50.15L252.69 50.07L252.54 49.99L252.38 49.93L252.23 49.87L252.06 49.81L251.9 49.76L251.73 49.72L251.55 49.68L251.37 49.64L251.19 49.61L251 49.58L250.81 49.56L250.61 49.54L250.41 49.53L250.21 49.52L250 49.52L249.63 49.53L249.28 49.55Z" id="bzX7EiVvJ"></path></defs><g><g><g><use xlink:href="#b2O82ewXE4" opacity="1" fill="#ffffff" fill-opacity="1"></use><g><use xlink:href="#b2O82ewXE4" opacity="1" fill-opacity="0" stroke="#000000" stroke-width="1" stroke-opacity="0"></use></g></g><g><use xlink:href="#c2EpJ1ffo3" opacity="1" fill="#ffffff" fill-opacity="1"></use><g><use xlink:href="#c2EpJ1ffo3" opacity="1" fill-opacity="0" stroke="#000000" stroke-width="1" stroke-opacity="0"></use></g></g><g><use xlink:href="#f4uhvLqhjR" opacity="1" fill="#ffffff" fill-opacity="1"></use><g><use xlink:href="#f4uhvLqhjR" opacity="1" fill-opacity="0" stroke="#000000" stroke-width="1" stroke-opacity="0"></use></g></g><g><use xlink:href="#b1HbaP5eP4" opacity="1" fill="#c93c3c" fill-opacity="0"></use><g><use xlink:href="#b1HbaP5eP4" opacity="1" fill-opacity="0" stroke="#41228e" stroke-width="22.8" stroke-opacity="1"></use></g></g><g><use xlink:href="#dis7qIBV3" opacity="1" fill="#41228e" fill-opacity="1"></use><g><use xlink:href="#dis7qIBV3" opacity="1" fill-opacity="0" stroke="#906f16" stroke-width="1" stroke-opacity="0"></use></g></g><g><use xlink:href="#b9lyQB5SLZ" opacity="1" fill="#41228e" fill-opacity="1"></use><g><use xlink:href="#b9lyQB5SLZ" opacity="1" fill-opacity="0" stroke="#000000" stroke-width="1" stroke-opacity="0"></use></g></g><g><use xlink:href="#evon6i6oU" opacity="1" fill="#41228e" fill-opacity="1"></use><g><use xlink:href="#evon6i6oU" opacity="1" fill-opacity="0" stroke="#000000" stroke-width="1" stroke-opacity="0"></use></g></g><g><use xlink:href="#bzX7EiVvJ" opacity="1" fill="#41228e" fill-opacity="1"></use><g><use xlink:href="#bzX7EiVvJ" opacity="1" fill-opacity="0" stroke="#000000" stroke-width="1" stroke-opacity="0"></use></g></g></g></g></svg>